0
SECTION
2
HEADER
9
$INSUNITS
70
4
9
$ACADVER
1
AC1014
9
$HANDSEED
5
FFFF
0
ENDSEC
0
SECTION
2
TABLES
0
TABLE
2
VPORT
5
8
100
AcDbSymbolTable
0
ENDTAB
0
TABLE
2
LTYPE
5
5
100
AcDbSymbolTable
0
LTYPE
5
14
100
AcDbSymbolTableRecord
100
AcDbLinetypeTableRecord
2
BYBLOCK
70
0
0
LTYPE
5
15
100
AcDbSymbolTableRecord
100
AcDbLinetypeTableRecord
2
BYLAYER
70
0
0
ENDTAB
0
TABLE
2
LAYER
5
2
100
AcDbSymbolTable
70
2
0
LAYER
5
50
100
AcDbSymbolTableRecord
100
AcDbLayerTableRecord
2
0
70
0
6
CONTINUOUS
0
ENDTAB
0
TABLE
2
STYLE
5
3
100
AcDbSymbolTable
70
1
0
STYLE
5
11
100
AcDbSymbolTableRecord
100
AcDbTextStyleTableRecord
2
STANDARD
70
0
0
ENDTAB
0
TABLE
2
VIEW
5
6
100
AcDbSymbolTable
70
0
0
ENDTAB
0
TABLE
2
UCS
5
7
100
AcDbSymbolTable
70
0
0
ENDTAB
0
TABLE
2
APPID
5
9
100
AcDbSymbolTable
70
2
0
APPID
5
12
100
AcDbSymbolTableRecord
100
AcDbRegAppTableRecord
2
ACAD
70
0
0
ENDTAB
0
TABLE
2
DIMSTYLE
5
A
100
AcDbSymbolTable
70
1
0
ENDTAB
0
TABLE
2
BLOCK_RECORD
5
1
100
AcDbSymbolTable
70
1
0
BLOCK_RECORD
5
1F
100
AcDbSymbolTableRecord
100
AcDbBlockTableRecord
2
*MODEL_SPACE
0
BLOCK_RECORD
5
1B
100
AcDbSymbolTableRecord
100
AcDbBlockTableRecord
2
*PAPER_SPACE
0
ENDTAB
0
ENDSEC
0
SECTION
2
BLOCKS
0
BLOCK
5
20
100
AcDbEntity
100
AcDbBlockBegin
2
*MODEL_SPACE
0
ENDBLK
5
21
100
AcDbEntity
100
AcDbBlockEnd
0
BLOCK
5
1C
100
AcDbEntity
100
AcDbBlockBegin
2
*PAPER_SPACE
0
ENDBLK
5
1D
100
AcDbEntity
100
AcDbBlockEnd
0
ENDSEC
0
SECTION
2
ENTITIES
0
LWPOLYLINE
5
100
100
AcDbEntity
8
0
100
AcDbPolyline
90
32
70
1
43
0.0
10
75.000000000000014
20
3.1920891912748443e-31
10
0
20
0
10
0
20
123
10
2
20
123
10
2.0000000000000129
20
128
10
2.2204460492503131e-15
20
128
10
1.8873791418627661e-14
20
142
10
8.5
20
142
10
8.4999999999999982
20
32.265957313866558
42
0.34744670264498678
10
13.499999999999998
20
25.939225889107895
10
13.5
20
21.939225889107895
10
16.5
20
21.939225889107895
10
16.5
20
25.939225889107895
42
0.35782556558858636
10
21.500000000000004
20
32.500608207871906
10
21.500000000000004
20
37.500608207871906
10
27.000000000000007
20
37.500608207871906
42
-0.41421356237309465
10
30
20
34.500608207871906
10
30
20
30
42
0.41421356237309503
10
38
20
22
10
97.499999999999986
20
22
10
97.499999999999986
20
7.0000000000000018
10
101.49999999999999
20
7.0000000000000018
10
101.49999999999999
20
22
10
104.99999999999999
20
22
42
-0.41421356237309503
10
114.99999999999999
20
12.000000000000002
10
115
20
3.5527136788005009e-14
10
114.99999999999994
20
-97
10
45
20
-97
10
45.000000000000007
20
-67.000000000000014
10
75.000000000000014
20
-67.000000000000014
42
0.41421356237309503
10
85
20
-57.000000000000021
10
85
20
-9.9999999999999911
42
0.41421356237309503
0
LWPOLYLINE
5
101
100
AcDbEntity
8
0
100
AcDbPolyline
90
4
70
1
43
0.0
10
55.000000000000007
20
-72.000000000000014
10
51.000000000000007
20
-72.000000000000014
10
51.000000000000007
20
-79.500000000000014
10
55.000000000000007
20
-79.500000000000014
0
LWPOLYLINE
5
102
100
AcDbEntity
8
0
100
AcDbPolyline
90
4
70
1
43
0.0
10
65.000000000000014
20
-72
10
61.000000000000007
20
-72.000000000000014
10
61.000000000000007
20
-79.500000000000028
10
65.000000000000014
20
-79.5
0
LWPOLYLINE
5
103
100
AcDbEntity
8
0
100
AcDbPolyline
90
4
70
1
43
0.0
10
55.000000000000014
20
-84.500000000000014
10
51.000000000000014
20
-84.500000000000014
10
51.000000000000007
20
-92.000000000000014
10
55.000000000000014
20
-92.000000000000014
0
LWPOLYLINE
5
104
100
AcDbEntity
8
0
100
AcDbPolyline
90
4
70
1
43
0.0
10
65.000000000000028
20
-84.500000000000014
10
61.000000000000007
20
-84.500000000000014
10
61.000000000000007
20
-92.000000000000014
10
65.000000000000028
20
-92.000000000000014
0
LWPOLYLINE
5
105
100
AcDbEntity
8
0
100
AcDbPolyline
90
4
70
1
43
0.0
10
111.00000000000001
20
-72
10
107.00000000000001
20
-72.000000000000014
10
107.00000000000001
20
-79.500000000000028
10
111.00000000000001
20
-79.5
0
LWPOLYLINE
5
106
100
AcDbEntity
8
0
100
AcDbPolyline
90
4
70
1
43
0.0
10
97.000000000000028
20
-84.500000000000014
10
97
20
-92.000000000000014
10
101.00000000000001
20
-92.000000000000014
10
101.00000000000001
20
-84.500000000000014
0
LWPOLYLINE
5
107
100
AcDbEntity
8
0
100
AcDbPolyline
90
4
70
1
43
0.0
10
97
20
-72.000000000000014
10
97
20
-79.500000000000014
10
101.00000000000001
20
-79.500000000000014
10
101.00000000000001
20
-72.000000000000014
0
LWPOLYLINE
5
108
100
AcDbEntity
8
0
100
AcDbPolyline
90
4
70
1
43
0.0
10
111.00000000000006
20
-84.500000000000014
10
107.00000000000001
20
-84.500000000000014
10
107.00000000000001
20
-92.000000000000014
10
111.00000000000006
20
-92.000000000000014
0
LWPOLYLINE
5
109
100
AcDbEntity
8
0
100
AcDbPolyline
90
4
70
1
43
0.0
10
79
20
-91
10
71.5
20
-91
10
71.5
20
-95
10
79
20
-95
0
LWPOLYLINE
5
110
100
AcDbEntity
8
0
100
AcDbPolyline
90
4
70
1
43
0.0
10
91.5
20
-91
10
84
20
-91
10
84
20
-95
10
91.5
20
-95
0
ENDSEC
0
SECTION
2
OBJECTS
0
DICTIONARY
5
C
100
AcDbDictionary
3
ACAD_GROUP
350
D
3
ACAD_MLINESTYLE
350
17
0
DICTIONARY
5
D
100
AcDbDictionary
0
DICTIONARY
5
1A
330
C
100
AcDbDictionary
0
DICTIONARY
5
17
100
AcDbDictionary
0
ENDSEC
0
EOF
