solid ASCII
  facet normal 1.000000e+00 3.251450e-15 0.000000e+00
    outer loop
      vertex   4.900001e+00 1.400000e+01 3.000000e+00
      vertex   4.900001e+00 1.318051e+01 3.000000e+00
      vertex   4.900001e+00 1.400000e+01 -1.000000e+00
    endloop
  endfacet
  facet normal 1.000000e+00 3.251450e-15 0.000000e+00
    outer loop
      vertex   4.900001e+00 1.400000e+01 -1.000000e+00
      vertex   4.900001e+00 1.318051e+01 3.000000e+00
      vertex   4.900001e+00 1.318051e+01 -1.000000e+00
    endloop
  endfacet
  facet normal 9.969173e-01 -7.845910e-02 0.000000e+00
    outer loop
      vertex   4.900001e+00 1.318051e+01 3.000000e+00
      vertex   4.866143e+00 1.275031e+01 3.000000e+00
      vertex   4.900001e+00 1.318051e+01 -1.000000e+00
    endloop
  endfacet
  facet normal 9.969173e-01 -7.845910e-02 0.000000e+00
    outer loop
      vertex   4.900001e+00 1.318051e+01 -1.000000e+00
      vertex   4.866143e+00 1.275031e+01 3.000000e+00
      vertex   4.866143e+00 1.275031e+01 -1.000000e+00
    endloop
  endfacet
  facet normal 9.723699e-01 -2.334454e-01 0.000000e+00
    outer loop
      vertex   4.866143e+00 1.275031e+01 -1.000000e+00
      vertex   4.866143e+00 1.275031e+01 3.000000e+00
      vertex   4.765406e+00 1.233071e+01 3.000000e+00
    endloop
  endfacet
  facet normal 9.723699e-01 -2.334454e-01 0.000000e+00
    outer loop
      vertex   4.866143e+00 1.275031e+01 -1.000000e+00
      vertex   4.765406e+00 1.233071e+01 3.000000e+00
      vertex   4.765406e+00 1.233071e+01 -1.000000e+00
    endloop
  endfacet
  facet normal 9.238795e-01 -3.826834e-01 0.000000e+00
    outer loop
      vertex   4.765406e+00 1.233071e+01 -1.000000e+00
      vertex   4.765406e+00 1.233071e+01 3.000000e+00
      vertex   4.600268e+00 1.193203e+01 -1.000000e+00
    endloop
  endfacet
  facet normal 9.238795e-01 -3.826834e-01 0.000000e+00
    outer loop
      vertex   4.600268e+00 1.193203e+01 -1.000000e+00
      vertex   4.765406e+00 1.233071e+01 3.000000e+00
      vertex   4.600268e+00 1.193203e+01 3.000000e+00
    endloop
  endfacet
  facet normal 8.526402e-01 -5.224986e-01 0.000000e+00
    outer loop
      vertex   4.600268e+00 1.193203e+01 -1.000000e+00
      vertex   4.600268e+00 1.193203e+01 3.000000e+00
      vertex   4.374797e+00 1.156410e+01 3.000000e+00
    endloop
  endfacet
  facet normal 8.526402e-01 -5.224986e-01 0.000000e+00
    outer loop
      vertex   4.600268e+00 1.193203e+01 -1.000000e+00
      vertex   4.374797e+00 1.156410e+01 3.000000e+00
      vertex   4.374797e+00 1.156410e+01 -1.000000e+00
    endloop
  endfacet
  facet normal 7.604060e-01 -6.494480e-01 0.000000e+00
    outer loop
      vertex   4.374797e+00 1.156410e+01 -1.000000e+00
      vertex   4.374797e+00 1.156410e+01 3.000000e+00
      vertex   4.094544e+00 1.123597e+01 3.000000e+00
    endloop
  endfacet
  facet normal 7.604060e-01 -6.494480e-01 0.000000e+00
    outer loop
      vertex   4.374797e+00 1.156410e+01 -1.000000e+00
      vertex   4.094544e+00 1.123597e+01 3.000000e+00
      vertex   4.094544e+00 1.123597e+01 -1.000000e+00
    endloop
  endfacet
  facet normal 7.071068e-01 -7.071068e-01 0.000000e+00
    outer loop
      vertex   4.094544e+00 1.123597e+01 3.000000e+00
      vertex   1.894379e+00 9.035800e+00 3.000000e+00
      vertex   4.094544e+00 1.123597e+01 -1.000000e+00
    endloop
  endfacet
  facet normal 7.071068e-01 -7.071068e-01 0.000000e+00
    outer loop
      vertex   4.094544e+00 1.123597e+01 -1.000000e+00
      vertex   1.894379e+00 9.035800e+00 3.000000e+00
      vertex   1.894379e+00 9.035800e+00 -1.000000e+00
    endloop
  endfacet
  facet normal 1.000000e+00 7.059849e-17 5.551115e-17
    outer loop
      vertex   1.894379e+00 9.035800e+00 3.000000e+00
      vertex   1.894379e+00 5.890625e+00 3.000000e+00
      vertex   1.894379e+00 9.035800e+00 -1.000000e+00
    endloop
  endfacet
  facet normal 1.000000e+00 0.000000e+00 0.000000e+00
    outer loop
      vertex   1.894379e+00 9.035800e+00 -1.000000e+00
      vertex   1.894379e+00 5.890625e+00 3.000000e+00
      vertex   1.894379e+00 5.890625e+00 -1.000000e+00
    endloop
  endfacet
  facet normal -1.227478e-16 1.000000e+00 0.000000e+00
    outer loop
      vertex   1.894379e+00 5.890625e+00 3.000000e+00
      vertex   9.130175e+00 5.890625e+00 3.000000e+00
      vertex   1.894379e+00 5.890625e+00 -1.000000e+00
    endloop
  endfacet
  facet normal -1.227478e-16 1.000000e+00 0.000000e+00
    outer loop
      vertex   1.894379e+00 5.890625e+00 -1.000000e+00
      vertex   9.130175e+00 5.890625e+00 3.000000e+00
      vertex   9.130175e+00 5.890625e+00 -1.000000e+00
    endloop
  endfacet
  facet normal -1.000000e+00 0.000000e+00 0.000000e+00
    outer loop
      vertex   9.130175e+00 5.890625e+00 3.000000e+00
      vertex   9.130175e+00 1.400000e+01 3.000000e+00
      vertex   9.130175e+00 5.890625e+00 -1.000000e+00
    endloop
  endfacet
  facet normal -1.000000e+00 0.000000e+00 0.000000e+00
    outer loop
      vertex   9.130175e+00 5.890625e+00 -1.000000e+00
      vertex   9.130175e+00 1.400000e+01 3.000000e+00
      vertex   9.130175e+00 1.400000e+01 -1.000000e+00
    endloop
  endfacet
  facet normal -0.000000e+00 0.000000e+00 1.000000e+00
    outer loop
      vertex   4.900001e+00 1.400000e+01 -1.000000e+00
      vertex   4.900001e+00 1.318051e+01 -1.000000e+00
      vertex   9.130175e+00 1.400000e+01 -1.000000e+00
    endloop
  endfacet
  facet normal 0.000000e+00 0.000000e+00 1.000000e+00
    outer loop
      vertex   9.130175e+00 1.400000e+01 -1.000000e+00
      vertex   4.900001e+00 1.318051e+01 -1.000000e+00
      vertex   4.866143e+00 1.275031e+01 -1.000000e+00
    endloop
  endfacet
  facet normal 0.000000e+00 0.000000e+00 1.000000e+00
    outer loop
      vertex   9.130175e+00 1.400000e+01 -1.000000e+00
      vertex   4.866143e+00 1.275031e+01 -1.000000e+00
      vertex   4.765406e+00 1.233071e+01 -1.000000e+00
    endloop
  endfacet
  facet normal -0.000000e+00 0.000000e+00 1.000000e+00
    outer loop
      vertex   4.765406e+00 1.233071e+01 -1.000000e+00
      vertex   4.600268e+00 1.193203e+01 -1.000000e+00
      vertex   9.130175e+00 1.400000e+01 -1.000000e+00
    endloop
  endfacet
  facet normal 0.000000e+00 0.000000e+00 1.000000e+00
    outer loop
      vertex   9.130175e+00 1.400000e+01 -1.000000e+00
      vertex   4.600268e+00 1.193203e+01 -1.000000e+00
      vertex   9.130175e+00 5.890625e+00 -1.000000e+00
    endloop
  endfacet
  facet normal 0.000000e+00 0.000000e+00 1.000000e+00
    outer loop
      vertex   9.130175e+00 5.890625e+00 -1.000000e+00
      vertex   4.600268e+00 1.193203e+01 -1.000000e+00
      vertex   4.374797e+00 1.156410e+01 -1.000000e+00
    endloop
  endfacet
  facet normal 0.000000e+00 0.000000e+00 1.000000e+00
    outer loop
      vertex   9.130175e+00 5.890625e+00 -1.000000e+00
      vertex   4.374797e+00 1.156410e+01 -1.000000e+00
      vertex   4.094544e+00 1.123597e+01 -1.000000e+00
    endloop
  endfacet
  facet normal 0.000000e+00 0.000000e+00 1.000000e+00
    outer loop
      vertex   4.094544e+00 1.123597e+01 -1.000000e+00
      vertex   1.894379e+00 9.035800e+00 -1.000000e+00
      vertex   9.130175e+00 5.890625e+00 -1.000000e+00
    endloop
  endfacet
  facet normal 0.000000e+00 0.000000e+00 1.000000e+00
    outer loop
      vertex   9.130175e+00 5.890625e+00 -1.000000e+00
      vertex   1.894379e+00 9.035800e+00 -1.000000e+00
      vertex   1.894379e+00 5.890625e+00 -1.000000e+00
    endloop
  endfacet
  facet normal 1.000000e+00 0.000000e+00 0.000000e+00
    outer loop
      vertex   -9.130175e+00 1.400000e+01 3.000000e+00
      vertex   -9.130175e+00 5.890625e+00 3.000000e+00
      vertex   -9.130175e+00 1.400000e+01 -1.000000e+00
    endloop
  endfacet
  facet normal 1.000000e+00 0.000000e+00 0.000000e+00
    outer loop
      vertex   -9.130175e+00 1.400000e+01 -1.000000e+00
      vertex   -9.130175e+00 5.890625e+00 3.000000e+00
      vertex   -9.130175e+00 5.890625e+00 -1.000000e+00
    endloop
  endfacet
  facet normal 1.227478e-16 1.000000e+00 0.000000e+00
    outer loop
      vertex   -9.130175e+00 5.890625e+00 3.000000e+00
      vertex   -1.894379e+00 5.890625e+00 3.000000e+00
      vertex   -9.130175e+00 5.890625e+00 -1.000000e+00
    endloop
  endfacet
  facet normal 1.227478e-16 1.000000e+00 0.000000e+00
    outer loop
      vertex   -9.130175e+00 5.890625e+00 -1.000000e+00
      vertex   -1.894379e+00 5.890625e+00 3.000000e+00
      vertex   -1.894379e+00 5.890625e+00 -1.000000e+00
    endloop
  endfacet
  facet normal -1.000000e+00 0.000000e+00 5.551115e-17
    outer loop
      vertex   -1.894379e+00 5.890625e+00 3.000000e+00
      vertex   -1.894379e+00 9.035800e+00 3.000000e+00
      vertex   -1.894379e+00 5.890625e+00 -1.000000e+00
    endloop
  endfacet
  facet normal -1.000000e+00 0.000000e+00 5.551115e-17
    outer loop
      vertex   -1.894379e+00 5.890625e+00 -1.000000e+00
      vertex   -1.894379e+00 9.035800e+00 3.000000e+00
      vertex   -1.894379e+00 9.035800e+00 -1.000000e+00
    endloop
  endfacet
  facet normal -7.071068e-01 -7.071068e-01 3.925231e-17
    outer loop
      vertex   -1.894379e+00 9.035800e+00 3.000000e+00
      vertex   -4.094544e+00 1.123597e+01 3.000000e+00
      vertex   -1.894379e+00 9.035800e+00 -1.000000e+00
    endloop
  endfacet
  facet normal -7.071068e-01 -7.071068e-01 0.000000e+00
    outer loop
      vertex   -1.894379e+00 9.035800e+00 -1.000000e+00
      vertex   -4.094544e+00 1.123597e+01 3.000000e+00
      vertex   -4.094544e+00 1.123597e+01 -1.000000e+00
    endloop
  endfacet
  facet normal -7.604060e-01 -6.494480e-01 -0.000000e+00
    outer loop
      vertex   -4.094544e+00 1.123597e+01 3.000000e+00
      vertex   -4.374797e+00 1.156410e+01 3.000000e+00
      vertex   -4.094544e+00 1.123597e+01 -1.000000e+00
    endloop
  endfacet
  facet normal -7.604060e-01 -6.494480e-01 0.000000e+00
    outer loop
      vertex   -4.094544e+00 1.123597e+01 -1.000000e+00
      vertex   -4.374797e+00 1.156410e+01 3.000000e+00
      vertex   -4.374797e+00 1.156410e+01 -1.000000e+00
    endloop
  endfacet
  facet normal -8.526402e-01 -5.224986e-01 0.000000e+00
    outer loop
      vertex   -4.374797e+00 1.156410e+01 -1.000000e+00
      vertex   -4.374797e+00 1.156410e+01 3.000000e+00
      vertex   -4.600268e+00 1.193203e+01 3.000000e+00
    endloop
  endfacet
  facet normal -8.526402e-01 -5.224986e-01 0.000000e+00
    outer loop
      vertex   -4.374797e+00 1.156410e+01 -1.000000e+00
      vertex   -4.600268e+00 1.193203e+01 3.000000e+00
      vertex   -4.600268e+00 1.193203e+01 -1.000000e+00
    endloop
  endfacet
  facet normal -9.238795e-01 -3.826834e-01 0.000000e+00
    outer loop
      vertex   -4.600268e+00 1.193203e+01 -1.000000e+00
      vertex   -4.600268e+00 1.193203e+01 3.000000e+00
      vertex   -4.765405e+00 1.233071e+01 -1.000000e+00
    endloop
  endfacet
  facet normal -9.238795e-01 -3.826834e-01 0.000000e+00
    outer loop
      vertex   -4.765405e+00 1.233071e+01 -1.000000e+00
      vertex   -4.600268e+00 1.193203e+01 3.000000e+00
      vertex   -4.765405e+00 1.233071e+01 3.000000e+00
    endloop
  endfacet
  facet normal -9.723699e-01 -2.334454e-01 0.000000e+00
    outer loop
      vertex   -4.765405e+00 1.233071e+01 -1.000000e+00
      vertex   -4.765405e+00 1.233071e+01 3.000000e+00
      vertex   -4.866143e+00 1.275031e+01 3.000000e+00
    endloop
  endfacet
  facet normal -9.723699e-01 -2.334454e-01 0.000000e+00
    outer loop
      vertex   -4.765405e+00 1.233071e+01 -1.000000e+00
      vertex   -4.866143e+00 1.275031e+01 3.000000e+00
      vertex   -4.866143e+00 1.275031e+01 -1.000000e+00
    endloop
  endfacet
  facet normal -9.969173e-01 -7.845910e-02 0.000000e+00
    outer loop
      vertex   -4.866143e+00 1.275031e+01 -1.000000e+00
      vertex   -4.866143e+00 1.275031e+01 3.000000e+00
      vertex   -4.900000e+00 1.318051e+01 3.000000e+00
    endloop
  endfacet
  facet normal -9.969173e-01 -7.845910e-02 0.000000e+00
    outer loop
      vertex   -4.866143e+00 1.275031e+01 -1.000000e+00
      vertex   -4.900000e+00 1.318051e+01 3.000000e+00
      vertex   -4.900000e+00 1.318051e+01 -1.000000e+00
    endloop
  endfacet
  facet normal -1.000000e+00 2.167634e-15 0.000000e+00
    outer loop
      vertex   -4.900000e+00 1.318051e+01 3.000000e+00
      vertex   -4.900000e+00 1.400000e+01 3.000000e+00
      vertex   -4.900000e+00 1.318051e+01 -1.000000e+00
    endloop
  endfacet
  facet normal -1.000000e+00 2.167634e-15 0.000000e+00
    outer loop
      vertex   -4.900000e+00 1.318051e+01 -1.000000e+00
      vertex   -4.900000e+00 1.400000e+01 3.000000e+00
      vertex   -4.900000e+00 1.400000e+01 -1.000000e+00
    endloop
  endfacet
  facet normal 0.000000e+00 0.000000e+00 1.000000e+00
    outer loop
      vertex   -4.900000e+00 1.400000e+01 -1.000000e+00
      vertex   -9.130175e+00 1.400000e+01 -1.000000e+00
      vertex   -4.900000e+00 1.318051e+01 -1.000000e+00
    endloop
  endfacet
  facet normal 0.000000e+00 0.000000e+00 1.000000e+00
    outer loop
      vertex   -4.900000e+00 1.318051e+01 -1.000000e+00
      vertex   -9.130175e+00 1.400000e+01 -1.000000e+00
      vertex   -4.866143e+00 1.275031e+01 -1.000000e+00
    endloop
  endfacet
  facet normal 0.000000e+00 0.000000e+00 1.000000e+00
    outer loop
      vertex   -4.866143e+00 1.275031e+01 -1.000000e+00
      vertex   -9.130175e+00 1.400000e+01 -1.000000e+00
      vertex   -4.765405e+00 1.233071e+01 -1.000000e+00
    endloop
  endfacet
  facet normal 0.000000e+00 0.000000e+00 1.000000e+00
    outer loop
      vertex   -4.765405e+00 1.233071e+01 -1.000000e+00
      vertex   -9.130175e+00 1.400000e+01 -1.000000e+00
      vertex   -4.600268e+00 1.193203e+01 -1.000000e+00
    endloop
  endfacet
  facet normal 0.000000e+00 0.000000e+00 1.000000e+00
    outer loop
      vertex   -4.600268e+00 1.193203e+01 -1.000000e+00
      vertex   -9.130175e+00 1.400000e+01 -1.000000e+00
      vertex   -9.130175e+00 5.890625e+00 -1.000000e+00
    endloop
  endfacet
  facet normal 0.000000e+00 0.000000e+00 1.000000e+00
    outer loop
      vertex   -4.600268e+00 1.193203e+01 -1.000000e+00
      vertex   -9.130175e+00 5.890625e+00 -1.000000e+00
      vertex   -4.374797e+00 1.156410e+01 -1.000000e+00
    endloop
  endfacet
  facet normal 0.000000e+00 0.000000e+00 1.000000e+00
    outer loop
      vertex   -4.374797e+00 1.156410e+01 -1.000000e+00
      vertex   -9.130175e+00 5.890625e+00 -1.000000e+00
      vertex   -4.094544e+00 1.123597e+01 -1.000000e+00
    endloop
  endfacet
  facet normal 0.000000e+00 0.000000e+00 1.000000e+00
    outer loop
      vertex   -4.094544e+00 1.123597e+01 -1.000000e+00
      vertex   -9.130175e+00 5.890625e+00 -1.000000e+00
      vertex   -1.894379e+00 9.035800e+00 -1.000000e+00
    endloop
  endfacet
  facet normal 0.000000e+00 0.000000e+00 1.000000e+00
    outer loop
      vertex   -1.894379e+00 9.035800e+00 -1.000000e+00
      vertex   -9.130175e+00 5.890625e+00 -1.000000e+00
      vertex   -1.894379e+00 5.890625e+00 -1.000000e+00
    endloop
  endfacet
  facet normal 0.000000e+00 0.000000e+00 1.000000e+00
    outer loop
      vertex   1.030000e+01 -3.000000e+00 3.000000e+00
      vertex   1.894379e+00 5.890625e+00 3.000000e+00
      vertex   -1.030000e+01 -3.000000e+00 3.000000e+00
    endloop
  endfacet
  facet normal 0.000000e+00 0.000000e+00 1.000000e+00
    outer loop
      vertex   -1.030000e+01 -3.000000e+00 3.000000e+00
      vertex   1.894379e+00 5.890625e+00 3.000000e+00
      vertex   -1.894379e+00 5.890625e+00 3.000000e+00
    endloop
  endfacet
  facet normal 0.000000e+00 0.000000e+00 1.000000e+00
    outer loop
      vertex   -1.030000e+01 -3.000000e+00 3.000000e+00
      vertex   -1.894379e+00 5.890625e+00 3.000000e+00
      vertex   -1.030000e+01 5.000000e+00 3.000000e+00
    endloop
  endfacet
  facet normal 0.000000e+00 0.000000e+00 1.000000e+00
    outer loop
      vertex   -1.030000e+01 5.000000e+00 3.000000e+00
      vertex   -1.894379e+00 5.890625e+00 3.000000e+00
      vertex   -9.130175e+00 5.890625e+00 3.000000e+00
    endloop
  endfacet
  facet normal 0.000000e+00 -0.000000e+00 1.000000e+00
    outer loop
      vertex   -1.030000e+01 5.000000e+00 3.000000e+00
      vertex   -9.130175e+00 5.890625e+00 3.000000e+00
      vertex   -1.250000e+01 5.000000e+00 3.000000e+00
    endloop
  endfacet
  facet normal 0.000000e+00 0.000000e+00 1.000000e+00
    outer loop
      vertex   -1.250000e+01 5.000000e+00 3.000000e+00
      vertex   -9.130175e+00 5.890625e+00 3.000000e+00
      vertex   -1.250000e+01 1.400000e+01 3.000000e+00
    endloop
  endfacet
  facet normal -0.000000e+00 0.000000e+00 1.000000e+00
    outer loop
      vertex   -1.250000e+01 1.400000e+01 3.000000e+00
      vertex   -9.130175e+00 5.890625e+00 3.000000e+00
      vertex   -9.130175e+00 1.400000e+01 3.000000e+00
    endloop
  endfacet
  facet normal 0.000000e+00 -0.000000e+00 1.000000e+00
    outer loop
      vertex   1.030000e+01 -3.000000e+00 3.000000e+00
      vertex   1.030000e+01 5.000000e+00 3.000000e+00
      vertex   1.894379e+00 5.890625e+00 3.000000e+00
    endloop
  endfacet
  facet normal -0.000000e+00 0.000000e+00 1.000000e+00
    outer loop
      vertex   1.894379e+00 5.890625e+00 3.000000e+00
      vertex   1.030000e+01 5.000000e+00 3.000000e+00
      vertex   9.130175e+00 5.890625e+00 3.000000e+00
    endloop
  endfacet
  facet normal 0.000000e+00 0.000000e+00 1.000000e+00
    outer loop
      vertex   9.130175e+00 5.890625e+00 3.000000e+00
      vertex   1.030000e+01 5.000000e+00 3.000000e+00
      vertex   1.250000e+01 5.000000e+00 3.000000e+00
    endloop
  endfacet
  facet normal -0.000000e+00 0.000000e+00 1.000000e+00
    outer loop
      vertex   9.130175e+00 5.890625e+00 3.000000e+00
      vertex   1.250000e+01 5.000000e+00 3.000000e+00
      vertex   1.250000e+01 1.400000e+01 3.000000e+00
    endloop
  endfacet
  facet normal 0.000000e+00 0.000000e+00 1.000000e+00
    outer loop
      vertex   1.250000e+01 1.400000e+01 3.000000e+00
      vertex   9.130175e+00 1.400000e+01 3.000000e+00
      vertex   9.130175e+00 5.890625e+00 3.000000e+00
    endloop
  endfacet
  facet normal 0.000000e+00 0.000000e+00 1.000000e+00
    outer loop
      vertex   1.894379e+00 5.890625e+00 3.000000e+00
      vertex   1.894379e+00 9.035800e+00 3.000000e+00
      vertex   -1.894379e+00 5.890625e+00 3.000000e+00
    endloop
  endfacet
  facet normal 0.000000e+00 0.000000e+00 1.000000e+00
    outer loop
      vertex   -1.894379e+00 5.890625e+00 3.000000e+00
      vertex   1.894379e+00 9.035800e+00 3.000000e+00
      vertex   -1.894379e+00 9.035800e+00 3.000000e+00
    endloop
  endfacet
  facet normal 0.000000e+00 0.000000e+00 1.000000e+00
    outer loop
      vertex   -1.894379e+00 9.035800e+00 3.000000e+00
      vertex   1.894379e+00 9.035800e+00 3.000000e+00
      vertex   4.094544e+00 1.123597e+01 3.000000e+00
    endloop
  endfacet
  facet normal 0.000000e+00 -0.000000e+00 1.000000e+00
    outer loop
      vertex   -1.894379e+00 9.035800e+00 3.000000e+00
      vertex   4.094544e+00 1.123597e+01 3.000000e+00
      vertex   -4.094544e+00 1.123597e+01 3.000000e+00
    endloop
  endfacet
  facet normal 0.000000e+00 0.000000e+00 1.000000e+00
    outer loop
      vertex   -4.094544e+00 1.123597e+01 3.000000e+00
      vertex   4.094544e+00 1.123597e+01 3.000000e+00
      vertex   4.374797e+00 1.156410e+01 3.000000e+00
    endloop
  endfacet
  facet normal 0.000000e+00 0.000000e+00 1.000000e+00
    outer loop
      vertex   -4.094544e+00 1.123597e+01 3.000000e+00
      vertex   4.374797e+00 1.156410e+01 3.000000e+00
      vertex   4.600268e+00 1.193203e+01 3.000000e+00
    endloop
  endfacet
  facet normal 0.000000e+00 -0.000000e+00 1.000000e+00
    outer loop
      vertex   4.600268e+00 1.193203e+01 3.000000e+00
      vertex   4.765406e+00 1.233071e+01 3.000000e+00
      vertex   -4.094544e+00 1.123597e+01 3.000000e+00
    endloop
  endfacet
  facet normal 0.000000e+00 0.000000e+00 1.000000e+00
    outer loop
      vertex   -4.094544e+00 1.123597e+01 3.000000e+00
      vertex   4.765406e+00 1.233071e+01 3.000000e+00
      vertex   4.866143e+00 1.275031e+01 3.000000e+00
    endloop
  endfacet
  facet normal 0.000000e+00 -0.000000e+00 1.000000e+00
    outer loop
      vertex   -4.094544e+00 1.123597e+01 3.000000e+00
      vertex   4.866143e+00 1.275031e+01 3.000000e+00
      vertex   -4.374797e+00 1.156410e+01 3.000000e+00
    endloop
  endfacet
  facet normal 0.000000e+00 -0.000000e+00 1.000000e+00
    outer loop
      vertex   -4.374797e+00 1.156410e+01 3.000000e+00
      vertex   4.866143e+00 1.275031e+01 3.000000e+00
      vertex   -4.600268e+00 1.193203e+01 3.000000e+00
    endloop
  endfacet
  facet normal 0.000000e+00 -0.000000e+00 1.000000e+00
    outer loop
      vertex   -4.600268e+00 1.193203e+01 3.000000e+00
      vertex   4.866143e+00 1.275031e+01 3.000000e+00
      vertex   -4.765405e+00 1.233071e+01 3.000000e+00
    endloop
  endfacet
  facet normal 0.000000e+00 -0.000000e+00 1.000000e+00
    outer loop
      vertex   -4.765405e+00 1.233071e+01 3.000000e+00
      vertex   4.866143e+00 1.275031e+01 3.000000e+00
      vertex   -4.866143e+00 1.275031e+01 3.000000e+00
    endloop
  endfacet
  facet normal 0.000000e+00 0.000000e+00 1.000000e+00
    outer loop
      vertex   -4.866143e+00 1.275031e+01 3.000000e+00
      vertex   4.866143e+00 1.275031e+01 3.000000e+00
      vertex   4.900001e+00 1.318051e+01 3.000000e+00
    endloop
  endfacet
  facet normal 0.000000e+00 -0.000000e+00 1.000000e+00
    outer loop
      vertex   -4.866143e+00 1.275031e+01 3.000000e+00
      vertex   4.900001e+00 1.318051e+01 3.000000e+00
      vertex   -4.900000e+00 1.318051e+01 3.000000e+00
    endloop
  endfacet
  facet normal 0.000000e+00 0.000000e+00 1.000000e+00
    outer loop
      vertex   -4.900000e+00 1.318051e+01 3.000000e+00
      vertex   4.900001e+00 1.318051e+01 3.000000e+00
      vertex   -4.900000e+00 1.400000e+01 3.000000e+00
    endloop
  endfacet
  facet normal -0.000000e+00 0.000000e+00 1.000000e+00
    outer loop
      vertex   -4.900000e+00 1.400000e+01 3.000000e+00
      vertex   4.900001e+00 1.318051e+01 3.000000e+00
      vertex   4.900001e+00 1.400000e+01 3.000000e+00
    endloop
  endfacet
  facet normal 7.071068e-01 0.000000e+00 -7.071068e-01
    outer loop
      vertex   -8.800000e+00 5.000000e+00 9.110000e+00
      vertex   -8.800000e+00 -3.000000e+00 9.110000e+00
      vertex   -8.900000e+00 5.000000e+00 9.010000e+00
    endloop
  endfacet
  facet normal 7.071068e-01 0.000000e+00 -7.071068e-01
    outer loop
      vertex   -8.900000e+00 5.000000e+00 9.010000e+00
      vertex   -8.800000e+00 -3.000000e+00 9.110000e+00
      vertex   -8.900000e+00 -3.000000e+00 9.010000e+00
    endloop
  endfacet
  facet normal -0.000000e+00 -0.000000e+00 -1.000000e+00
    outer loop
      vertex   -8.900000e+00 5.000000e+00 9.010000e+00
      vertex   -8.900000e+00 -3.000000e+00 9.010000e+00
      vertex   -1.030000e+01 5.000000e+00 9.010000e+00
    endloop
  endfacet
  facet normal 0.000000e+00 0.000000e+00 -1.000000e+00
    outer loop
      vertex   -1.030000e+01 5.000000e+00 9.010000e+00
      vertex   -8.900000e+00 -3.000000e+00 9.010000e+00
      vertex   -1.030000e+01 -3.000000e+00 9.010000e+00
    endloop
  endfacet
  facet normal 0.000000e+00 -1.000000e+00 0.000000e+00
    outer loop
      vertex   -8.900000e+00 -3.000000e+00 9.010000e+00
      vertex   -8.800000e+00 -3.000000e+00 9.110000e+00
      vertex   -1.030000e+01 -3.000000e+00 9.010000e+00
    endloop
  endfacet
  facet normal 0.000000e+00 -1.000000e+00 0.000000e+00
    outer loop
      vertex   -1.030000e+01 -3.000000e+00 9.010000e+00
      vertex   -8.800000e+00 -3.000000e+00 9.110000e+00
      vertex   -8.800000e+00 -3.000000e+00 9.500000e+00
    endloop
  endfacet
  facet normal 7.289903e-17 -1.000000e+00 -2.231604e-16
    outer loop
      vertex   -1.030000e+01 -3.000000e+00 9.010000e+00
      vertex   -8.800000e+00 -3.000000e+00 9.500000e+00
      vertex   -1.030000e+01 -3.000000e+00 1.100000e+01
    endloop
  endfacet
  facet normal -3.700743e-16 -1.000000e+00 -2.231604e-16
    outer loop
      vertex   -1.030000e+01 -3.000000e+00 1.100000e+01
      vertex   -1.150000e+01 -3.000000e+00 1.100000e+01
      vertex   -1.030000e+01 -3.000000e+00 9.010000e+00
    endloop
  endfacet
  facet normal -0.000000e+00 -1.000000e+00 0.000000e+00
    outer loop
      vertex   -1.030000e+01 -3.000000e+00 9.010000e+00
      vertex   -1.150000e+01 -3.000000e+00 1.100000e+01
      vertex   -1.150000e+01 -3.000000e+00 6.732051e+00
    endloop
  endfacet
  facet normal 0.000000e+00 -1.000000e+00 0.000000e+00
    outer loop
      vertex   -1.030000e+01 -3.000000e+00 9.010000e+00
      vertex   -1.150000e+01 -3.000000e+00 6.732051e+00
      vertex   -1.154371e+01 -3.000000e+00 6.316227e+00
    endloop
  endfacet
  facet normal -1.600440e-16 -1.000000e+00 7.389171e-17
    outer loop
      vertex   -1.030000e+01 -3.000000e+00 9.010000e+00
      vertex   -1.154371e+01 -3.000000e+00 6.316227e+00
      vertex   -1.030000e+01 -3.000000e+00 3.000000e+00
    endloop
  endfacet
  facet normal -1.913178e-16 -1.000000e+00 6.216291e-17
    outer loop
      vertex   -1.030000e+01 -3.000000e+00 3.000000e+00
      vertex   -1.154371e+01 -3.000000e+00 6.316227e+00
      vertex   -1.167291e+01 -3.000000e+00 5.918578e+00
    endloop
  endfacet
  facet normal -1.452245e-16 -1.000000e+00 8.384538e-17
    outer loop
      vertex   -1.030000e+01 -3.000000e+00 3.000000e+00
      vertex   -1.167291e+01 -3.000000e+00 5.918578e+00
      vertex   -1.188197e+01 -3.000000e+00 5.556480e+00
    endloop
  endfacet
  facet normal -1.143431e-16 -1.000000e+00 1.029550e-16
    outer loop
      vertex   -1.188197e+01 -3.000000e+00 5.556480e+00
      vertex   -1.216174e+01 -3.000000e+00 5.245761e+00
      vertex   -1.030000e+01 -3.000000e+00 3.000000e+00
    endloop
  endfacet
  facet normal -8.966493e-17 -1.000000e+00 1.234132e-16
    outer loop
      vertex   -1.030000e+01 -3.000000e+00 3.000000e+00
      vertex   -1.216174e+01 -3.000000e+00 5.245761e+00
      vertex   -1.250000e+01 -3.000000e+00 5.000000e+00
    endloop
  endfacet
  facet normal 3.870431e-08 -1.000000e+00 4.257475e-08
    outer loop
      vertex   -1.030000e+01 -3.000000e+00 3.000000e+00
      vertex   -1.250000e+01 -3.000000e+00 5.000000e+00
      vertex   -1.250000e+01 -3.000000e+00 -2.000000e+00
    endloop
  endfacet
  facet normal 0.000000e+00 -1.000000e+00 5.960465e-08
    outer loop
      vertex   -1.250000e+01 -3.000000e+00 -2.000000e+00
      vertex   1.250000e+01 -3.000000e+00 -2.000000e+00
      vertex   -1.030000e+01 -3.000000e+00 3.000000e+00
    endloop
  endfacet
  facet normal 0.000000e+00 -1.000000e+00 5.960465e-08
    outer loop
      vertex   -1.030000e+01 -3.000000e+00 3.000000e+00
      vertex   1.250000e+01 -3.000000e+00 -2.000000e+00
      vertex   1.030000e+01 -3.000000e+00 3.000000e+00
    endloop
  endfacet
  facet normal -3.870431e-08 -1.000000e+00 4.257475e-08
    outer loop
      vertex   1.030000e+01 -3.000000e+00 3.000000e+00
      vertex   1.250000e+01 -3.000000e+00 -2.000000e+00
      vertex   1.250000e+01 -3.000000e+00 5.000000e+00
    endloop
  endfacet
  facet normal 8.966493e-17 -1.000000e+00 1.234132e-16
    outer loop
      vertex   1.030000e+01 -3.000000e+00 3.000000e+00
      vertex   1.250000e+01 -3.000000e+00 5.000000e+00
      vertex   1.216174e+01 -3.000000e+00 5.245761e+00
    endloop
  endfacet
  facet normal 1.143431e-16 -1.000000e+00 1.029550e-16
    outer loop
      vertex   1.216174e+01 -3.000000e+00 5.245761e+00
      vertex   1.188197e+01 -3.000000e+00 5.556480e+00
      vertex   1.030000e+01 -3.000000e+00 3.000000e+00
    endloop
  endfacet
  facet normal 1.452245e-16 -1.000000e+00 8.384538e-17
    outer loop
      vertex   1.030000e+01 -3.000000e+00 3.000000e+00
      vertex   1.188197e+01 -3.000000e+00 5.556480e+00
      vertex   1.167291e+01 -3.000000e+00 5.918578e+00
    endloop
  endfacet
  facet normal 1.913178e-16 -1.000000e+00 6.216291e-17
    outer loop
      vertex   1.030000e+01 -3.000000e+00 3.000000e+00
      vertex   1.167291e+01 -3.000000e+00 5.918578e+00
      vertex   1.154371e+01 -3.000000e+00 6.316227e+00
    endloop
  endfacet
  facet normal 1.600440e-16 -1.000000e+00 7.389171e-17
    outer loop
      vertex   1.030000e+01 -3.000000e+00 3.000000e+00
      vertex   1.154371e+01 -3.000000e+00 6.316227e+00
      vertex   1.030000e+01 -3.000000e+00 9.010000e+00
    endloop
  endfacet
  facet normal 0.000000e+00 -1.000000e+00 0.000000e+00
    outer loop
      vertex   1.030000e+01 -3.000000e+00 9.010000e+00
      vertex   1.154371e+01 -3.000000e+00 6.316227e+00
      vertex   1.150000e+01 -3.000000e+00 6.732051e+00
    endloop
  endfacet
  facet normal 0.000000e+00 -1.000000e+00 0.000000e+00
    outer loop
      vertex   1.030000e+01 -3.000000e+00 9.010000e+00
      vertex   1.150000e+01 -3.000000e+00 6.732051e+00
      vertex   1.150000e+01 -3.000000e+00 1.100000e+01
    endloop
  endfacet
  facet normal 3.700743e-16 -1.000000e+00 -2.231604e-16
    outer loop
      vertex   1.150000e+01 -3.000000e+00 1.100000e+01
      vertex   1.030000e+01 -3.000000e+00 1.100000e+01
      vertex   1.030000e+01 -3.000000e+00 9.010000e+00
    endloop
  endfacet
  facet normal -7.289903e-17 -1.000000e+00 -2.231604e-16
    outer loop
      vertex   1.030000e+01 -3.000000e+00 9.010000e+00
      vertex   1.030000e+01 -3.000000e+00 1.100000e+01
      vertex   8.800001e+00 -3.000000e+00 9.500000e+00
    endloop
  endfacet
  facet normal 0.000000e+00 -1.000000e+00 0.000000e+00
    outer loop
      vertex   1.030000e+01 -3.000000e+00 9.010000e+00
      vertex   8.800001e+00 -3.000000e+00 9.500000e+00
      vertex   8.800001e+00 -3.000000e+00 9.110000e+00
    endloop
  endfacet
  facet normal 0.000000e+00 -1.000000e+00 0.000000e+00
    outer loop
      vertex   8.800001e+00 -3.000000e+00 9.110000e+00
      vertex   8.900001e+00 -3.000000e+00 9.010000e+00
      vertex   1.030000e+01 -3.000000e+00 9.010000e+00
    endloop
  endfacet
  facet normal 1.000000e+00 0.000000e+00 -0.000000e+00
    outer loop
      vertex   -8.800000e+00 5.000000e+00 9.110000e+00
      vertex   -8.800000e+00 5.000000e+00 9.500000e+00
      vertex   -8.800000e+00 -3.000000e+00 9.110000e+00
    endloop
  endfacet
  facet normal 1.000000e+00 0.000000e+00 0.000000e+00
    outer loop
      vertex   -8.800000e+00 -3.000000e+00 9.110000e+00
      vertex   -8.800000e+00 5.000000e+00 9.500000e+00
      vertex   -8.800000e+00 -3.000000e+00 9.500000e+00
    endloop
  endfacet
  facet normal 7.071068e-01 -0.000000e+00 7.071068e-01
    outer loop
      vertex   -1.030000e+01 -3.000000e+00 1.100000e+01
      vertex   -8.800000e+00 -3.000000e+00 9.500000e+00
      vertex   -1.030000e+01 5.000000e+00 1.100000e+01
    endloop
  endfacet
  facet normal 7.071068e-01 0.000000e+00 7.071068e-01
    outer loop
      vertex   -1.030000e+01 5.000000e+00 1.100000e+01
      vertex   -8.800000e+00 -3.000000e+00 9.500000e+00
      vertex   -8.800000e+00 5.000000e+00 9.500000e+00
    endloop
  endfacet
  facet normal 0.000000e+00 0.000000e+00 1.000000e+00
    outer loop
      vertex   -1.030000e+01 5.000000e+00 1.100000e+01
      vertex   -1.150000e+01 5.000000e+00 1.100000e+01
      vertex   -1.030000e+01 -3.000000e+00 1.100000e+01
    endloop
  endfacet
  facet normal 0.000000e+00 0.000000e+00 1.000000e+00
    outer loop
      vertex   -1.030000e+01 -3.000000e+00 1.100000e+01
      vertex   -1.150000e+01 5.000000e+00 1.100000e+01
      vertex   -1.150000e+01 -3.000000e+00 1.100000e+01
    endloop
  endfacet
  facet normal -5.877853e-01 0.000000e+00 8.090170e-01
    outer loop
      vertex   -1.250000e+01 5.000000e+00 5.000000e+00
      vertex   -1.250000e+01 -3.000000e+00 5.000000e+00
      vertex   -1.216174e+01 -5.000000e-01 5.245761e+00
    endloop
  endfacet
  facet normal -5.877853e-01 -7.050671e-16 8.090170e-01
    outer loop
      vertex   -1.216174e+01 -5.000000e-01 5.245761e+00
      vertex   -1.250000e+01 -3.000000e+00 5.000000e+00
      vertex   -1.216174e+01 -3.000000e+00 5.245761e+00
    endloop
  endfacet
  facet normal -7.431448e-01 -7.657591e-16 6.691306e-01
    outer loop
      vertex   -1.216174e+01 -5.000000e-01 5.245761e+00
      vertex   -1.216174e+01 -3.000000e+00 5.245761e+00
      vertex   -1.188197e+01 -5.000000e-01 5.556480e+00
    endloop
  endfacet
  facet normal -7.431448e-01 0.000000e+00 6.691306e-01
    outer loop
      vertex   -1.188197e+01 -5.000000e-01 5.556480e+00
      vertex   -1.216174e+01 -3.000000e+00 5.245761e+00
      vertex   -1.188197e+01 -3.000000e+00 5.556480e+00
    endloop
  endfacet
  facet normal -8.660254e-01 0.000000e+00 5.000000e-01
    outer loop
      vertex   -1.188197e+01 -5.000000e-01 5.556480e+00
      vertex   -1.188197e+01 -3.000000e+00 5.556480e+00
      vertex   -1.167291e+01 -5.000000e-01 5.918578e+00
    endloop
  endfacet
  facet normal -8.660254e-01 -7.929837e-16 5.000000e-01
    outer loop
      vertex   -1.167291e+01 -5.000000e-01 5.918578e+00
      vertex   -1.188197e+01 -3.000000e+00 5.556480e+00
      vertex   -1.167291e+01 -3.000000e+00 5.918578e+00
    endloop
  endfacet
  facet normal -9.510565e-01 -7.855512e-16 3.090170e-01
    outer loop
      vertex   -1.167291e+01 -5.000000e-01 5.918578e+00
      vertex   -1.167291e+01 -3.000000e+00 5.918578e+00
      vertex   -1.154371e+01 -5.000000e-01 6.316227e+00
    endloop
  endfacet
  facet normal -9.510565e-01 0.000000e+00 3.090170e-01
    outer loop
      vertex   -1.154371e+01 -5.000000e-01 6.316227e+00
      vertex   -1.167291e+01 -3.000000e+00 5.918578e+00
      vertex   -1.154371e+01 -3.000000e+00 6.316227e+00
    endloop
  endfacet
  facet normal -9.945219e-01 0.000000e+00 1.045285e-01
    outer loop
      vertex   -1.154371e+01 -5.000000e-01 6.316227e+00
      vertex   -1.154371e+01 -3.000000e+00 6.316227e+00
      vertex   -1.150000e+01 -3.000000e+00 6.732051e+00
    endloop
  endfacet
  facet normal -9.945219e-01 0.000000e+00 1.045285e-01
    outer loop
      vertex   -1.150000e+01 -3.000000e+00 6.732051e+00
      vertex   -1.150000e+01 5.000000e+00 6.732051e+00
      vertex   -1.154371e+01 -5.000000e-01 6.316227e+00
    endloop
  endfacet
  facet normal -9.945219e-01 0.000000e+00 1.045285e-01
    outer loop
      vertex   -1.154371e+01 -5.000000e-01 6.316227e+00
      vertex   -1.150000e+01 5.000000e+00 6.732051e+00
      vertex   -1.154371e+01 5.000000e+00 6.316227e+00
    endloop
  endfacet
  facet normal -9.510565e-01 0.000000e+00 3.090170e-01
    outer loop
      vertex   -1.154371e+01 -5.000000e-01 6.316227e+00
      vertex   -1.154371e+01 5.000000e+00 6.316227e+00
      vertex   -1.167291e+01 -5.000000e-01 5.918578e+00
    endloop
  endfacet
  facet normal -9.510565e-01 3.570687e-16 3.090170e-01
    outer loop
      vertex   -1.167291e+01 -5.000000e-01 5.918578e+00
      vertex   -1.154371e+01 5.000000e+00 6.316227e+00
      vertex   -1.167291e+01 5.000000e+00 5.918578e+00
    endloop
  endfacet
  facet normal -8.660254e-01 3.604472e-16 5.000000e-01
    outer loop
      vertex   -1.167291e+01 -5.000000e-01 5.918578e+00
      vertex   -1.167291e+01 5.000000e+00 5.918578e+00
      vertex   -1.188197e+01 -5.000000e-01 5.556480e+00
    endloop
  endfacet
  facet normal -8.660254e-01 0.000000e+00 5.000000e-01
    outer loop
      vertex   -1.188197e+01 -5.000000e-01 5.556480e+00
      vertex   -1.167291e+01 5.000000e+00 5.918578e+00
      vertex   -1.188197e+01 5.000000e+00 5.556480e+00
    endloop
  endfacet
  facet normal -7.431448e-01 0.000000e+00 6.691306e-01
    outer loop
      vertex   -1.188197e+01 -5.000000e-01 5.556480e+00
      vertex   -1.188197e+01 5.000000e+00 5.556480e+00
      vertex   -1.216174e+01 -5.000000e-01 5.245761e+00
    endloop
  endfacet
  facet normal -7.431448e-01 3.480723e-16 6.691306e-01
    outer loop
      vertex   -1.216174e+01 -5.000000e-01 5.245761e+00
      vertex   -1.188197e+01 5.000000e+00 5.556480e+00
      vertex   -1.216174e+01 5.000000e+00 5.245761e+00
    endloop
  endfacet
  facet normal -5.877853e-01 3.204850e-16 8.090170e-01
    outer loop
      vertex   -1.216174e+01 -5.000000e-01 5.245761e+00
      vertex   -1.216174e+01 5.000000e+00 5.245761e+00
      vertex   -1.250000e+01 5.000000e+00 5.000000e+00
    endloop
  endfacet
  facet normal -1.000000e+00 0.000000e+00 0.000000e+00
    outer loop
      vertex   -1.150000e+01 5.000000e+00 6.732051e+00
      vertex   -1.150000e+01 -3.000000e+00 6.732051e+00
      vertex   -1.150000e+01 5.000000e+00 1.100000e+01
    endloop
  endfacet
  facet normal -1.000000e+00 -0.000000e+00 0.000000e+00
    outer loop
      vertex   -1.150000e+01 5.000000e+00 1.100000e+01
      vertex   -1.150000e+01 -3.000000e+00 6.732051e+00
      vertex   -1.150000e+01 -3.000000e+00 1.100000e+01
    endloop
  endfacet
  facet normal 0.000000e+00 1.000000e+00 -0.000000e+00
    outer loop
      vertex   -8.800000e+00 5.000000e+00 9.110000e+00
      vertex   -8.900000e+00 5.000000e+00 9.010000e+00
      vertex   -8.800000e+00 5.000000e+00 9.500000e+00
    endloop
  endfacet
  facet normal 0.000000e+00 1.000000e+00 0.000000e+00
    outer loop
      vertex   -8.800000e+00 5.000000e+00 9.500000e+00
      vertex   -8.900000e+00 5.000000e+00 9.010000e+00
      vertex   -1.030000e+01 5.000000e+00 9.010000e+00
    endloop
  endfacet
  facet normal 0.000000e+00 1.000000e+00 0.000000e+00
    outer loop
      vertex   -8.800000e+00 5.000000e+00 9.500000e+00
      vertex   -1.030000e+01 5.000000e+00 9.010000e+00
      vertex   -1.030000e+01 5.000000e+00 1.100000e+01
    endloop
  endfacet
  facet normal 0.000000e+00 1.000000e+00 0.000000e+00
    outer loop
      vertex   -1.030000e+01 5.000000e+00 1.100000e+01
      vertex   -1.030000e+01 5.000000e+00 9.010000e+00
      vertex   -1.150000e+01 5.000000e+00 1.100000e+01
    endloop
  endfacet
  facet normal 0.000000e+00 1.000000e+00 0.000000e+00
    outer loop
      vertex   -1.150000e+01 5.000000e+00 1.100000e+01
      vertex   -1.030000e+01 5.000000e+00 9.010000e+00
      vertex   -1.150000e+01 5.000000e+00 6.732051e+00
    endloop
  endfacet
  facet normal -0.000000e+00 1.000000e+00 0.000000e+00
    outer loop
      vertex   -1.150000e+01 5.000000e+00 6.732051e+00
      vertex   -1.030000e+01 5.000000e+00 9.010000e+00
      vertex   -1.030000e+01 5.000000e+00 3.000000e+00
    endloop
  endfacet
  facet normal 0.000000e+00 1.000000e+00 0.000000e+00
    outer loop
      vertex   -1.150000e+01 5.000000e+00 6.732051e+00
      vertex   -1.030000e+01 5.000000e+00 3.000000e+00
      vertex   -1.154371e+01 5.000000e+00 6.316227e+00
    endloop
  endfacet
  facet normal 0.000000e+00 1.000000e+00 0.000000e+00
    outer loop
      vertex   -1.154371e+01 5.000000e+00 6.316227e+00
      vertex   -1.030000e+01 5.000000e+00 3.000000e+00
      vertex   -1.167291e+01 5.000000e+00 5.918578e+00
    endloop
  endfacet
  facet normal 0.000000e+00 1.000000e+00 0.000000e+00
    outer loop
      vertex   -1.167291e+01 5.000000e+00 5.918578e+00
      vertex   -1.030000e+01 5.000000e+00 3.000000e+00
      vertex   -1.188197e+01 5.000000e+00 5.556480e+00
    endloop
  endfacet
  facet normal 0.000000e+00 1.000000e+00 0.000000e+00
    outer loop
      vertex   -1.188197e+01 5.000000e+00 5.556480e+00
      vertex   -1.030000e+01 5.000000e+00 3.000000e+00
      vertex   -1.250000e+01 5.000000e+00 3.000000e+00
    endloop
  endfacet
  facet normal 0.000000e+00 1.000000e+00 0.000000e+00
    outer loop
      vertex   -1.188197e+01 5.000000e+00 5.556480e+00
      vertex   -1.250000e+01 5.000000e+00 3.000000e+00
      vertex   -1.216174e+01 5.000000e+00 5.245761e+00
    endloop
  endfacet
  facet normal 0.000000e+00 1.000000e+00 0.000000e+00
    outer loop
      vertex   -1.216174e+01 5.000000e+00 5.245761e+00
      vertex   -1.250000e+01 5.000000e+00 3.000000e+00
      vertex   -1.250000e+01 5.000000e+00 5.000000e+00
    endloop
  endfacet
  facet normal 1.000000e+00 0.000000e+00 0.000000e+00
    outer loop
      vertex   -1.030000e+01 -3.000000e+00 3.000000e+00
      vertex   -1.030000e+01 5.000000e+00 3.000000e+00
      vertex   -1.030000e+01 -3.000000e+00 9.010000e+00
    endloop
  endfacet
  facet normal 1.000000e+00 -0.000000e+00 0.000000e+00
    outer loop
      vertex   -1.030000e+01 -3.000000e+00 9.010000e+00
      vertex   -1.030000e+01 5.000000e+00 3.000000e+00
      vertex   -1.030000e+01 5.000000e+00 9.010000e+00
    endloop
  endfacet
  facet normal -1.000000e+00 0.000000e+00 0.000000e+00
    outer loop
      vertex   -1.250000e+01 1.400000e+01 -2.000000e+00
      vertex   -1.250000e+01 -3.000000e+00 -2.000000e+00
      vertex   -1.250000e+01 5.000000e+00 3.000000e+00
    endloop
  endfacet
  facet normal -1.000000e+00 -0.000000e+00 0.000000e+00
    outer loop
      vertex   -1.250000e+01 5.000000e+00 3.000000e+00
      vertex   -1.250000e+01 -3.000000e+00 -2.000000e+00
      vertex   -1.250000e+01 -3.000000e+00 5.000000e+00
    endloop
  endfacet
  facet normal -1.000000e+00 0.000000e+00 0.000000e+00
    outer loop
      vertex   -1.250000e+01 5.000000e+00 3.000000e+00
      vertex   -1.250000e+01 -3.000000e+00 5.000000e+00
      vertex   -1.250000e+01 5.000000e+00 5.000000e+00
    endloop
  endfacet
  facet normal -1.000000e+00 0.000000e+00 0.000000e+00
    outer loop
      vertex   -1.250000e+01 5.000000e+00 3.000000e+00
      vertex   -1.250000e+01 1.400000e+01 3.000000e+00
      vertex   -1.250000e+01 1.400000e+01 -2.000000e+00
    endloop
  endfacet
  facet normal -7.071068e-01 -0.000000e+00 -7.071068e-01
    outer loop
      vertex   8.900001e+00 5.000000e+00 9.010000e+00
      vertex   8.900001e+00 -3.000000e+00 9.010000e+00
      vertex   8.800001e+00 5.000000e+00 9.110000e+00
    endloop
  endfacet
  facet normal -7.071068e-01 -0.000000e+00 -7.071068e-01
    outer loop
      vertex   8.800001e+00 5.000000e+00 9.110000e+00
      vertex   8.900001e+00 -3.000000e+00 9.010000e+00
      vertex   8.800001e+00 -3.000000e+00 9.110000e+00
    endloop
  endfacet
  facet normal -1.000000e+00 0.000000e+00 0.000000e+00
    outer loop
      vertex   8.800001e+00 -3.000000e+00 9.110000e+00
      vertex   8.800001e+00 -3.000000e+00 9.500000e+00
      vertex   8.800001e+00 5.000000e+00 9.110000e+00
    endloop
  endfacet
  facet normal -1.000000e+00 0.000000e+00 0.000000e+00
    outer loop
      vertex   8.800001e+00 5.000000e+00 9.110000e+00
      vertex   8.800001e+00 -3.000000e+00 9.500000e+00
      vertex   8.800001e+00 5.000000e+00 9.500000e+00
    endloop
  endfacet
  facet normal 0.000000e+00 0.000000e+00 -1.000000e+00
    outer loop
      vertex   8.900001e+00 -3.000000e+00 9.010000e+00
      vertex   8.900001e+00 5.000000e+00 9.010000e+00
      vertex   1.030000e+01 -3.000000e+00 9.010000e+00
    endloop
  endfacet
  facet normal 0.000000e+00 0.000000e+00 -1.000000e+00
    outer loop
      vertex   1.030000e+01 -3.000000e+00 9.010000e+00
      vertex   8.900001e+00 5.000000e+00 9.010000e+00
      vertex   1.030000e+01 5.000000e+00 9.010000e+00
    endloop
  endfacet
  facet normal 0.000000e+00 0.000000e+00 -1.000000e+00
    outer loop
      vertex   -1.250000e+01 1.400000e+01 -2.000000e+00
      vertex   1.250000e+01 1.400000e+01 -2.000000e+00
      vertex   -1.250000e+01 -3.000000e+00 -2.000000e+00
    endloop
  endfacet
  facet normal 0.000000e+00 0.000000e+00 -1.000000e+00
    outer loop
      vertex   -1.250000e+01 -3.000000e+00 -2.000000e+00
      vertex   1.250000e+01 1.400000e+01 -2.000000e+00
      vertex   1.250000e+01 -3.000000e+00 -2.000000e+00
    endloop
  endfacet
  facet normal -7.071068e-01 0.000000e+00 7.071068e-01
    outer loop
      vertex   8.800001e+00 -3.000000e+00 9.500000e+00
      vertex   1.030000e+01 -3.000000e+00 1.100000e+01
      vertex   8.800001e+00 5.000000e+00 9.500000e+00
    endloop
  endfacet
  facet normal -7.071068e-01 0.000000e+00 7.071068e-01
    outer loop
      vertex   8.800001e+00 5.000000e+00 9.500000e+00
      vertex   1.030000e+01 -3.000000e+00 1.100000e+01
      vertex   1.030000e+01 5.000000e+00 1.100000e+01
    endloop
  endfacet
  facet normal 0.000000e+00 0.000000e+00 1.000000e+00
    outer loop
      vertex   1.030000e+01 -3.000000e+00 1.100000e+01
      vertex   1.150000e+01 -3.000000e+00 1.100000e+01
      vertex   1.030000e+01 5.000000e+00 1.100000e+01
    endloop
  endfacet
  facet normal -0.000000e+00 0.000000e+00 1.000000e+00
    outer loop
      vertex   1.030000e+01 5.000000e+00 1.100000e+01
      vertex   1.150000e+01 -3.000000e+00 1.100000e+01
      vertex   1.150000e+01 5.000000e+00 1.100000e+01
    endloop
  endfacet
  facet normal 9.945219e-01 0.000000e+00 1.045285e-01
    outer loop
      vertex   1.150000e+01 5.000000e+00 6.732051e+00
      vertex   1.150000e+01 -3.000000e+00 6.732051e+00
      vertex   1.154371e+01 -5.000000e-01 6.316227e+00
    endloop
  endfacet
  facet normal 9.945219e-01 0.000000e+00 1.045285e-01
    outer loop
      vertex   1.154371e+01 -5.000000e-01 6.316227e+00
      vertex   1.150000e+01 -3.000000e+00 6.732051e+00
      vertex   1.154371e+01 -3.000000e+00 6.316227e+00
    endloop
  endfacet
  facet normal 9.510565e-01 0.000000e+00 3.090170e-01
    outer loop
      vertex   1.154371e+01 -5.000000e-01 6.316227e+00
      vertex   1.154371e+01 -3.000000e+00 6.316227e+00
      vertex   1.167291e+01 -5.000000e-01 5.918578e+00
    endloop
  endfacet
  facet normal 9.510565e-01 -7.855512e-16 3.090170e-01
    outer loop
      vertex   1.167291e+01 -5.000000e-01 5.918578e+00
      vertex   1.154371e+01 -3.000000e+00 6.316227e+00
      vertex   1.167291e+01 -3.000000e+00 5.918578e+00
    endloop
  endfacet
  facet normal 8.660254e-01 -7.929837e-16 5.000000e-01
    outer loop
      vertex   1.167291e+01 -5.000000e-01 5.918578e+00
      vertex   1.167291e+01 -3.000000e+00 5.918578e+00
      vertex   1.188197e+01 -5.000000e-01 5.556480e+00
    endloop
  endfacet
  facet normal 8.660254e-01 0.000000e+00 5.000000e-01
    outer loop
      vertex   1.188197e+01 -5.000000e-01 5.556480e+00
      vertex   1.167291e+01 -3.000000e+00 5.918578e+00
      vertex   1.188197e+01 -3.000000e+00 5.556480e+00
    endloop
  endfacet
  facet normal 7.431448e-01 0.000000e+00 6.691306e-01
    outer loop
      vertex   1.188197e+01 -5.000000e-01 5.556480e+00
      vertex   1.188197e+01 -3.000000e+00 5.556480e+00
      vertex   1.216174e+01 -5.000000e-01 5.245761e+00
    endloop
  endfacet
  facet normal 7.431448e-01 -7.657591e-16 6.691306e-01
    outer loop
      vertex   1.216174e+01 -5.000000e-01 5.245761e+00
      vertex   1.188197e+01 -3.000000e+00 5.556480e+00
      vertex   1.216174e+01 -3.000000e+00 5.245761e+00
    endloop
  endfacet
  facet normal 5.877853e-01 -7.050671e-16 8.090170e-01
    outer loop
      vertex   1.216174e+01 -5.000000e-01 5.245761e+00
      vertex   1.216174e+01 -3.000000e+00 5.245761e+00
      vertex   1.250000e+01 -3.000000e+00 5.000000e+00
    endloop
  endfacet
  facet normal 5.877853e-01 -0.000000e+00 8.090170e-01
    outer loop
      vertex   1.250000e+01 -3.000000e+00 5.000000e+00
      vertex   1.250000e+01 5.000000e+00 5.000000e+00
      vertex   1.216174e+01 -5.000000e-01 5.245761e+00
    endloop
  endfacet
  facet normal 5.877853e-01 3.204850e-16 8.090170e-01
    outer loop
      vertex   1.216174e+01 -5.000000e-01 5.245761e+00
      vertex   1.250000e+01 5.000000e+00 5.000000e+00
      vertex   1.216174e+01 5.000000e+00 5.245761e+00
    endloop
  endfacet
  facet normal 7.431448e-01 3.480723e-16 6.691306e-01
    outer loop
      vertex   1.216174e+01 -5.000000e-01 5.245761e+00
      vertex   1.216174e+01 5.000000e+00 5.245761e+00
      vertex   1.188197e+01 -5.000000e-01 5.556480e+00
    endloop
  endfacet
  facet normal 7.431448e-01 -0.000000e+00 6.691306e-01
    outer loop
      vertex   1.188197e+01 -5.000000e-01 5.556480e+00
      vertex   1.216174e+01 5.000000e+00 5.245761e+00
      vertex   1.188197e+01 5.000000e+00 5.556480e+00
    endloop
  endfacet
  facet normal 8.660254e-01 -0.000000e+00 5.000000e-01
    outer loop
      vertex   1.188197e+01 -5.000000e-01 5.556480e+00
      vertex   1.188197e+01 5.000000e+00 5.556480e+00
      vertex   1.167291e+01 -5.000000e-01 5.918578e+00
    endloop
  endfacet
  facet normal 8.660254e-01 3.604472e-16 5.000000e-01
    outer loop
      vertex   1.167291e+01 -5.000000e-01 5.918578e+00
      vertex   1.188197e+01 5.000000e+00 5.556480e+00
      vertex   1.167291e+01 5.000000e+00 5.918578e+00
    endloop
  endfacet
  facet normal 9.510565e-01 3.570687e-16 3.090170e-01
    outer loop
      vertex   1.167291e+01 -5.000000e-01 5.918578e+00
      vertex   1.167291e+01 5.000000e+00 5.918578e+00
      vertex   1.154371e+01 -5.000000e-01 6.316227e+00
    endloop
  endfacet
  facet normal 9.510565e-01 -0.000000e+00 3.090170e-01
    outer loop
      vertex   1.154371e+01 -5.000000e-01 6.316227e+00
      vertex   1.167291e+01 5.000000e+00 5.918578e+00
      vertex   1.154371e+01 5.000000e+00 6.316227e+00
    endloop
  endfacet
  facet normal 9.945219e-01 -0.000000e+00 1.045285e-01
    outer loop
      vertex   1.154371e+01 -5.000000e-01 6.316227e+00
      vertex   1.154371e+01 5.000000e+00 6.316227e+00
      vertex   1.150000e+01 5.000000e+00 6.732051e+00
    endloop
  endfacet
  facet normal 1.000000e+00 0.000000e+00 0.000000e+00
    outer loop
      vertex   1.150000e+01 -3.000000e+00 6.732051e+00
      vertex   1.150000e+01 5.000000e+00 6.732051e+00
      vertex   1.150000e+01 -3.000000e+00 1.100000e+01
    endloop
  endfacet
  facet normal 1.000000e+00 -0.000000e+00 0.000000e+00
    outer loop
      vertex   1.150000e+01 -3.000000e+00 1.100000e+01
      vertex   1.150000e+01 5.000000e+00 6.732051e+00
      vertex   1.150000e+01 5.000000e+00 1.100000e+01
    endloop
  endfacet
  facet normal -0.000000e+00 1.000000e+00 0.000000e+00
    outer loop
      vertex   8.800001e+00 5.000000e+00 9.110000e+00
      vertex   8.800001e+00 5.000000e+00 9.500000e+00
      vertex   8.900001e+00 5.000000e+00 9.010000e+00
    endloop
  endfacet
  facet normal 0.000000e+00 1.000000e+00 -0.000000e+00
    outer loop
      vertex   8.900001e+00 5.000000e+00 9.010000e+00
      vertex   8.800001e+00 5.000000e+00 9.500000e+00
      vertex   1.030000e+01 5.000000e+00 9.010000e+00
    endloop
  endfacet
  facet normal 0.000000e+00 1.000000e+00 0.000000e+00
    outer loop
      vertex   1.030000e+01 5.000000e+00 9.010000e+00
      vertex   8.800001e+00 5.000000e+00 9.500000e+00
      vertex   1.030000e+01 5.000000e+00 1.100000e+01
    endloop
  endfacet
  facet normal 0.000000e+00 1.000000e+00 -0.000000e+00
    outer loop
      vertex   1.030000e+01 5.000000e+00 9.010000e+00
      vertex   1.030000e+01 5.000000e+00 1.100000e+01
      vertex   1.150000e+01 5.000000e+00 1.100000e+01
    endloop
  endfacet
  facet normal 0.000000e+00 1.000000e+00 0.000000e+00
    outer loop
      vertex   1.150000e+01 5.000000e+00 1.100000e+01
      vertex   1.150000e+01 5.000000e+00 6.732051e+00
      vertex   1.030000e+01 5.000000e+00 9.010000e+00
    endloop
  endfacet
  facet normal 0.000000e+00 1.000000e+00 0.000000e+00
    outer loop
      vertex   1.030000e+01 5.000000e+00 9.010000e+00
      vertex   1.150000e+01 5.000000e+00 6.732051e+00
      vertex   1.030000e+01 5.000000e+00 3.000000e+00
    endloop
  endfacet
  facet normal 0.000000e+00 1.000000e+00 0.000000e+00
    outer loop
      vertex   1.030000e+01 5.000000e+00 3.000000e+00
      vertex   1.150000e+01 5.000000e+00 6.732051e+00
      vertex   1.154371e+01 5.000000e+00 6.316227e+00
    endloop
  endfacet
  facet normal 0.000000e+00 1.000000e+00 0.000000e+00
    outer loop
      vertex   1.030000e+01 5.000000e+00 3.000000e+00
      vertex   1.154371e+01 5.000000e+00 6.316227e+00
      vertex   1.167291e+01 5.000000e+00 5.918578e+00
    endloop
  endfacet
  facet normal 0.000000e+00 1.000000e+00 0.000000e+00
    outer loop
      vertex   1.167291e+01 5.000000e+00 5.918578e+00
      vertex   1.188197e+01 5.000000e+00 5.556480e+00
      vertex   1.030000e+01 5.000000e+00 3.000000e+00
    endloop
  endfacet
  facet normal 0.000000e+00 1.000000e+00 0.000000e+00
    outer loop
      vertex   1.030000e+01 5.000000e+00 3.000000e+00
      vertex   1.188197e+01 5.000000e+00 5.556480e+00
      vertex   1.250000e+01 5.000000e+00 3.000000e+00
    endloop
  endfacet
  facet normal 0.000000e+00 1.000000e+00 0.000000e+00
    outer loop
      vertex   1.250000e+01 5.000000e+00 3.000000e+00
      vertex   1.188197e+01 5.000000e+00 5.556480e+00
      vertex   1.216174e+01 5.000000e+00 5.245761e+00
    endloop
  endfacet
  facet normal 0.000000e+00 1.000000e+00 -0.000000e+00
    outer loop
      vertex   1.250000e+01 5.000000e+00 3.000000e+00
      vertex   1.216174e+01 5.000000e+00 5.245761e+00
      vertex   1.250000e+01 5.000000e+00 5.000000e+00
    endloop
  endfacet
  facet normal -1.000000e+00 0.000000e+00 0.000000e+00
    outer loop
      vertex   1.030000e+01 5.000000e+00 3.000000e+00
      vertex   1.030000e+01 -3.000000e+00 3.000000e+00
      vertex   1.030000e+01 5.000000e+00 9.010000e+00
    endloop
  endfacet
  facet normal -1.000000e+00 -0.000000e+00 0.000000e+00
    outer loop
      vertex   1.030000e+01 5.000000e+00 9.010000e+00
      vertex   1.030000e+01 -3.000000e+00 3.000000e+00
      vertex   1.030000e+01 -3.000000e+00 9.010000e+00
    endloop
  endfacet
  facet normal -0.000000e+00 1.000000e+00 0.000000e+00
    outer loop
      vertex   9.130175e+00 1.400000e+01 3.000000e+00
      vertex   1.250000e+01 1.400000e+01 3.000000e+00
      vertex   9.130175e+00 1.400000e+01 -1.000000e+00
    endloop
  endfacet
  facet normal -0.000000e+00 1.000000e+00 0.000000e+00
    outer loop
      vertex   9.130175e+00 1.400000e+01 -1.000000e+00
      vertex   1.250000e+01 1.400000e+01 3.000000e+00
      vertex   1.250000e+01 1.400000e+01 -2.000000e+00
    endloop
  endfacet
  facet normal 0.000000e+00 1.000000e+00 0.000000e+00
    outer loop
      vertex   9.130175e+00 1.400000e+01 -1.000000e+00
      vertex   1.250000e+01 1.400000e+01 -2.000000e+00
      vertex   4.900001e+00 1.400000e+01 -1.000000e+00
    endloop
  endfacet
  facet normal 0.000000e+00 1.000000e+00 0.000000e+00
    outer loop
      vertex   4.900001e+00 1.400000e+01 -1.000000e+00
      vertex   1.250000e+01 1.400000e+01 -2.000000e+00
      vertex   -1.250000e+01 1.400000e+01 -2.000000e+00
    endloop
  endfacet
  facet normal 0.000000e+00 1.000000e+00 0.000000e+00
    outer loop
      vertex   4.900001e+00 1.400000e+01 -1.000000e+00
      vertex   -1.250000e+01 1.400000e+01 -2.000000e+00
      vertex   -4.900000e+00 1.400000e+01 -1.000000e+00
    endloop
  endfacet
  facet normal 0.000000e+00 1.000000e+00 0.000000e+00
    outer loop
      vertex   -4.900000e+00 1.400000e+01 -1.000000e+00
      vertex   -1.250000e+01 1.400000e+01 -2.000000e+00
      vertex   -9.130175e+00 1.400000e+01 -1.000000e+00
    endloop
  endfacet
  facet normal 0.000000e+00 1.000000e+00 0.000000e+00
    outer loop
      vertex   -9.130175e+00 1.400000e+01 -1.000000e+00
      vertex   -1.250000e+01 1.400000e+01 -2.000000e+00
      vertex   -1.250000e+01 1.400000e+01 3.000000e+00
    endloop
  endfacet
  facet normal 0.000000e+00 1.000000e+00 -0.000000e+00
    outer loop
      vertex   -9.130175e+00 1.400000e+01 -1.000000e+00
      vertex   -1.250000e+01 1.400000e+01 3.000000e+00
      vertex   -9.130175e+00 1.400000e+01 3.000000e+00
    endloop
  endfacet
  facet normal 0.000000e+00 1.000000e+00 0.000000e+00
    outer loop
      vertex   -4.900000e+00 1.400000e+01 -1.000000e+00
      vertex   -4.900000e+00 1.400000e+01 3.000000e+00
      vertex   4.900001e+00 1.400000e+01 -1.000000e+00
    endloop
  endfacet
  facet normal 0.000000e+00 1.000000e+00 -0.000000e+00
    outer loop
      vertex   4.900001e+00 1.400000e+01 -1.000000e+00
      vertex   -4.900000e+00 1.400000e+01 3.000000e+00
      vertex   4.900001e+00 1.400000e+01 3.000000e+00
    endloop
  endfacet
  facet normal 1.000000e+00 0.000000e+00 0.000000e+00
    outer loop
      vertex   1.250000e+01 5.000000e+00 5.000000e+00
      vertex   1.250000e+01 -3.000000e+00 5.000000e+00
      vertex   1.250000e+01 5.000000e+00 3.000000e+00
    endloop
  endfacet
  facet normal 1.000000e+00 0.000000e+00 0.000000e+00
    outer loop
      vertex   1.250000e+01 5.000000e+00 3.000000e+00
      vertex   1.250000e+01 -3.000000e+00 5.000000e+00
      vertex   1.250000e+01 -3.000000e+00 -2.000000e+00
    endloop
  endfacet
  facet normal 1.000000e+00 0.000000e+00 0.000000e+00
    outer loop
      vertex   1.250000e+01 5.000000e+00 3.000000e+00
      vertex   1.250000e+01 -3.000000e+00 -2.000000e+00
      vertex   1.250000e+01 1.400000e+01 -2.000000e+00
    endloop
  endfacet
  facet normal 1.000000e+00 0.000000e+00 -0.000000e+00
    outer loop
      vertex   1.250000e+01 1.400000e+01 -2.000000e+00
      vertex   1.250000e+01 1.400000e+01 3.000000e+00
      vertex   1.250000e+01 5.000000e+00 3.000000e+00
    endloop
  endfacet
endsolid
