  0
SECTION
  2
HEADER
  9
$INSUNITS
 70
     4
  9
$MEASUREMENT
 70
     1
  9
$ACADVER
  1
AC1012
  9
$HANDSEED
  5
C6
  0
ENDSEC
  0
SECTION
  2
TABLES
  0
TABLE
  2
LAYER
  5
4
330
0
100
AcDbSymbolTable
 70
     2
  0
LAYER
  5
5
330
4
100
AcDbSymbolTableRecord
100
AcDbLayerTableRecord
  2
1
 70
     0
 62
     7
  6
Continuous
  0
LAYER
  5
B5
330
4
100
AcDbSymbolTableRecord
100
AcDbLayerTableRecord
  2
0
 70
     0
  6
Continuous
  0
ENDTAB
  0
TABLE
  2
LTYPE
  5
6
330
0
100
AcDbSymbolTable
 70
     3
  0
LTYPE
  5
7
330
6
100
AcDbSymbolTableRecord
100
AcDbLinetypeTableRecord
  2
Continuous
 70
     0
  3
_
 72
    65
 73
     0
 40
0.0
  0
LTYPE
  5
B3
330
6
100
AcDbSymbolTableRecord
100
AcDbLinetypeTableRecord
  2
BYBLOCK
 70
     0
  3
 
 72
    65
 73
     0
 40
0.0
  0
LTYPE
  5
B4
330
6
100
AcDbSymbolTableRecord
100
AcDbLinetypeTableRecord
  2
BYLAYER
 70
     0
  3
 
 72
    65
 73
     0
 40
0.0
  0
ENDTAB
  0
TABLE
  2
VPORT
  5
B0
330
0
100
AcDbSymbolTable
 70
     0
  0
ENDTAB
  0
TABLE
  2
VIEW
  5
B1
330
0
100
AcDbSymbolTable
 70
     0
  0
ENDTAB
  0
TABLE
  2
UCS
  5
B2
330
0
100
AcDbSymbolTable
 70
     0
  0
ENDTAB
  0
TABLE
  2
STYLE
  5
B6
330
0
100
AcDbSymbolTable
 70
     1
  0
STYLE
  5
B7
330
B6
100
AcDbSymbolTableRecord
100
AcDbTextStyleTableRecord
  2
STANDARD
 70
     0
 40
0.0
 41
1.0
 50
0.0
 71
     0
 42
1.0
  0
ENDTAB
  0
TABLE
  2
APPID
  5
B8
330
0
100
AcDbSymbolTable
 70
     1
  0
APPID
  5
B9
330
B8
100
AcDbSymbolTableRecord
100
AcDbRegAppTableRecord
  2
ACAD
 70
     0
  0
ENDTAB
  0
TABLE
  2
DIMSTYLE
  5
BA
330
0
100
AcDbSymbolTable
 70
     0
  0
ENDTAB
  0
TABLE
  2
BLOCK_RECORD
  5
BB
330
0
100
AcDbSymbolTable
 70
     2
  0
BLOCK_RECORD
  5
BC
330
BB
100
AcDbSymbolTableRecord
100
AcDbBlockTableRecord
  2
*MODEL_SPACE
  0
BLOCK_RECORD
  5
BD
330
BB
100
AcDbSymbolTableRecord
100
AcDbBlockTableRecord
  2
*PAPER_SPACE
  0
ENDTAB
  0
ENDSEC
  0
SECTION
  2
BLOCKS
  0
BLOCK
  5
BF
330
BC
100
AcDbEntity
  8
0
100
AcDbBlockBegin
  2
*MODEL_SPACE
 70
     0
 10
0.0
 20
0.0
 30
0.0
  0
ENDBLK
  5
C0
330
BC
100
AcDbEntity
  8
0
100
AcDbBlockEnd
  0
BLOCK
  5
C1
330
BD
100
AcDbEntity
  8
0
100
AcDbBlockBegin
  2
*PAPER_SPACE
 70
     0
 10
0.0
 20
0.0
 30
0.0
  0
ENDBLK
  5
C2
330
BD
100
AcDbEntity
  8
0
100
AcDbBlockEnd
  0
ENDSEC
  0
SECTION
  2
ENTITIES
  0
LINE
  5
8
330
0
100
AcDbEntity
  8
1
100
AcDbLine
 10
18.8644379739532
 20
-1.69546991977661
 30
0.0
 11
20.1594209868834
 21
-1.81185847840085
 31
0.0
  0
SPLINE
  5
9
330
0
100
AcDbEntity
  8
1
100
AcDbSpline
 70
     8
 71
     3
 72
     8
 73
     4
 74
     0
 40
0.0
 40
0.0
 40
0.0
 40
0.0
 40
1.0
 40
1.0
 40
1.0
 40
1.0
 10
20.1594209868834
 20
-1.81185847840085
 30
0.0
 10
20.2577354742981
 20
-1.81473263634341
 30
0.0
 10
20.5537223951026
 20
-1.81156447365493
 30
0.0
 10
21.047362518623
 20
-1.70527564428872
 30
0.0
  0
SPLINE
  5
A
330
0
100
AcDbEntity
  8
1
100
AcDbSpline
 70
     8
 71
     3
 72
     8
 73
     4
 74
     0
 40
0.0
 40
0.0
 40
0.0
 40
0.0
 40
1.0
 40
1.0
 40
1.0
 40
1.0
 10
21.047362518623
 20
-1.70527564428872
 30
0.0
 10
21.6380649298843
 20
-1.57621431798989
 30
0.0
 10
22.4887987203754
 20
-1.30068947130716
 30
0.0
 10
23.5389232076218
 20
-0.716591375819892
 30
0.0
  0
ARC
  5
B
330
0
100
AcDbEntity
  8
1
100
AcDbCircle
 10
0.0
 20
0.0
 30
0.0
 40
23.5498282153865
100
AcDbArc
 50
358.256293011164
 51
1.74370698883624
  0
SPLINE
  5
C
330
0
100
AcDbEntity
  8
1
100
AcDbSpline
 70
     8
 71
     3
 72
     8
 73
     4
 74
     0
 40
0.0
 40
0.0
 40
0.0
 40
0.0
 40
1.0
 40
1.0
 40
1.0
 40
1.0
 10
23.5389232076218
 20
0.716591375819892
 30
0.0
 10
22.4887987203754
 20
1.30068947130716
 30
0.0
 10
21.6380649298843
 20
1.57621431798989
 30
0.0
 10
21.047362518623
 20
1.70527564428872
 30
0.0
  0
SPLINE
  5
D
330
0
100
AcDbEntity
  8
1
100
AcDbSpline
 70
     8
 71
     3
 72
     8
 73
     4
 74
     0
 40
0.0
 40
0.0
 40
0.0
 40
0.0
 40
1.0
 40
1.0
 40
1.0
 40
1.0
 10
21.047362518623
 20
1.70527564428872
 30
0.0
 10
20.5537223951026
 20
1.81156447365493
 30
0.0
 10
20.2577354742981
 20
1.81473263634341
 30
0.0
 10
20.1594209868834
 20
1.81185847840085
 30
0.0
  0
LINE
  5
E
330
0
100
AcDbEntity
  8
1
100
AcDbLine
 10
20.1594209868834
 20
1.81185847840085
 30
0.0
 11
18.8644379739532
 21
1.69546991977661
 31
0.0
  0
ARC
  5
F
330
0
100
AcDbEntity
  8
1
100
AcDbCircle
 10
-0.000001468833762
 20
-0.000000312400792
 30
0.0
 40
18.940477681378
100
AcDbArc
 50
5.13574663453934
 51
12.0071110518062
  0
LINE
  5
10
330
0
100
AcDbEntity
  8
1
100
AcDbLine
 10
18.5260924562613
 20
3.94024575680933
 30
0.0
 11
19.7978491372691
 21
4.21073095911875
 31
0.0
  0
SPLINE
  5
11
330
0
100
AcDbEntity
  8
1
100
AcDbSpline
 70
     8
 71
     3
 72
     8
 73
     4
 74
     0
 40
0.0
 40
0.0
 40
0.0
 40
0.0
 40
1.0
 40
1.0
 40
1.0
 40
1.0
 10
19.7978491372691
 20
4.21073095911875
 30
0.0
 10
19.892642960783
 20
4.23696319583434
 30
0.0
 10
20.1745461808264
 20
4.32723428240884
 30
0.0
 10
20.6149260762696
 20
4.57430397801451
 30
0.0
  0
SPLINE
  5
12
330
0
100
AcDbEntity
  8
1
100
AcDbSpline
 70
     8
 71
     3
 72
     8
 73
     4
 74
     0
 40
0.0
 40
0.0
 40
0.0
 40
0.0
 40
1.0
 40
1.0
 40
1.0
 40
1.0
 10
20.6149260762696
 20
4.57430397801451
 30
0.0
 10
21.1413437430403
 20
4.87174406396063
 30
0.0
 10
21.8730694439584
 20
5.38578630156249
 30
0.0
 10
22.7043739106528
 20
6.25346418391307
 30
0.0
  0
ARC
  5
13
330
0
100
AcDbEntity
  8
1
100
AcDbCircle
 10
0.0
 20
0.0
 30
0.0
 40
23.5498282153865
100
AcDbArc
 50
15.3991501540209
 51
18.8865641316934
  0
SPLINE
  5
14
330
0
100
AcDbEntity
  8
1
100
AcDbSpline
 70
     8
 71
     3
 72
     8
 73
     4
 74
     0
 40
0.0
 40
0.0
 40
0.0
 40
0.0
 40
1.0
 40
1.0
 40
1.0
 40
1.0
 10
22.2819358787305
 20
7.6229746471018
 30
0.0
 10
21.1062995400193
 20
7.87159327666943
 30
0.0
 10
20.2121490906242
 20
7.88411914068441
 30
0.0
 10
19.6096484363677
 20
7.833334042118
 30
0.0
  0
SPLINE
  5
15
330
0
100
AcDbEntity
  8
1
100
AcDbSpline
 70
     8
 71
     3
 72
     8
 73
     4
 74
     0
 40
0.0
 40
0.0
 40
0.0
 40
0.0
 40
1.0
 40
1.0
 40
1.0
 40
1.0
 10
19.6096484363677
 20
7.833334042118
 30
0.0
 10
19.1066101760489
 20
7.7893977763147
 30
0.0
 10
18.8228392913139
 20
7.70518150995906
 30
0.0
 10
18.7297398136513
 20
7.67345633890458
 30
0.0
  0
LINE
  5
16
330
0
100
AcDbEntity
  8
1
100
AcDbLine
 10
18.7297398136513
 20
7.67345633890458
 30
0.0
 11
17.5265953924369
 21
7.18053565354321
 31
0.0
  0
ARC
  5
17
330
0
100
AcDbEntity
  8
1
100
AcDbCircle
 10
-0.000001311495842
 20
-0.000000731468047
 30
0.0
 40
18.940477681378
100
AcDbArc
 50
22.2786037773965
 51
29.1499681946633
  0
LINE
  5
18
330
0
100
AcDbEntity
  8
1
100
AcDbLine
 10
16.5416223234129
 20
9.22585330641906
 30
0.0
 11
17.6771515103785
 21
9.85917847243221
 31
0.0
  0
SPLINE
  5
19
330
0
100
AcDbEntity
  8
1
100
AcDbSpline
 70
     8
 71
     3
 72
     8
 73
     4
 74
     0
 40
0.0
 40
0.0
 40
0.0
 40
0.0
 40
1.0
 40
1.0
 40
1.0
 40
1.0
 10
17.6771515103785
 20
9.85917847243221
 30
0.0
 10
17.7600018227766
 20
9.91218625445549
 30
0.0
 10
18.0027730038461
 20
10.0815392827257
 30
0.0
 10
18.3507629849267
 20
10.4474366178688
 30
0.0
  0
SPLINE
  5
1A
330
0
100
AcDbEntity
  8
1
100
AcDbSpline
 70
     8
 71
     3
 72
     8
 73
     4
 74
     0
 40
0.0
 40
0.0
 40
0.0
 40
0.0
 40
1.0
 40
1.0
 40
1.0
 40
1.0
 10
18.3507629849267
 20
10.4474366178688
 30
0.0
 10
18.7661213873683
 20
10.8868266065316
 30
0.0
 10
19.3138219590615
 20
11.5937113264044
 30
0.0
 10
19.8524413552185
 20
12.6678720080298
 30
0.0
  0
ARC
  5
1B
330
0
100
AcDbEntity
  8
1
100
AcDbCircle
 10
0.0
 20
0.0
 30
0.0
 40
23.5498282153865
100
AcDbArc
 50
32.542007296878
 51
36.0294212745505
  0
SPLINE
  5
1C
330
0
100
AcDbEntity
  8
1
100
AcDbSpline
 70
     8
 71
     3
 72
     8
 73
     4
 74
     0
 40
0.0
 40
0.0
 40
0.0
 40
0.0
 40
1.0
 40
1.0
 40
1.0
 40
1.0
 10
19.045100764349
 20
13.8520231681155
 30
0.0
 10
17.8484130220626
 20
13.7430714754815
 30
0.0
 10
16.9902951051068
 20
13.4914853788421
 30
0.0
 10
16.4295310350163
 20
13.2653663342849
 30
0.0
  0
SPLINE
  5
1D
330
0
100
AcDbEntity
  8
1
100
AcDbSpline
 70
     8
 71
     3
 72
     8
 73
     4
 74
     0
 40
0.0
 40
0.0
 40
0.0
 40
0.0
 40
1.0
 40
1.0
 40
1.0
 40
1.0
 10
16.4295310350163
 20
13.2653663342849
 30
0.0
 10
15.9617917948755
 20
13.0751089033398
 30
0.0
 10
15.7154512346268
 20
12.9109911927827
 30
0.0
 10
15.6358390638669
 20
12.8532339292881
 30
0.0
  0
LINE
  5
1E
330
0
100
AcDbEntity
  8
1
100
AcDbLine
 10
15.6358390638669
 20
12.8532339292881
 30
0.0
 11
14.6314378961055
 21
12.0275792832308
 31
0.0
  0
ARC
  5
1F
330
0
100
AcDbEntity
  8
1
100
AcDbCircle
 10
-0.000001037625766
 20
-0.000001085541157
 30
0.0
 40
18.940477681378
100
AcDbArc
 50
39.4214609202536
 51
46.2928253375204
  0
LINE
  5
20
330
0
100
AcDbEntity
  8
1
100
AcDbLine
 10
13.0873564554154
 20
13.6917033027631
 30
0.0
 11
13.9857613968891
 21
14.631594712178
 31
0.0
  0
SPLINE
  5
21
330
0
100
AcDbEntity
  8
1
100
AcDbSpline
 70
     8
 71
     3
 72
     8
 73
     4
 74
     0
 40
0.0
 40
0.0
 40
0.0
 40
0.0
 40
1.0
 40
1.0
 40
1.0
 40
1.0
 10
13.9857613968891
 20
14.631594712178
 30
0.0
 10
14.0493065843323
 20
14.7066680654554
 30
0.0
 10
14.231374441606
 20
14.940055275666
 30
0.0
 10
14.4560540713761
 20
15.392268666405
 30
0.0
  0
SPLINE
  5
22
330
0
100
AcDbEntity
  8
1
100
AcDbSpline
 70
     8
 71
     3
 72
     8
 73
     4
 74
     0
 40
0.0
 40
0.0
 40
0.0
 40
0.0
 40
1.0
 40
1.0
 40
1.0
 40
1.0
 10
14.4560540713761
 20
15.392268666405
 30
0.0
 10
14.7234467926614
 20
15.9345668290605
 30
0.0
 10
15.0384566357904
 20
16.7714842217312
 30
0.0
 10
15.2365322643691
 20
17.9566838121924
 30
0.0
  0
ARC
  5
23
330
0
100
AcDbEntity
  8
1
100
AcDbCircle
 10
0.0
 20
0.0
 30
0.0
 40
23.5498282153865
100
AcDbArc
 50
49.6848644397352
 51
53.1722784174077
  0
SPLINE
  5
24
330
0
100
AcDbEntity
  8
1
100
AcDbSpline
 70
     8
 71
     3
 72
     8
 73
     4
 74
     0
 40
0.0
 40
0.0
 40
0.0
 40
0.0
 40
1.0
 40
1.0
 40
1.0
 40
1.0
 10
14.116024869007
 20
18.8502586420397
 30
0.0
 10
13.0046166806251
 20
18.3934174632212
 30
0.0
 10
12.2587788388186
 20
17.9000739346814
 30
0.0
 10
11.7895777013943
 20
17.5187126135492
 30
0.0
  0
SPLINE
  5
25
330
0
100
AcDbEntity
  8
1
100
AcDbSpline
 70
     8
 71
     3
 72
     8
 73
     4
 74
     0
 40
0.0
 40
0.0
 40
0.0
 40
0.0
 40
1.0
 40
1.0
 40
1.0
 40
1.0
 10
11.7895777013943
 20
17.5187126135492
 30
0.0
 10
11.3986981655579
 20
17.1990392251328
 30
0.0
 10
11.2116763696213
 20
16.969602649176
 30
0.0
 10
11.1526253965083
 20
16.8909452795664
 30
0.0
  0
LINE
  5
26
330
0
100
AcDbEntity
  8
1
100
AcDbLine
 10
11.1526253965083
 20
16.8909452795664
 30
0.0
 11
10.4362129336976
 21
15.805919711441
 31
0.0
  0
ARC
  5
27
330
0
100
AcDbEntity
  8
1
100
AcDbCircle
 10
-0.000000671558094
 20
-0.000001343159177
 30
0.0
 40
18.940477681378
100
AcDbArc
 50
56.5643180631108
 51
63.4356824803776
  0
LINE
  5
28
330
0
100
AcDbEntity
  8
1
100
AcDbLine
 10
8.47022153343633
 20
16.9409853756063
 30
0.0
 11
9.05167500778318
 21
18.1039295520509
 31
0.0
  0
SPLINE
  5
29
330
0
100
AcDbEntity
  8
1
100
AcDbSpline
 70
     8
 71
     3
 72
     8
 73
     4
 74
     0
 40
0.0
 40
0.0
 40
0.0
 40
0.0
 40
1.0
 40
1.0
 40
1.0
 40
1.0
 10
9.05167500778318
 20
18.1039295520509
 30
0.0
 10
9.0902688015035
 20
18.1943978796897
 30
0.0
 10
9.19545580687111
 20
18.4710817940106
 30
0.0
 10
9.2768613142353
 20
18.9694300960726
 30
0.0
  0
SPLINE
  5
2A
330
0
100
AcDbEntity
  8
1
100
AcDbSpline
 70
     8
 71
     3
 72
     8
 73
     4
 74
     0
 40
0.0
 40
0.0
 40
0.0
 40
0.0
 40
1.0
 40
1.0
 40
1.0
 40
1.0
 10
9.2768613142353
 20
18.9694300960726
 30
0.0
 10
9.37252933764442
 20
19.5664508611327
 30
0.0
 10
9.42685844524935
 20
20.4590371435109
 30
0.0
 10
9.26679041741002
 20
21.6499654580328
 30
0.0
  0
ARC
  5
2B
330
0
100
AcDbEntity
  8
1
100
AcDbCircle
 10
0.0
 20
0.0
 30
0.0
 40
23.5498282153865
100
AcDbArc
 50
66.8277215825923
 51
70.3151355602648
  0
SPLINE
  5
2C
330
0
100
AcDbEntity
  8
1
100
AcDbSpline
 70
     8
 71
     3
 72
     8
 73
     4
 74
     0
 40
0.0
 40
0.0
 40
0.0
 40
0.0
 40
1.0
 40
1.0
 40
1.0
 40
1.0
 10
7.93267821689887
 20
22.1735659126211
 30
0.0
 10
7.00530307729387
 20
21.4094275911707
 30
0.0
 10
6.43801627593658
 20
20.7181623682435
 30
0.0
 10
6.1020686512939
 20
20.2154443974956
 30
0.0
  0
SPLINE
  5
2D
330
0
100
AcDbEntity
  8
1
100
AcDbSpline
 70
     8
 71
     3
 72
     8
 73
     4
 74
     0
 40
0.0
 40
0.0
 40
0.0
 40
0.0
 40
1.0
 40
1.0
 40
1.0
 40
1.0
 10
6.1020686512939
 20
20.2154443974956
 30
0.0
 10
5.82278018186746
 20
19.7947594350323
 30
0.0
 10
5.71169485754355
 20
19.5203904403154
 30
0.0
 10
5.6784520201796
 20
19.4278220170627
 30
0.0
  0
LINE
  5
2E
330
0
100
AcDbEntity
  8
1
100
AcDbLine
 10
5.6784520201796
 20
19.4278220170627
 30
0.0
 11
5.31368465356445
 21
18.1798348101535
 31
0.0
  0
ARC
  5
2F
330
0
100
AcDbEntity
  8
1
100
AcDbCircle
 10
-0.00000024581953
 20
-0.000001481431584
 30
0.0
 40
18.9404776813779
100
AcDbArc
 50
73.7071752059679
 51
80.5785396232347
  0
LINE
  5
30
330
0
100
AcDbEntity
  8
1
100
AcDbLine
 10
3.10047025725653
 20
18.6849865535371
 30
0.0
 11
3.31330757161417
 21
19.9676508034379
 31
0.0
  0
SPLINE
  5
31
330
0
100
AcDbEntity
  8
1
100
AcDbSpline
 70
     8
 71
     3
 72
     8
 73
     4
 74
     0
 40
0.0
 40
0.0
 40
0.0
 40
0.0
 40
1.0
 40
1.0
 40
1.0
 40
1.0
 10
3.31330757161417
 20
19.9676508034379
 30
0.0
 10
3.32352074367359
 20
20.0654755975137
 30
0.0
 10
3.34248057010262
 20
20.3608716359501
 30
0.0
 10
3.2733787184894
 20
20.8610744157314
 30
0.0
  0
SPLINE
  5
32
330
0
100
AcDbEntity
  8
1
100
AcDbSpline
 70
     8
 71
     3
 72
     8
 73
     4
 74
     0
 40
0.0
 40
0.0
 40
0.0
 40
0.0
 40
1.0
 40
1.0
 40
1.0
 40
1.0
 10
3.2733787184894
 20
20.8610744157314
 30
0.0
 10
3.18882152031025
 20
21.4597698682379
 30
0.0
 10
2.97764251276099
 20
22.3287148320839
 30
0.0
 10
2.47365357522411
 20
23.4195526636184
 30
0.0
  0
ARC
  5
33
330
0
100
AcDbEntity
  8
1
100
AcDbCircle
 10
0.0
 20
0.0
 30
0.0
 40
23.5498282153865
100
AcDbArc
 50
83.9705787254495
 51
87.457992703122
  0
SPLINE
  5
34
330
0
100
AcDbEntity
  8
1
100
AcDbSpline
 70
     8
 71
     3
 72
     8
 73
     4
 74
     0
 40
0.0
 40
0.0
 40
0.0
 40
0.0
 40
1.0
 40
1.0
 40
1.0
 40
1.0
 10
1.04447829323435
 20
23.5266545447749
 30
0.0
 10
0.383537553278833
 20
22.5231161239192
 30
0.0
 10
0.045207714168517
 20
21.6953511552292
 30
0.0
 10
-0.1276359769612
 20
21.1159452327081
 30
0.0
  0
SPLINE
  5
35
330
0
100
AcDbEntity
  8
1
100
AcDbSpline
 70
     8
 71
     3
 72
     8
 73
     4
 74
     0
 40
0.0
 40
0.0
 40
0.0
 40
0.0
 40
1.0
 40
1.0
 40
1.0
 40
1.0
 10
-0.1276359769612
 20
21.1159452327081
 30
0.0
 10
-0.270517373831815
 20
20.6316284012582
 30
0.0
 10
-0.295795807986939
 20
20.3367058770102
 30
0.0
 10
-0.300276737618321
 20
20.2384515107504
 30
0.0
  0
LINE
  5
36
330
0
100
AcDbEntity
  8
1
100
AcDbLine
 10
-0.300276737618321
 20
20.2384515107504
 30
0.0
 11
-0.280987826758885
 21
18.9383918050929
 31
0.0
  0
ARC
  5
37
330
0
100
AcDbEntity
  8
1
100
AcDbCircle
 10
0.000000201761169
 20
-0.000001488072323
 30
0.0
 40
18.9404776813779
100
AcDbArc
 50
90.8500323488251
 51
97.7213967660918
  0
LINE
  5
38
330
0
100
AcDbEntity
  8
1
100
AcDbLine
 10
-2.54477140747013
 20
18.7687446784733
 30
0.0
 11
-2.71946178250354
 21
20.0571586543471
 31
0.0
  0
SPLINE
  5
39
330
0
100
AcDbEntity
  8
1
100
AcDbSpline
 70
     8
 71
     3
 72
     8
 73
     4
 74
     0
 40
0.0
 40
0.0
 40
0.0
 40
0.0
 40
1.0
 40
1.0
 40
1.0
 40
1.0
 10
-2.71946178250354
 20
20.0571586543471
 30
0.0
 10
-2.73853671726227
 20
20.1536477526093
 30
0.0
 10
-2.80748873355387
 20
20.4415086808219
 30
0.0
 10
-3.02095794138019
 20
20.8991207262352
 30
0.0
  0
SPLINE
  5
3A
330
0
100
AcDbEntity
  8
1
100
AcDbSpline
 70
     8
 71
     3
 72
     8
 73
     4
 74
     0
 40
0.0
 40
0.0
 40
0.0
 40
0.0
 40
1.0
 40
1.0
 40
1.0
 40
1.0
 10
-3.02095794138019
 20
20.8991207262352
 30
0.0
 10
-3.27822708301624
 20
21.4462941479013
 30
0.0
 10
-3.73615002415512
 20
22.2143882198752
 30
0.0
 10
-4.53927824257037
 20
23.1082098400274
 30
0.0
  0
ARC
  5
3B
330
0
100
AcDbEntity
  8
1
100
AcDbCircle
 10
0.0
 20
0.0
 30
0.0
 40
23.5498282153865
100
AcDbArc
 50
101.113435868307
 51
104.600849845979
  0
SPLINE
  5
3C
330
0
100
AcDbEntity
  8
1
100
AcDbSpline
 70
     8
 71
     3
 72
     8
 73
     4
 74
     0
 40
0.0
 40
0.0
 40
0.0
 40
0.0
 40
1.0
 40
1.0
 40
1.0
 40
1.0
 10
-5.93652811040154
 20
22.7892966756025
 30
0.0
 10
-6.27230696547186
 20
21.6355269479904
 30
0.0
 10
-6.35161775139421
 20
20.7448127835924
 30
0.0
 10
-6.34599958854203
 20
20.140201668195
 30
0.0
  0
SPLINE
  5
3D
330
0
100
AcDbEntity
  8
1
100
AcDbSpline
 70
     8
 71
     3
 72
     8
 73
     4
 74
     0
 40
0.0
 40
0.0
 40
0.0
 40
0.0
 40
1.0
 40
1.0
 40
1.0
 40
1.0
 10
-6.34599958854203
 20
20.140201668195
 30
0.0
 10
-6.3397782737202
 20
19.6352866436224
 30
0.0
 10
-6.27700371789927
 20
19.346015750369
 30
0.0
 10
-6.2523245895361
 20
19.2508057727263
 30
0.0
  0
LINE
  5
3E
330
0
100
AcDbEntity
  8
1
100
AcDbLine
 10
-6.2523245895361
 20
19.2508057727263
 30
0.0
 11
-5.85069330557992
 21
18.0141895783862
 31
0.0
  0
ARC
  5
3F
330
0
100
AcDbEntity
  8
1
100
AcDbCircle
 10
0.000000631414524
 20
-0.000001362491343
 30
0.0
 40
18.940477681378
100
AcDbArc
 50
107.992889491682
 51
114.864253908949
  0
LINE
  5
40
330
0
100
AcDbEntity
  8
1
100
AcDbLine
 10
-7.9638989650977
 20
17.1848174734476
 30
0.0
 11
-8.51059502308435
 21
18.3644999394266
 31
0.0
  0
SPLINE
  5
41
330
0
100
AcDbEntity
  8
1
100
AcDbSpline
 70
     8
 71
     3
 72
     8
 73
     4
 74
     0
 40
0.0
 40
0.0
 40
0.0
 40
0.0
 40
1.0
 40
1.0
 40
1.0
 40
1.0
 10
-8.51059502308435
 20
18.3644999394266
 30
0.0
 10
-8.55726317299894
 20
18.4510798620591
 30
0.0
 10
-8.70800034277273
 20
18.7058279733194
 30
0.0
 10
-9.04686923090259
 20
19.0801884459323
 30
0.0
  0
SPLINE
  5
42
330
0
100
AcDbEntity
  8
1
100
AcDbSpline
 70
     8
 71
     3
 72
     8
 73
     4
 74
     0
 40
0.0
 40
0.0
 40
0.0
 40
0.0
 40
1.0
 40
1.0
 40
1.0
 40
1.0
 10
-9.04686923090259
 20
19.0801884459323
 30
0.0
 10
-9.45399082375414
 20
19.5272210770119
 30
0.0
 10
-10.1179692356007
 20
20.1262157280936
 30
0.0
 10
-11.148875268218
 20
20.7436011634415
 30
0.0
  0
ARC
  5
43
330
0
100
AcDbEntity
  8
1
100
AcDbCircle
 10
0.0
 20
0.0
 30
0.0
 40
23.5498282153865
100
AcDbArc
 50
118.256293011164
 51
121.743706988836
  0
SPLINE
  5
44
330
0
100
AcDbEntity
  8
1
100
AcDbSpline
 70
     8
 71
     3
 72
     8
 73
     4
 74
     0
 40
0.0
 40
0.0
 40
0.0
 40
0.0
 40
1.0
 40
1.0
 40
1.0
 40
1.0
 10
-12.3900479394037
 20
20.0270097876216
 30
0.0
 10
-12.3708294847746
 20
18.8255262567865
 30
0.0
 10
-12.1840741061302
 20
17.951006759022
 30
0.0
 10
-12.0004932877204
 20
17.3749128016436
 30
0.0
  0
SPLINE
  5
45
330
0
100
AcDbEntity
  8
1
100
AcDbSpline
 70
     8
 71
     3
 72
     8
 73
     4
 74
     0
 40
0.0
 40
0.0
 40
0.0
 40
0.0
 40
1.0
 40
1.0
 40
1.0
 40
1.0
 10
-12.0004932877204
 20
17.3749128016436
 30
0.0
 10
-11.8457220523298
 20
16.8942634996645
 30
0.0
 10
-11.7004723012992
 20
16.6363472257157
 30
0.0
 10
-11.6488259637991
 20
16.5526414610258
 30
0.0
  0
LINE
  5
46
330
0
100
AcDbEntity
  8
1
100
AcDbLine
 10
-11.6488259637991
 20
16.5526414610258
 30
0.0
 11
-10.9005390088555
 21
15.489347553671
 31
0.0
  0
ARC
  5
47
330
0
100
AcDbEntity
  8
1
100
AcDbCircle
 10
0.000001004963922
 20
-0.000001115846977
 30
0.0
 40
18.940477681378
100
AcDbArc
 50
125.135746634539
 51
132.007111051806
  0
LINE
  5
48
330
0
100
AcDbEntity
  8
1
100
AcDbLine
 10
-12.6753991506814
 20
14.0739438215769
 30
0.0
 11
-13.545524547733
 21
15.0400748136075
 31
0.0
  0
SPLINE
  5
49
330
0
100
AcDbEntity
  8
1
100
AcDbSpline
 70
     8
 71
     3
 72
     8
 73
     4
 74
     0
 40
0.0
 40
0.0
 40
0.0
 40
0.0
 40
1.0
 40
1.0
 40
1.0
 40
1.0
 10
-13.545524547733
 20
15.0400748136075
 30
0.0
 10
-13.6156392428838
 20
15.1090525545346
 30
0.0
 10
-13.8347679071062
 20
15.3080523612135
 30
0.0
 10
-14.2689264877276
 20
15.5658976901805
 30
0.0
  0
SPLINE
  5
4A
330
0
100
AcDbEntity
  8
1
100
AcDbSpline
 70
     8
 71
     3
 72
     8
 73
     4
 74
     0
 40
0.0
 40
0.0
 40
0.0
 40
0.0
 40
1.0
 40
1.0
 40
1.0
 40
1.0
 10
-14.2689264877276
 20
15.5658976901805
 30
0.0
 10
-14.7897259916461
 20
15.8730687196318
 30
0.0
 10
-15.6007624784866
 20
16.2497406464279
 30
0.0
 10
-16.7678458002512
 20
16.5358324916894
 30
0.0
  0
ARC
  5
4B
330
0
100
AcDbEntity
  8
1
100
AcDbCircle
 10
0.0
 20
0.0
 30
0.0
 40
23.5498282153865
100
AcDbArc
 50
135.399150154021
 51
138.886564131693
  0
SPLINE
  5
4C
330
0
100
AcDbEntity
  8
1
100
AcDbSpline
 70
     8
 71
     3
 72
     8
 73
     4
 74
     0
 40
0.0
 40
0.0
 40
0.0
 40
0.0
 40
1.0
 40
1.0
 40
1.0
 40
1.0
 10
-17.7426576361601
 20
15.4852351929256
 30
0.0
 10
-17.3701495158642
 20
14.3427949432058
 30
0.0
 10
-16.9339220076079
 20
13.5621750072169
 30
0.0
 10
-16.5886904949875
 20
13.0657866841172
 30
0.0
  0
SPLINE
  5
4D
330
0
100
AcDbEntity
  8
1
100
AcDbSpline
 70
     8
 71
     3
 72
     8
 73
     4
 74
     0
 40
0.0
 40
0.0
 40
0.0
 40
0.0
 40
1.0
 40
1.0
 40
1.0
 40
1.0
 10
-16.5886904949875
 20
13.0657866841172
 30
0.0
 10
-16.299121442495
 20
12.6521109045072
 30
0.0
 10
-16.0843025740516
 20
12.4484662426502
 30
0.0
 10
-16.0102780311477
 20
12.3837023154425
 30
0.0
  0
LINE
  5
4E
330
0
100
AcDbEntity
  8
1
100
AcDbLine
 10
-16.0102780311477
 20
12.3837023154425
 30
0.0
 11
-14.9818239849668
 21
11.58820902493
 31
0.0
  0
ARC
  5
4F
330
0
100
AcDbEntity
  8
1
100
AcDbCircle
 10
0.000001289217824
 20
-0.000000770054687
 30
0.0
 40
18.9404776813779
100
AcDbArc
 50
142.278603777396
 51
149.149968194663
  0
LINE
  5
50
330
0
100
AcDbEntity
  8
1
100
AcDbLine
 10
-16.260634496654
 20
9.71253849867382
 30
0.0
 11
-17.3768747727602
 21
10.3792730383182
 31
0.0
  0
SPLINE
  5
51
330
0
100
AcDbEntity
  8
1
100
AcDbSpline
 70
     8
 71
     3
 72
     8
 73
     4
 74
     0
 40
0.0
 40
0.0
 40
0.0
 40
0.0
 40
1.0
 40
1.0
 40
1.0
 40
1.0
 10
-17.3768747727602
 20
10.3792730383182
 30
0.0
 10
-17.4642060147897
 20
10.4245196225548
 30
0.0
 10
-17.7322556300142
 20
10.5500891185325
 30
0.0
 10
-18.2231270079655
 20
10.6685086148393
 30
0.0
  0
SPLINE
  5
52
330
0
100
AcDbEntity
  8
1
100
AcDbSpline
 70
     8
 71
     3
 72
     8
 73
     4
 74
     0
 40
0.0
 40
0.0
 40
0.0
 40
0.0
 40
1.0
 40
1.0
 40
1.0
 40
1.0
 10
-18.2231270079655
 20
10.6685086148393
 30
0.0
 10
-18.8113291015368
 20
10.8085245486977
 30
0.0
 10
-19.6973595123404
 20
10.9294047975148
 30
0.0
 10
-20.8969196484528
 20
10.8587825367451
 30
0.0
  0
ARC
  5
53
330
0
100
AcDbEntity
  8
1
100
AcDbCircle
 10
0.0
 20
0.0
 30
0.0
 40
23.5498282153865
100
AcDbArc
 50
152.542007296878
 51
156.029421274551
  0
SPLINE
  5
54
330
0
100
AcDbEntity
  8
1
100
AcDbSpline
 70
     8
 71
     3
 72
     8
 73
     4
 74
     0
 40
0.0
 40
0.0
 40
0.0
 40
0.0
 40
1.0
 40
1.0
 40
1.0
 40
1.0
 10
-21.5187543395731
 20
9.56752949550291
 30
0.0
 10
-20.8260555348236
 20
8.58564335660242
 30
0.0
 10
-20.179116625417
 20
7.96828448939578
 30
0.0
 10
-19.7029097535057
 20
7.59570808144652
 30
0.0
  0
SPLINE
  5
55
330
0
100
AcDbEntity
  8
1
100
AcDbSpline
 70
     8
 71
     3
 72
     8
 73
     4
 74
     0
 40
0.0
 40
0.0
 40
0.0
 40
0.0
 40
1.0
 40
1.0
 40
1.0
 40
1.0
 10
-19.7029097535057
 20
7.59570808144652
 30
0.0
 10
-19.3042723649781
 20
7.28576273261028
 30
0.0
 10
-19.0389719783004
 20
7.15448440473097
 30
0.0
 10
-18.949146635481
 20
7.11441687414974
 30
0.0
  0
LINE
  5
56
330
0
100
AcDbEntity
  8
1
100
AcDbLine
 10
-18.949146635481
 20
7.11441687414974
 30
0.0
 11
-17.7319081533621
 21
6.65740727030634
 31
0.0
  0
ARC
  5
57
330
0
100
AcDbEntity
  8
1
100
AcDbCircle
 10
0.00000145891908
 20
-0.000000355839688
 30
0.0
 40
18.9404776813779
100
AcDbArc
 50
159.421460920254
 51
166.29282533752
  0
LINE
  5
58
330
0
100
AcDbEntity
  8
1
100
AcDbLine
 10
-18.4010411089798
 20
4.48813150739043
 30
0.0
 11
-19.6642134170688
 21
4.79622730488476
 31
0.0
  0
SPLINE
  5
59
330
0
100
AcDbEntity
  8
1
100
AcDbSpline
 70
     8
 71
     3
 72
     8
 73
     4
 74
     0
 40
0.0
 40
0.0
 40
0.0
 40
0.0
 40
1.0
 40
1.0
 40
1.0
 40
1.0
 10
-19.6642134170688
 20
4.79622730488476
 30
0.0
 10
-19.7610014418758
 20
4.81372237486004
 30
0.0
 10
-20.0541546234734
 20
4.85470415936637
 30
0.0
 10
-20.55812272267
 20
4.82317573109066
 30
0.0
  0
SPLINE
  5
5A
330
0
100
AcDbEntity
  8
1
100
AcDbSpline
 70
     8
 71
     3
 72
     8
 73
     4
 74
     0
 40
0.0
 40
0.0
 40
0.0
 40
0.0
 40
1.0
 40
1.0
 40
1.0
 40
1.0
 10
-20.55812272267
 20
4.82317573109066
 30
0.0
 10
-21.1614630685979
 20
4.78359553918299
 30
0.0
 10
-22.0437597130843
 20
4.63794336943958
 30
0.0
 10
-23.169210481268
 20
4.21688210042868
 30
0.0
  0
ARC
  5
5B
330
0
100
AcDbEntity
  8
1
100
AcDbCircle
 10
0.0
 20
0.0
 30
0.0
 40
23.5498282153865
100
AcDbArc
 50
169.684864439735
 51
173.172278417408
  0
SPLINE
  5
5C
330
0
100
AcDbEntity
  8
1
100
AcDbSpline
 70
     8
 71
     3
 72
     8
 73
     4
 74
     0
 40
0.0
 40
0.0
 40
0.0
 40
0.0
 40
1.0
 40
1.0
 40
1.0
 40
1.0
 10
-23.382815286417
 20
2.79970681599311
 30
0.0
 10
-22.4314751258745
 20
2.06561968028962
 30
0.0
 10
-21.631308176463
 20
1.66637692645135
 30
0.0
 10
-21.0664390156296
 20
1.45071748252345
 30
0.0
  0
SPLINE
  5
5D
330
0
100
AcDbEntity
  8
1
100
AcDbSpline
 70
     8
 71
     3
 72
     8
 73
     4
 74
     0
 40
0.0
 40
0.0
 40
0.0
 40
0.0
 40
1.0
 40
1.0
 40
1.0
 40
1.0
 10
-21.0664390156296
 20
1.45071748252345
 30
0.0
 10
-20.594153972429
 20
1.27204256887779
 30
0.0
 10
-20.3019451711248
 20
1.22479523051371
 30
0.0
 10
-20.2043004042915
 20
1.21298427248452
 30
0.0
  0
LINE
  5
5E
330
0
100
AcDbEntity
  8
1
100
AcDbLine
 10
-20.2043004042915
 20
1.21298427248452
 30
0.0
 11
-18.9064344671339
 21
1.13506566416531
 31
0.0
  0
ARC
  5
5F
330
0
100
AcDbEntity
  8
1
100
AcDbCircle
 10
0.000001498989
 20
0.000000089993219
 30
0.0
 40
18.9404776813779
100
AcDbArc
 50
176.564318063111
 51
183.435682480378
  0
LINE
  5
60
330
0
100
AcDbEntity
  8
1
100
AcDbLine
 10
-18.9064344671339
 20
-1.1350656641653
 30
0.0
 11
-20.2043004042915
 21
-1.21298427248451
 31
0.0
  0
SPLINE
  5
61
330
0
100
AcDbEntity
  8
1
100
AcDbSpline
 70
     8
 71
     3
 72
     8
 73
     4
 74
     0
 40
0.0
 40
0.0
 40
0.0
 40
0.0
 40
1.0
 40
1.0
 40
1.0
 40
1.0
 10
-20.2043004042915
 20
-1.21298427248451
 30
0.0
 10
-20.3019451711248
 20
-1.2247952305137
 30
0.0
 10
-20.594153972429
 20
-1.27204256887778
 30
0.0
 10
-21.0664390156296
 20
-1.45071748252343
 30
0.0
  0
SPLINE
  5
62
330
0
100
AcDbEntity
  8
1
100
AcDbSpline
 70
     8
 71
     3
 72
     8
 73
     4
 74
     0
 40
0.0
 40
0.0
 40
0.0
 40
0.0
 40
1.0
 40
1.0
 40
1.0
 40
1.0
 10
-21.0664390156296
 20
-1.45071748252343
 30
0.0
 10
-21.631308176463
 20
-1.66637692645133
 30
0.0
 10
-22.4314751258745
 20
-2.0656196802896
 30
0.0
 10
-23.382815286417
 20
-2.7997068159931
 30
0.0
  0
ARC
  5
63
330
0
100
AcDbEntity
  8
1
100
AcDbCircle
 10
0.0
 20
0.0
 30
0.0
 40
23.5498282153865
100
AcDbArc
 50
186.827721582592
 51
190.315135560265
  0
SPLINE
  5
64
330
0
100
AcDbEntity
  8
1
100
AcDbSpline
 70
     8
 71
     3
 72
     8
 73
     4
 74
     0
 40
0.0
 40
0.0
 40
0.0
 40
0.0
 40
1.0
 40
1.0
 40
1.0
 40
1.0
 10
-23.169210481268
 20
-4.21688210042867
 30
0.0
 10
-22.0437597130843
 20
-4.63794336943957
 30
0.0
 10
-21.1614630685979
 20
-4.78359553918298
 30
0.0
 10
-20.55812272267
 20
-4.82317573109065
 30
0.0
  0
SPLINE
  5
65
330
0
100
AcDbEntity
  8
1
100
AcDbSpline
 70
     8
 71
     3
 72
     8
 73
     4
 74
     0
 40
0.0
 40
0.0
 40
0.0
 40
0.0
 40
1.0
 40
1.0
 40
1.0
 40
1.0
 10
-20.55812272267
 20
-4.82317573109065
 30
0.0
 10
-20.0541546234734
 20
-4.85470415936636
 30
0.0
 10
-19.7610014418758
 20
-4.81372237486003
 30
0.0
 10
-19.6642134170688
 20
-4.79622730488475
 30
0.0
  0
LINE
  5
66
330
0
100
AcDbEntity
  8
1
100
AcDbLine
 10
-19.6642134170688
 20
-4.79622730488475
 30
0.0
 11
-18.4010411089798
 21
-4.48813150739042
 31
0.0
  0
ARC
  5
67
330
0
100
AcDbEntity
  8
1
100
AcDbCircle
 10
0.00000140586716
 20
0.000000527829839
 30
0.0
 40
18.9404776813779
100
AcDbArc
 50
193.707175205968
 51
200.578539623235
  0
LINE
  5
68
330
0
100
AcDbEntity
  8
1
100
AcDbLine
 10
-17.7319081533621
 20
-6.65740727030633
 30
0.0
 11
-18.949146635481
 21
-7.11441687414973
 31
0.0
  0
SPLINE
  5
69
330
0
100
AcDbEntity
  8
1
100
AcDbSpline
 70
     8
 71
     3
 72
     8
 73
     4
 74
     0
 40
0.0
 40
0.0
 40
0.0
 40
0.0
 40
1.0
 40
1.0
 40
1.0
 40
1.0
 10
-18.949146635481
 20
-7.11441687414973
 30
0.0
 10
-19.0389719783004
 20
-7.15448440473095
 30
0.0
 10
-19.3042723649781
 20
-7.28576273261027
 30
0.0
 10
-19.7029097535057
 20
-7.59570808144651
 30
0.0
  0
SPLINE
  5
6A
330
0
100
AcDbEntity
  8
1
100
AcDbSpline
 70
     8
 71
     3
 72
     8
 73
     4
 74
     0
 40
0.0
 40
0.0
 40
0.0
 40
0.0
 40
1.0
 40
1.0
 40
1.0
 40
1.0
 10
-19.7029097535057
 20
-7.59570808144651
 30
0.0
 10
-20.179116625417
 20
-7.96828448939576
 30
0.0
 10
-20.8260555348236
 20
-8.5856433566024
 30
0.0
 10
-21.5187543395731
 20
-9.5675294955029
 30
0.0
  0
ARC
  5
6B
330
0
100
AcDbEntity
  8
1
100
AcDbCircle
 10
0.0
 20
0.0
 30
0.0
 40
23.5498282153865
100
AcDbArc
 50
203.970578725449
 51
207.457992703122
  0
SPLINE
  5
6C
330
0
100
AcDbEntity
  8
1
100
AcDbSpline
 70
     8
 71
     3
 72
     8
 73
     4
 74
     0
 40
0.0
 40
0.0
 40
0.0
 40
0.0
 40
1.0
 40
1.0
 40
1.0
 40
1.0
 10
-20.8969196484528
 20
-10.8587825367451
 30
0.0
 10
-19.6973595123404
 20
-10.9294047975148
 30
0.0
 10
-18.8113291015368
 20
-10.8085245486976
 30
0.0
 10
-18.2231270079655
 20
-10.6685086148393
 30
0.0
  0
SPLINE
  5
6D
330
0
100
AcDbEntity
  8
1
100
AcDbSpline
 70
     8
 71
     3
 72
     8
 73
     4
 74
     0
 40
0.0
 40
0.0
 40
0.0
 40
0.0
 40
1.0
 40
1.0
 40
1.0
 40
1.0
 10
-18.2231270079655
 20
-10.6685086148393
 30
0.0
 10
-17.7322556300142
 20
-10.5500891185325
 30
0.0
 10
-17.4642060147897
 20
-10.4245196225547
 30
0.0
 10
-17.3768747727602
 20
-10.3792730383182
 30
0.0
  0
LINE
  5
6E
330
0
100
AcDbEntity
  8
1
100
AcDbLine
 10
-17.3768747727602
 20
-10.3792730383182
 30
0.0
 11
-16.260634496654
 21
-9.7125384986738
 31
0.0
  0
ARC
  5
6F
330
0
100
AcDbEntity
  8
1
100
AcDbCircle
 10
0.000001187827827
 20
0.000000918766441
 30
0.0
 40
18.9404776813779
100
AcDbArc
 50
210.850032348825
 51
217.721396766092
  0
LINE
  5
70
330
0
100
AcDbEntity
  8
1
100
AcDbLine
 10
-14.9818239849668
 20
-11.58820902493
 30
0.0
 11
-16.0102780311477
 21
-12.3837023154425
 31
0.0
  0
SPLINE
  5
71
330
0
100
AcDbEntity
  8
1
100
AcDbSpline
 70
     8
 71
     3
 72
     8
 73
     4
 74
     0
 40
0.0
 40
0.0
 40
0.0
 40
0.0
 40
1.0
 40
1.0
 40
1.0
 40
1.0
 10
-16.0102780311477
 20
-12.3837023154425
 30
0.0
 10
-16.0843025740516
 20
-12.4484662426502
 30
0.0
 10
-16.299121442495
 20
-12.6521109045072
 30
0.0
 10
-16.5886904949875
 20
-13.0657866841172
 30
0.0
  0
SPLINE
  5
72
330
0
100
AcDbEntity
  8
1
100
AcDbSpline
 70
     8
 71
     3
 72
     8
 73
     4
 74
     0
 40
0.0
 40
0.0
 40
0.0
 40
0.0
 40
1.0
 40
1.0
 40
1.0
 40
1.0
 10
-16.5886904949875
 20
-13.0657866841172
 30
0.0
 10
-16.9339220076079
 20
-13.5621750072169
 30
0.0
 10
-17.3701495158642
 20
-14.3427949432058
 30
0.0
 10
-17.7426576361601
 20
-15.4852351929256
 30
0.0
  0
ARC
  5
73
330
0
100
AcDbEntity
  8
1
100
AcDbCircle
 10
0.0
 20
0.0
 30
0.0
 40
23.5498282153865
100
AcDbArc
 50
221.113435868307
 51
224.600849845979
  0
SPLINE
  5
74
330
0
100
AcDbEntity
  8
1
100
AcDbSpline
 70
     8
 71
     3
 72
     8
 73
     4
 74
     0
 40
0.0
 40
0.0
 40
0.0
 40
0.0
 40
1.0
 40
1.0
 40
1.0
 40
1.0
 10
-16.7678458002512
 20
-16.5358324916894
 30
0.0
 10
-15.6007624784866
 20
-16.2497406464279
 30
0.0
 10
-14.7897259916461
 20
-15.8730687196318
 30
0.0
 10
-14.2689264877276
 20
-15.5658976901805
 30
0.0
  0
SPLINE
  5
75
330
0
100
AcDbEntity
  8
1
100
AcDbSpline
 70
     8
 71
     3
 72
     8
 73
     4
 74
     0
 40
0.0
 40
0.0
 40
0.0
 40
0.0
 40
1.0
 40
1.0
 40
1.0
 40
1.0
 10
-14.2689264877276
 20
-15.5658976901805
 30
0.0
 10
-13.8347679071062
 20
-15.3080523612135
 30
0.0
 10
-13.6156392428838
 20
-15.1090525545346
 30
0.0
 10
-13.545524547733
 20
-15.0400748136075
 30
0.0
  0
LINE
  5
76
330
0
100
AcDbEntity
  8
1
100
AcDbLine
 10
-13.545524547733
 20
-15.0400748136075
 30
0.0
 11
-12.6753991506814
 21
-14.0739438215769
 31
0.0
  0
ARC
  5
77
330
0
100
AcDbEntity
  8
1
100
AcDbCircle
 10
0.000000864244849
 20
0.000001228066684
 30
0.0
 40
18.940477681378
100
AcDbArc
 50
227.992889491682
 51
234.864253908949
  0
LINE
  5
78
330
0
100
AcDbEntity
  8
1
100
AcDbLine
 10
-10.9005390088555
 20
-15.489347553671
 30
0.0
 11
-11.6488259637991
 21
-16.5526414610258
 31
0.0
  0
SPLINE
  5
79
330
0
100
AcDbEntity
  8
1
100
AcDbSpline
 70
     8
 71
     3
 72
     8
 73
     4
 74
     0
 40
0.0
 40
0.0
 40
0.0
 40
0.0
 40
1.0
 40
1.0
 40
1.0
 40
1.0
 10
-11.6488259637991
 20
-16.5526414610258
 30
0.0
 10
-11.7004723012992
 20
-16.6363472257156
 30
0.0
 10
-11.8457220523298
 20
-16.8942634996645
 30
0.0
 10
-12.0004932877204
 20
-17.3749128016436
 30
0.0
  0
SPLINE
  5
7A
330
0
100
AcDbEntity
  8
1
100
AcDbSpline
 70
     8
 71
     3
 72
     8
 73
     4
 74
     0
 40
0.0
 40
0.0
 40
0.0
 40
0.0
 40
1.0
 40
1.0
 40
1.0
 40
1.0
 10
-12.0004932877204
 20
-17.3749128016436
 30
0.0
 10
-12.1840741061302
 20
-17.951006759022
 30
0.0
 10
-12.3708294847746
 20
-18.8255262567865
 30
0.0
 10
-12.3900479394038
 20
-20.0270097876216
 30
0.0
  0
ARC
  5
7B
330
0
100
AcDbEntity
  8
1
100
AcDbCircle
 10
0.0
 20
0.0
 30
0.0
 40
23.5498282153865
100
AcDbArc
 50
238.256293011164
 51
241.743706988836
  0
SPLINE
  5
7C
330
0
100
AcDbEntity
  8
1
100
AcDbSpline
 70
     8
 71
     3
 72
     8
 73
     4
 74
     0
 40
0.0
 40
0.0
 40
0.0
 40
0.0
 40
1.0
 40
1.0
 40
1.0
 40
1.0
 10
-11.148875268218
 20
-20.7436011634415
 30
0.0
 10
-10.1179692356007
 20
-20.1262157280936
 30
0.0
 10
-9.45399082375416
 20
-19.5272210770119
 30
0.0
 10
-9.04686923090261
 20
-19.0801884459323
 30
0.0
  0
SPLINE
  5
7D
330
0
100
AcDbEntity
  8
1
100
AcDbSpline
 70
     8
 71
     3
 72
     8
 73
     4
 74
     0
 40
0.0
 40
0.0
 40
0.0
 40
0.0
 40
1.0
 40
1.0
 40
1.0
 40
1.0
 10
-9.04686923090261
 20
-19.0801884459323
 30
0.0
 10
-8.70800034277275
 20
-18.7058279733194
 30
0.0
 10
-8.55726317299896
 20
-18.4510798620591
 30
0.0
 10
-8.51059502308436
 20
-18.3644999394266
 30
0.0
  0
LINE
  5
7E
330
0
100
AcDbEntity
  8
1
100
AcDbLine
 10
-8.51059502308436
 20
-18.3644999394266
 30
0.0
 11
-7.96389896509771
 21
-17.1848174734476
 31
0.0
  0
ARC
  5
7F
330
0
100
AcDbEntity
  8
1
100
AcDbCircle
 10
0.000000463869831
 20
0.000001428247661
 30
0.0
 40
18.9404776813779
100
AcDbArc
 50
245.135746634539
 51
252.007111051806
  0
LINE
  5
80
330
0
100
AcDbEntity
  8
1
100
AcDbLine
 10
-5.85069330557995
 20
-18.0141895783862
 30
0.0
 11
-6.25232458953613
 21
-19.2508057727263
 31
0.0
  0
SPLINE
  5
81
330
0
100
AcDbEntity
  8
1
100
AcDbSpline
 70
     8
 71
     3
 72
     8
 73
     4
 74
     0
 40
0.0
 40
0.0
 40
0.0
 40
0.0
 40
1.0
 40
1.0
 40
1.0
 40
1.0
 10
-6.25232458953613
 20
-19.2508057727263
 30
0.0
 10
-6.2770037178993
 20
-19.346015750369
 30
0.0
 10
-6.33977827372022
 20
-19.6352866436224
 30
0.0
 10
-6.34599958854206
 20
-20.140201668195
 30
0.0
  0
SPLINE
  5
82
330
0
100
AcDbEntity
  8
1
100
AcDbSpline
 70
     8
 71
     3
 72
     8
 73
     4
 74
     0
 40
0.0
 40
0.0
 40
0.0
 40
0.0
 40
1.0
 40
1.0
 40
1.0
 40
1.0
 10
-6.34599958854206
 20
-20.140201668195
 30
0.0
 10
-6.35161775139424
 20
-20.7448127835924
 30
0.0
 10
-6.27230696547189
 20
-21.6355269479904
 30
0.0
 10
-5.93652811040157
 20
-22.7892966756025
 30
0.0
  0
ARC
  5
83
330
0
100
AcDbEntity
  8
1
100
AcDbCircle
 10
0.0
 20
0.0
 30
0.0
 40
23.5498282153865
100
AcDbArc
 50
255.399150154021
 51
258.886564131693
  0
SPLINE
  5
84
330
0
100
AcDbEntity
  8
1
100
AcDbSpline
 70
     8
 71
     3
 72
     8
 73
     4
 74
     0
 40
0.0
 40
0.0
 40
0.0
 40
0.0
 40
1.0
 40
1.0
 40
1.0
 40
1.0
 10
-4.5392782425704
 20
-23.1082098400274
 30
0.0
 10
-3.73615002415515
 20
-22.2143882198752
 30
0.0
 10
-3.27822708301627
 20
-21.4462941479013
 30
0.0
 10
-3.02095794138022
 20
-20.8991207262352
 30
0.0
  0
SPLINE
  5
85
330
0
100
AcDbEntity
  8
1
100
AcDbSpline
 70
     8
 71
     3
 72
     8
 73
     4
 74
     0
 40
0.0
 40
0.0
 40
0.0
 40
0.0
 40
1.0
 40
1.0
 40
1.0
 40
1.0
 10
-3.02095794138022
 20
-20.8991207262352
 30
0.0
 10
-2.8074887335539
 20
-20.4415086808219
 30
0.0
 10
-2.7385367172623
 20
-20.1536477526093
 30
0.0
 10
-2.71946178250357
 20
-20.0571586543471
 30
0.0
  0
LINE
  5
86
330
0
100
AcDbEntity
  8
1
100
AcDbLine
 10
-2.71946178250357
 20
-20.0571586543471
 30
0.0
 11
-2.54477140747016
 21
-18.7687446784732
 31
0.0
  0
ARC
  5
87
330
0
100
AcDbEntity
  8
1
100
AcDbCircle
 10
0.000000022278011
 20
0.000001501522927
 30
0.0
 40
18.9404776813781
100
AcDbArc
 50
262.278603777396
 51
269.149968194663
  0
LINE
  5
88
330
0
100
AcDbEntity
  8
1
100
AcDbLine
 10
-0.280987826758886
 20
-18.9383918050929
 30
0.0
 11
-0.300276737618321
 21
-20.2384515107504
 31
0.0
  0
SPLINE
  5
89
330
0
100
AcDbEntity
  8
1
100
AcDbSpline
 70
     8
 71
     3
 72
     8
 73
     4
 74
     0
 40
0.0
 40
0.0
 40
0.0
 40
0.0
 40
1.0
 40
1.0
 40
1.0
 40
1.0
 10
-0.300276737618321
 20
-20.2384515107504
 30
0.0
 10
-0.29579580798694
 20
-20.3367058770102
 30
0.0
 10
-0.270517373831815
 20
-20.6316284012582
 30
0.0
 10
-0.1276359769612
 20
-21.1159452327081
 30
0.0
  0
SPLINE
  5
8A
330
0
100
AcDbEntity
  8
1
100
AcDbSpline
 70
     8
 71
     3
 72
     8
 73
     4
 74
     0
 40
0.0
 40
0.0
 40
0.0
 40
0.0
 40
1.0
 40
1.0
 40
1.0
 40
1.0
 10
-0.1276359769612
 20
-21.1159452327081
 30
0.0
 10
0.045207714168516
 20
-21.6953511552292
 30
0.0
 10
0.383537553278833
 20
-22.5231161239192
 30
0.0
 10
1.04447829323435
 20
-23.5266545447749
 30
0.0
  0
ARC
  5
8B
330
0
100
AcDbEntity
  8
1
100
AcDbCircle
 10
0.0
 20
0.0
 30
0.0
 40
23.5498282153865
100
AcDbArc
 50
272.542007296878
 51
276.029421274551
  0
SPLINE
  5
8C
330
0
100
AcDbEntity
  8
1
100
AcDbSpline
 70
     8
 71
     3
 72
     8
 73
     4
 74
     0
 40
0.0
 40
0.0
 40
0.0
 40
0.0
 40
1.0
 40
1.0
 40
1.0
 40
1.0
 10
2.47365357522411
 20
-23.4195526636184
 30
0.0
 10
2.97764251276099
 20
-22.3287148320839
 30
0.0
 10
3.18882152031025
 20
-21.4597698682379
 30
0.0
 10
3.2733787184894
 20
-20.8610744157314
 30
0.0
  0
SPLINE
  5
8D
330
0
100
AcDbEntity
  8
1
100
AcDbSpline
 70
     8
 71
     3
 72
     8
 73
     4
 74
     0
 40
0.0
 40
0.0
 40
0.0
 40
0.0
 40
1.0
 40
1.0
 40
1.0
 40
1.0
 10
3.2733787184894
 20
-20.8610744157314
 30
0.0
 10
3.34248057010262
 20
-20.3608716359501
 30
0.0
 10
3.32352074367359
 20
-20.0654755975137
 30
0.0
 10
3.31330757161417
 20
-19.9676508034379
 30
0.0
  0
LINE
  5
8E
330
0
100
AcDbEntity
  8
1
100
AcDbLine
 10
3.31330757161417
 20
-19.9676508034379
 30
0.0
 11
3.10047025725653
 21
-18.6849865535371
 31
0.0
  0
ARC
  5
8F
330
0
100
AcDbEntity
  8
1
100
AcDbCircle
 10
-0.000000421293354
 20
0.000001441380908
 30
0.0
 40
18.940477681378
100
AcDbArc
 50
279.421460920254
 51
286.29282533752
  0
LINE
  5
90
330
0
100
AcDbEntity
  8
1
100
AcDbLine
 10
5.31368465356445
 20
-18.1798348101535
 30
0.0
 11
5.67845202017961
 21
-19.4278220170627
 31
0.0
  0
SPLINE
  5
91
330
0
100
AcDbEntity
  8
1
100
AcDbSpline
 70
     8
 71
     3
 72
     8
 73
     4
 74
     0
 40
0.0
 40
0.0
 40
0.0
 40
0.0
 40
1.0
 40
1.0
 40
1.0
 40
1.0
 10
5.67845202017961
 20
-19.4278220170627
 30
0.0
 10
5.71169485754356
 20
-19.5203904403154
 30
0.0
 10
5.82278018186747
 20
-19.7947594350323
 30
0.0
 10
6.1020686512939
 20
-20.2154443974956
 30
0.0
  0
SPLINE
  5
92
330
0
100
AcDbEntity
  8
1
100
AcDbSpline
 70
     8
 71
     3
 72
     8
 73
     4
 74
     0
 40
0.0
 40
0.0
 40
0.0
 40
0.0
 40
1.0
 40
1.0
 40
1.0
 40
1.0
 10
6.1020686512939
 20
-20.2154443974956
 30
0.0
 10
6.43801627593659
 20
-20.7181623682435
 30
0.0
 10
7.00530307729388
 20
-21.4094275911707
 30
0.0
 10
7.93267821689888
 20
-22.1735659126211
 30
0.0
  0
ARC
  5
93
330
0
100
AcDbEntity
  8
1
100
AcDbCircle
 10
0.0
 20
0.0
 30
0.0
 40
23.5498282153865
100
AcDbArc
 50
289.684864439735
 51
293.172278417408
  0
SPLINE
  5
94
330
0
100
AcDbEntity
  8
1
100
AcDbSpline
 70
     8
 71
     3
 72
     8
 73
     4
 74
     0
 40
0.0
 40
0.0
 40
0.0
 40
0.0
 40
1.0
 40
1.0
 40
1.0
 40
1.0
 10
9.26679041741003
 20
-21.6499654580328
 30
0.0
 10
9.42685844524936
 20
-20.4590371435109
 30
0.0
 10
9.37252933764443
 20
-19.5664508611327
 30
0.0
 10
9.27686131423531
 20
-18.9694300960726
 30
0.0
  0
SPLINE
  5
95
330
0
100
AcDbEntity
  8
1
100
AcDbSpline
 70
     8
 71
     3
 72
     8
 73
     4
 74
     0
 40
0.0
 40
0.0
 40
0.0
 40
0.0
 40
1.0
 40
1.0
 40
1.0
 40
1.0
 10
9.27686131423531
 20
-18.9694300960726
 30
0.0
 10
9.19545580687112
 20
-18.4710817940106
 30
0.0
 10
9.09026880150351
 20
-18.1943978796897
 30
0.0
 10
9.05167500778319
 20
-18.1039295520509
 30
0.0
  0
LINE
  5
96
330
0
100
AcDbEntity
  8
1
100
AcDbLine
 10
9.05167500778319
 20
-18.1039295520509
 30
0.0
 11
8.47022153343634
 21
-16.9409853756063
 31
0.0
  0
ARC
  5
97
330
0
100
AcDbEntity
  8
1
100
AcDbCircle
 10
-0.000000827430945
 20
0.000001253165991
 30
0.0
 40
18.940477681378
100
AcDbArc
 50
296.564318063111
 51
303.435682480378
  0
LINE
  5
98
330
0
100
AcDbEntity
  8
1
100
AcDbLine
 10
10.4362129336976
 20
-15.805919711441
 30
0.0
 11
11.1526253965083
 21
-16.8909452795664
 31
0.0
  0
SPLINE
  5
99
330
0
100
AcDbEntity
  8
1
100
AcDbSpline
 70
     8
 71
     3
 72
     8
 73
     4
 74
     0
 40
0.0
 40
0.0
 40
0.0
 40
0.0
 40
1.0
 40
1.0
 40
1.0
 40
1.0
 10
11.1526253965083
 20
-16.8909452795664
 30
0.0
 10
11.2116763696213
 20
-16.969602649176
 30
0.0
 10
11.3986981655579
 20
-17.1990392251328
 30
0.0
 10
11.7895777013943
 20
-17.5187126135492
 30
0.0
  0
SPLINE
  5
9A
330
0
100
AcDbEntity
  8
1
100
AcDbSpline
 70
     8
 71
     3
 72
     8
 73
     4
 74
     0
 40
0.0
 40
0.0
 40
0.0
 40
0.0
 40
1.0
 40
1.0
 40
1.0
 40
1.0
 10
11.7895777013943
 20
-17.5187126135492
 30
0.0
 10
12.2587788388186
 20
-17.9000739346814
 30
0.0
 10
13.0046166806252
 20
-18.3934174632212
 30
0.0
 10
14.116024869007
 20
-18.8502586420397
 30
0.0
  0
ARC
  5
9B
330
0
100
AcDbEntity
  8
1
100
AcDbCircle
 10
0.0
 20
0.0
 30
0.0
 40
23.5498282153865
100
AcDbArc
 50
306.827721582592
 51
310.315135560265
  0
SPLINE
  5
9C
330
0
100
AcDbEntity
  8
1
100
AcDbSpline
 70
     8
 71
     3
 72
     8
 73
     4
 74
     0
 40
0.0
 40
0.0
 40
0.0
 40
0.0
 40
1.0
 40
1.0
 40
1.0
 40
1.0
 10
15.2365322643691
 20
-17.9566838121924
 30
0.0
 10
15.0384566357904
 20
-16.7714842217312
 30
0.0
 10
14.7234467926614
 20
-15.9345668290605
 30
0.0
 10
14.4560540713761
 20
-15.392268666405
 30
0.0
  0
SPLINE
  5
9D
330
0
100
AcDbEntity
  8
1
100
AcDbSpline
 70
     8
 71
     3
 72
     8
 73
     4
 74
     0
 40
0.0
 40
0.0
 40
0.0
 40
0.0
 40
1.0
 40
1.0
 40
1.0
 40
1.0
 10
14.4560540713761
 20
-15.392268666405
 30
0.0
 10
14.231374441606
 20
-14.940055275666
 30
0.0
 10
14.0493065843323
 20
-14.7066680654553
 30
0.0
 10
13.9857613968892
 20
-14.631594712178
 30
0.0
  0
LINE
  5
9E
330
0
100
AcDbEntity
  8
1
100
AcDbLine
 10
13.9857613968892
 20
-14.631594712178
 30
0.0
 11
13.0873564554154
 21
-13.6917033027631
 31
0.0
  0
ARC
  5
9F
330
0
100
AcDbEntity
  8
1
100
AcDbCircle
 10
-0.000001160047676
 20
0.000000953601793
 30
0.0
 40
18.940477681378
100
AcDbArc
 50
313.707175205968
 51
320.578539623235
  0
LINE
  5
A0
330
0
100
AcDbEntity
  8
1
100
AcDbLine
 10
14.6314378961055
 20
-12.0275792832308
 30
0.0
 11
15.6358390638669
 21
-12.8532339292881
 31
0.0
  0
SPLINE
  5
A1
330
0
100
AcDbEntity
  8
1
100
AcDbSpline
 70
     8
 71
     3
 72
     8
 73
     4
 74
     0
 40
0.0
 40
0.0
 40
0.0
 40
0.0
 40
1.0
 40
1.0
 40
1.0
 40
1.0
 10
15.6358390638669
 20
-12.8532339292881
 30
0.0
 10
15.7154512346268
 20
-12.9109911927827
 30
0.0
 10
15.9617917948755
 20
-13.0751089033398
 30
0.0
 10
16.4295310350163
 20
-13.2653663342848
 30
0.0
  0
SPLINE
  5
A2
330
0
100
AcDbEntity
  8
1
100
AcDbSpline
 70
     8
 71
     3
 72
     8
 73
     4
 74
     0
 40
0.0
 40
0.0
 40
0.0
 40
0.0
 40
1.0
 40
1.0
 40
1.0
 40
1.0
 10
16.4295310350163
 20
-13.2653663342848
 30
0.0
 10
16.9902951051068
 20
-13.4914853788421
 30
0.0
 10
17.8484130220626
 20
-13.7430714754815
 30
0.0
 10
19.045100764349
 20
-13.8520231681155
 30
0.0
  0
ARC
  5
A3
330
0
100
AcDbEntity
  8
1
100
AcDbCircle
 10
0.0
 20
0.0
 30
0.0
 40
23.5498282153865
100
AcDbArc
 50
323.97057872545
 51
327.457992703122
  0
SPLINE
  5
A4
330
0
100
AcDbEntity
  8
1
100
AcDbSpline
 70
     8
 71
     3
 72
     8
 73
     4
 74
     0
 40
0.0
 40
0.0
 40
0.0
 40
0.0
 40
1.0
 40
1.0
 40
1.0
 40
1.0
 10
19.8524413552185
 20
-12.6678720080298
 30
0.0
 10
19.3138219590616
 20
-11.5937113264044
 30
0.0
 10
18.7661213873683
 20
-10.8868266065315
 30
0.0
 10
18.3507629849267
 20
-10.4474366178688
 30
0.0
  0
SPLINE
  5
A5
330
0
100
AcDbEntity
  8
1
100
AcDbSpline
 70
     8
 71
     3
 72
     8
 73
     4
 74
     0
 40
0.0
 40
0.0
 40
0.0
 40
0.0
 40
1.0
 40
1.0
 40
1.0
 40
1.0
 10
18.3507629849267
 20
-10.4474366178688
 30
0.0
 10
18.0027730038461
 20
-10.0815392827257
 30
0.0
 10
17.7600018227766
 20
-9.91218625445547
 30
0.0
 10
17.6771515103785
 20
-9.85917847243219
 30
0.0
  0
LINE
  5
A6
330
0
100
AcDbEntity
  8
1
100
AcDbLine
 10
17.6771515103785
 20
-9.85917847243219
 30
0.0
 11
16.5416223234129
 21
-9.22585330641904
 31
0.0
  0
ARC
  5
A7
330
0
100
AcDbEntity
  8
1
100
AcDbCircle
 10
-0.000001389589068
 20
0.000000569305885
 30
0.0
 40
18.940477681378
100
AcDbArc
 50
330.850032348825
 51
337.721396766092
  0
LINE
  5
A8
330
0
100
AcDbEntity
  8
1
100
AcDbLine
 10
17.5265953924369
 20
-7.18053565354318
 30
0.0
 11
18.7297398136513
 21
-7.67345633890455
 31
0.0
  0
SPLINE
  5
A9
330
0
100
AcDbEntity
  8
1
100
AcDbSpline
 70
     8
 71
     3
 72
     8
 73
     4
 74
     0
 40
0.0
 40
0.0
 40
0.0
 40
0.0
 40
1.0
 40
1.0
 40
1.0
 40
1.0
 10
18.7297398136513
 20
-7.67345633890455
 30
0.0
 10
18.8228392913139
 20
-7.70518150995903
 30
0.0
 10
19.1066101760489
 20
-7.78939777631468
 30
0.0
 10
19.6096484363677
 20
-7.83333404211798
 30
0.0
  0
SPLINE
  5
AA
330
0
100
AcDbEntity
  8
1
100
AcDbSpline
 70
     8
 71
     3
 72
     8
 73
     4
 74
     0
 40
0.0
 40
0.0
 40
0.0
 40
0.0
 40
1.0
 40
1.0
 40
1.0
 40
1.0
 10
19.6096484363677
 20
-7.83333404211798
 30
0.0
 10
20.2121490906242
 20
-7.88411914068439
 30
0.0
 10
21.1062995400193
 20
-7.87159327666941
 30
0.0
 10
22.2819358787305
 20
-7.62297464710177
 30
0.0
  0
ARC
  5
AB
330
0
100
AcDbEntity
  8
1
100
AcDbCircle
 10
0.0
 20
0.0
 30
0.0
 40
23.5498282153865
100
AcDbArc
 50
341.113435868307
 51
344.600849845979
  0
SPLINE
  5
AC
330
0
100
AcDbEntity
  8
1
100
AcDbSpline
 70
     8
 71
     3
 72
     8
 73
     4
 74
     0
 40
0.0
 40
0.0
 40
0.0
 40
0.0
 40
1.0
 40
1.0
 40
1.0
 40
1.0
 10
22.7043739106528
 20
-6.25346418391304
 30
0.0
 10
21.8730694439584
 20
-5.38578630156246
 30
0.0
 10
21.1413437430403
 20
-4.87174406396061
 30
0.0
 10
20.6149260762696
 20
-4.57430397801449
 30
0.0
  0
SPLINE
  5
AD
330
0
100
AcDbEntity
  8
1
100
AcDbSpline
 70
     8
 71
     3
 72
     8
 73
     4
 74
     0
 40
0.0
 40
0.0
 40
0.0
 40
0.0
 40
1.0
 40
1.0
 40
1.0
 40
1.0
 10
20.6149260762696
 20
-4.57430397801449
 30
0.0
 10
20.1745461808264
 20
-4.32723428240881
 30
0.0
 10
19.892642960783
 20
-4.23696319583432
 30
0.0
 10
19.7978491372691
 20
-4.21073095911873
 30
0.0
  0
LINE
  5
AE
330
0
100
AcDbEntity
  8
1
100
AcDbLine
 10
19.7978491372691
 20
-4.21073095911873
 30
0.0
 11
18.5260924562613
 21
-3.9402457568093
 31
0.0
  0
ARC
  5
AF
330
0
100
AcDbEntity
  8
1
100
AcDbCircle
 10
-0.000001495659166
 20
0.000000134424639
 30
0.0
 40
18.9404776813778
100
AcDbArc
 50
347.992889491682
 51
354.864253908949
  0
ENDSEC
  0
SECTION
  2
OBJECTS
  0
DICTIONARY
  5
C4
330
0
100
AcDbDictionary
  3
ACAD_GROUP
350
C5
  0
DICTIONARY
  5
C5
330
C4
100
AcDbDictionary
  0
ENDSEC
  0
EOF
