  0
SECTION
  2
HEADER
  9
$INSUNITS
 70
     4
  9
$MEASUREMENT
 70
     1
  9
$ACADVER
  1
AC1012
  9
$HANDSEED
  5
156
  0
ENDSEC
  0
SECTION
  2
TABLES
  0
TABLE
  2
LAYER
  5
4
330
0
100
AcDbSymbolTable
 70
     2
  0
LAYER
  5
5
330
4
100
AcDbSymbolTableRecord
100
AcDbLayerTableRecord
  2
1
 70
     0
 62
     7
  6
Continuous
  0
LAYER
  5
145
330
4
100
AcDbSymbolTableRecord
100
AcDbLayerTableRecord
  2
0
 70
     0
  6
Continuous
  0
ENDTAB
  0
TABLE
  2
LTYPE
  5
6
330
0
100
AcDbSymbolTable
 70
     3
  0
LTYPE
  5
7
330
6
100
AcDbSymbolTableRecord
100
AcDbLinetypeTableRecord
  2
Continuous
 70
     0
  3
_
 72
    65
 73
     0
 40
0.0
  0
LTYPE
  5
143
330
6
100
AcDbSymbolTableRecord
100
AcDbLinetypeTableRecord
  2
BYBLOCK
 70
     0
  3
 
 72
    65
 73
     0
 40
0.0
  0
LTYPE
  5
144
330
6
100
AcDbSymbolTableRecord
100
AcDbLinetypeTableRecord
  2
BYLAYER
 70
     0
  3
 
 72
    65
 73
     0
 40
0.0
  0
ENDTAB
  0
TABLE
  2
VPORT
  5
140
330
0
100
AcDbSymbolTable
 70
     0
  0
ENDTAB
  0
TABLE
  2
VIEW
  5
141
330
0
100
AcDbSymbolTable
 70
     0
  0
ENDTAB
  0
TABLE
  2
UCS
  5
142
330
0
100
AcDbSymbolTable
 70
     0
  0
ENDTAB
  0
TABLE
  2
STYLE
  5
146
330
0
100
AcDbSymbolTable
 70
     1
  0
STYLE
  5
147
330
146
100
AcDbSymbolTableRecord
100
AcDbTextStyleTableRecord
  2
STANDARD
 70
     0
 40
0.0
 41
1.0
 50
0.0
 71
     0
 42
1.0
  0
ENDTAB
  0
TABLE
  2
APPID
  5
148
330
0
100
AcDbSymbolTable
 70
     1
  0
APPID
  5
149
330
148
100
AcDbSymbolTableRecord
100
AcDbRegAppTableRecord
  2
ACAD
 70
     0
  0
ENDTAB
  0
TABLE
  2
DIMSTYLE
  5
14A
330
0
100
AcDbSymbolTable
 70
     0
  0
ENDTAB
  0
TABLE
  2
BLOCK_RECORD
  5
14B
330
0
100
AcDbSymbolTable
 70
     2
  0
BLOCK_RECORD
  5
14C
330
14B
100
AcDbSymbolTableRecord
100
AcDbBlockTableRecord
  2
*MODEL_SPACE
  0
BLOCK_RECORD
  5
14D
330
14B
100
AcDbSymbolTableRecord
100
AcDbBlockTableRecord
  2
*PAPER_SPACE
  0
ENDTAB
  0
ENDSEC
  0
SECTION
  2
BLOCKS
  0
BLOCK
  5
14F
330
14C
100
AcDbEntity
  8
0
100
AcDbBlockBegin
  2
*MODEL_SPACE
 70
     0
 10
0.0
 20
0.0
 30
0.0
  0
ENDBLK
  5
150
330
14C
100
AcDbEntity
  8
0
100
AcDbBlockEnd
  0
BLOCK
  5
151
330
14D
100
AcDbEntity
  8
0
100
AcDbBlockBegin
  2
*PAPER_SPACE
 70
     0
 10
0.0
 20
0.0
 30
0.0
  0
ENDBLK
  5
152
330
14D
100
AcDbEntity
  8
0
100
AcDbBlockEnd
  0
ENDSEC
  0
SECTION
  2
ENTITIES
  0
LINE
  5
8
330
0
100
AcDbEntity
  8
1
100
AcDbLine
 10
36.4445280696392
 20
-2.01156003670825
 30
0.0
 11
36.6393127790988
 21
-2.02231120178198
 31
0.0
  0
SPLINE
  5
9
330
0
100
AcDbEntity
  8
1
100
AcDbSpline
 70
     8
 71
     3
 72
     8
 73
     4
 74
     0
 40
0.0
 40
0.0
 40
0.0
 40
0.0
 40
1.0
 40
1.0
 40
1.0
 40
1.0
 10
36.6393127790988
 20
-2.02231120178198
 30
0.0
 10
36.764542731412
 20
-2.02289494195286
 30
0.0
 10
37.1423004988628
 20
-2.01199431796254
 30
0.0
 10
37.7704985921452
 20
-1.88585886867559
 30
0.0
  0
SPLINE
  5
A
330
0
100
AcDbEntity
  8
1
100
AcDbSpline
 70
     8
 71
     3
 72
     8
 73
     4
 74
     0
 40
0.0
 40
0.0
 40
0.0
 40
0.0
 40
1.0
 40
1.0
 40
1.0
 40
1.0
 10
37.7704985921452
 20
-1.88585886867559
 30
0.0
 10
38.5245333356783
 20
-1.73305166626092
 30
0.0
 10
39.6187177870863
 20
-1.41554104081163
 30
0.0
 10
40.9950019062031
 20
-0.758182976664807
 30
0.0
  0
ARC
  5
B
330
0
100
AcDbEntity
  8
1
100
AcDbCircle
 10
0.0
 20
0.0
 30
0.0
 40
41.0020124227543
100
AcDbArc
 50
358.940462721446
 51
1.05953727855441
  0
SPLINE
  5
C
330
0
100
AcDbEntity
  8
1
100
AcDbSpline
 70
     8
 71
     3
 72
     8
 73
     4
 74
     0
 40
0.0
 40
0.0
 40
0.0
 40
0.0
 40
1.0
 40
1.0
 40
1.0
 40
1.0
 10
40.9950019062031
 20
0.758182976664807
 30
0.0
 10
39.6187177870863
 20
1.41554104081163
 30
0.0
 10
38.5245333356783
 20
1.73305166626092
 30
0.0
 10
37.7704985921452
 20
1.88585886867559
 30
0.0
  0
SPLINE
  5
D
330
0
100
AcDbEntity
  8
1
100
AcDbSpline
 70
     8
 71
     3
 72
     8
 73
     4
 74
     0
 40
0.0
 40
0.0
 40
0.0
 40
0.0
 40
1.0
 40
1.0
 40
1.0
 40
1.0
 10
37.7704985921452
 20
1.88585886867559
 30
0.0
 10
37.1423004988628
 20
2.01199431796254
 30
0.0
 10
36.764542731412
 20
2.02289494195286
 30
0.0
 10
36.6393127790988
 20
2.02231120178198
 30
0.0
  0
LINE
  5
E
330
0
100
AcDbEntity
  8
1
100
AcDbLine
 10
36.6393127790988
 20
2.02231120178198
 30
0.0
 11
36.4445280696392
 21
2.01156003670825
 31
0.0
  0
ARC
  5
F
330
0
100
AcDbEntity
  8
1
100
AcDbCircle
 10
-0.000000914217175
 20
-0.000000097242153
 30
0.0
 40
36.5000009181869
100
AcDbArc
 50
3.1592417904076
 51
6.07152751368567
  0
LINE
  5
10
330
0
100
AcDbEntity
  8
1
100
AcDbLine
 10
36.2952579248628
 20
3.86060256536261
 30
0.0
 11
36.489244831653
 21
3.88123628978885
 31
0.0
  0
SPLINE
  5
11
330
0
100
AcDbEntity
  8
1
100
AcDbSpline
 70
     8
 71
     3
 72
     8
 73
     4
 74
     0
 40
0.0
 40
0.0
 40
0.0
 40
0.0
 40
1.0
 40
1.0
 40
1.0
 40
1.0
 10
36.489244831653
 20
3.88123628978885
 30
0.0
 10
36.6129467274823
 20
3.90074840595218
 30
0.0
 10
36.9840640480017
 20
3.97210447705549
 30
0.0
 10
37.583893591983
 20
4.19737656617795
 30
0.0
  0
SPLINE
  5
12
330
0
100
AcDbEntity
  8
1
100
AcDbSpline
 70
     8
 71
     3
 72
     8
 73
     4
 74
     0
 40
0.0
 40
0.0
 40
0.0
 40
0.0
 40
1.0
 40
1.0
 40
1.0
 40
1.0
 10
37.583893591983
 20
4.19737656617795
 30
0.0
 10
38.3036517845619
 20
4.46916063447572
 30
0.0
 10
39.3327345485842
 20
4.95807911006076
 30
0.0
 10
40.5857485007708
 20
5.82769605829576
 30
0.0
  0
ARC
  5
13
330
0
100
AcDbEntity
  8
1
100
AcDbCircle
 10
0.0
 20
0.0
 30
0.0
 40
41.0020124227543
100
AcDbArc
 50
8.17123195221482
 51
10.2903065093236
  0
SPLINE
  5
14
330
0
100
AcDbEntity
  8
1
100
AcDbSpline
 70
     8
 71
     3
 72
     8
 73
     4
 74
     0
 40
0.0
 40
0.0
 40
0.0
 40
0.0
 40
1.0
 40
1.0
 40
1.0
 40
1.0
 10
40.3425062959481
 20
7.32442547078495
 30
0.0
 10
38.8785970456575
 20
7.7524994222765
 30
0.0
 10
37.7476497094067
 20
7.89037883917156
 30
0.0
 10
36.9788675187006
 20
7.92025154942652
 30
0.0
  0
SPLINE
  5
15
330
0
100
AcDbEntity
  8
1
100
AcDbSpline
 70
     8
 71
     3
 72
     8
 73
     4
 74
     0
 40
0.0
 40
0.0
 40
0.0
 40
0.0
 40
1.0
 40
1.0
 40
1.0
 40
1.0
 10
36.9788675187006
 20
7.92025154942652
 30
0.0
 10
36.3385708767559
 20
7.94398351699733
 30
0.0
 10
35.9639563901236
 20
7.89414637343913
 30
0.0
 10
35.8404417713113
 20
7.87348189549785
 30
0.0
  0
LINE
  5
16
330
0
100
AcDbEntity
  8
1
100
AcDbLine
 10
35.8404417713113
 20
7.87348189549785
 30
0.0
 11
35.6499040808415
 21
7.83162429045223
 31
0.0
  0
ARC
  5
17
330
0
100
AcDbEntity
  8
1
100
AcDbCircle
 10
-0.000000886779546
 20
-0.000000242633635
 30
0.0
 40
36.5000009181869
100
AcDbArc
 50
12.3900110211768
 51
15.3022967444549
  0
LINE
  5
18
330
0
100
AcDbEntity
  8
1
100
AcDbLine
 10
35.205959664854
 20
9.63277758887178
 30
0.0
 11
35.3941246099855
 21
9.68426180017375
 31
0.0
  0
SPLINE
  5
19
330
0
100
AcDbEntity
  8
1
100
AcDbSpline
 70
     8
 71
     3
 72
     8
 73
     4
 74
     0
 40
0.0
 40
0.0
 40
0.0
 40
0.0
 40
1.0
 40
1.0
 40
1.0
 40
1.0
 10
35.3941246099855
 20
9.68426180017375
 30
0.0
 10
35.5130946352067
 20
9.7233644191119
 30
0.0
 10
35.8679597651322
 20
9.85332785256825
 30
0.0
 10
36.4238854896992
 20
10.1719021527479
 30
0.0
  0
SPLINE
  5
1A
330
0
100
AcDbEntity
  8
1
100
AcDbSpline
 70
     8
 71
     3
 72
     8
 73
     4
 74
     0
 40
0.0
 40
0.0
 40
0.0
 40
0.0
 40
1.0
 40
1.0
 40
1.0
 40
1.0
 10
36.4238854896992
 20
10.1719021527479
 30
0.0
 10
37.0907257722077
 20
10.5556240223215
 30
0.0
 10
38.0280541458083
 20
11.2032876163417
 30
0.0
 10
39.1253455278812
 20
12.2626408264943
 30
0.0
  0
ARC
  5
1B
330
0
100
AcDbEntity
  8
1
100
AcDbCircle
 10
0.0
 20
0.0
 30
0.0
 40
41.0020124227543
100
AcDbArc
 50
17.4020011829841
 51
19.5210757400929
  0
SPLINE
  5
1C
330
0
100
AcDbEntity
  8
1
100
AcDbSpline
 70
     8
 71
     3
 72
     8
 73
     4
 74
     0
 40
0.0
 40
0.0
 40
0.0
 40
0.0
 40
1.0
 40
1.0
 40
1.0
 40
1.0
 10
38.6451609635714
 20
13.7009691925554
 30
0.0
 10
37.1315410627334
 20
13.8886721409049
 30
0.0
 10
35.9931217835894
 20
13.8433493447729
 30
0.0
 10
35.2295032006268
 20
13.749513875364
 30
0.0
  0
SPLINE
  5
1D
330
0
100
AcDbEntity
  8
1
100
AcDbSpline
 70
     8
 71
     3
 72
     8
 73
     4
 74
     0
 40
0.0
 40
0.0
 40
0.0
 40
0.0
 40
1.0
 40
1.0
 40
1.0
 40
1.0
 10
35.2295032006268
 20
13.749513875364
 30
0.0
 10
34.5936913567139
 20
13.6702277157244
 30
0.0
 10
34.2319224693279
 20
13.5609435604576
 30
0.0
 10
34.1133221477644
 20
13.52073354387
 30
0.0
  0
LINE
  5
1E
330
0
100
AcDbEntity
  8
1
100
AcDbLine
 10
34.1133221477644
 20
13.52073354387
 30
0.0
 11
33.9319663023828
 21
13.4488535888364
 31
0.0
  0
ARC
  5
1F
330
0
100
AcDbEntity
  8
1
100
AcDbCircle
 10
-0.000000836374785
 20
-0.000000381741022
 30
0.0
 40
36.5000009181868
100
AcDbArc
 50
21.6207802519461
 51
24.5330659752241
  0
LINE
  5
20
330
0
100
AcDbEntity
  8
1
100
AcDbLine
 10
33.2048455423651
 20
15.1554687326944
 30
0.0
 11
33.3823151525975
 21
15.2364700168428
 31
0.0
  0
SPLINE
  5
21
330
0
100
AcDbEntity
  8
1
100
AcDbSpline
 70
     8
 71
     3
 72
     8
 73
     4
 74
     0
 40
0.0
 40
0.0
 40
0.0
 40
0.0
 40
1.0
 40
1.0
 40
1.0
 40
1.0
 10
33.3823151525975
 20
15.2364700168428
 30
0.0
 10
33.4934720460493
 20
15.2941504012649
 30
0.0
 10
33.8228941649179
 20
15.4793552124144
 30
0.0
 10
34.3205178858188
 20
15.882980816616
 30
0.0
  0
SPLINE
  5
22
330
0
100
AcDbEntity
  8
1
100
AcDbSpline
 70
     8
 71
     3
 72
     8
 73
     4
 74
     0
 40
0.0
 40
0.0
 40
0.0
 40
0.0
 40
1.0
 40
1.0
 40
1.0
 40
1.0
 10
34.3205178858188
 20
15.882980816616
 30
0.0
 10
34.9171694452148
 20
16.3687022926033
 30
0.0
 10
35.7384671158736
 20
17.1583368581755
 30
0.0
 10
36.6516166574176
 20
18.3799896385555
 30
0.0
  0
ARC
  5
23
330
0
100
AcDbEntity
  8
1
100
AcDbCircle
 10
0.0
 20
0.0
 30
0.0
 40
41.0020124227543
100
AcDbArc
 50
26.6327704137533
 51
28.7518449708621
  0
SPLINE
  5
24
330
0
100
AcDbEntity
  8
1
100
AcDbSpline
 70
     8
 71
     3
 72
     8
 73
     4
 74
     0
 40
0.0
 40
0.0
 40
0.0
 40
0.0
 40
1.0
 40
1.0
 40
1.0
 40
1.0
 10
35.9469262616071
 20
19.7226650090266
 30
0.0
 10
34.4227976705854
 20
19.6651355464677
 30
0.0
 10
33.3063909098938
 20
19.4377843739214
 30
0.0
 10
32.5677132548632
 20
19.2226710142167
 30
0.0
  0
SPLINE
  5
25
330
0
100
AcDbEntity
  8
1
100
AcDbSpline
 70
     8
 71
     3
 72
     8
 73
     4
 74
     0
 40
0.0
 40
0.0
 40
0.0
 40
0.0
 40
1.0
 40
1.0
 40
1.0
 40
1.0
 10
32.5677132548632
 20
19.2226710142167
 30
0.0
 10
31.9528534017627
 20
19.0424201972543
 30
0.0
 10
31.613299737778
 20
18.876519432496
 30
0.0
 10
31.502685399494
 20
18.8178052955704
 30
0.0
  0
LINE
  5
26
330
0
100
AcDbEntity
  8
1
100
AcDbLine
 10
31.502685399494
 20
18.8178052955704
 30
0.0
 11
31.335208420334
 21
18.7177646436274
 31
0.0
  0
ARC
  5
27
330
0
100
AcDbEntity
  8
1
100
AcDbCircle
 10
-0.000000764308405
 20
-0.000000510961542
 30
0.0
 40
36.5000009181869
100
AcDbArc
 50
30.8515494827153
 51
33.7638352059934
  0
LINE
  5
28
330
0
100
AcDbEntity
  8
1
100
AcDbLine
 10
30.3437433620316
 20
20.2856411971415
 30
0.0
 11
30.5059212676803
 21
20.3940616634249
 31
0.0
  0
SPLINE
  5
29
330
0
100
AcDbEntity
  8
1
100
AcDbSpline
 70
     8
 71
     3
 72
     8
 73
     4
 74
     0
 40
0.0
 40
0.0
 40
0.0
 40
0.0
 40
1.0
 40
1.0
 40
1.0
 40
1.0
 10
30.5059212676803
 20
20.3940616634249
 30
0.0
 10
30.6063861242104
 20
20.4688259216726
 30
0.0
 10
30.9018333721809
 20
20.7044754031901
 30
0.0
 10
31.328266896434
 20
21.1826986202797
 30
0.0
  0
SPLINE
  5
2A
330
0
100
AcDbEntity
  8
1
100
AcDbSpline
 70
     8
 71
     3
 72
     8
 73
     4
 74
     0
 40
0.0
 40
0.0
 40
0.0
 40
0.0
 40
1.0
 40
1.0
 40
1.0
 40
1.0
 10
31.328266896434
 20
21.1826986202797
 30
0.0
 10
31.839276770736
 20
21.7578397715902
 30
0.0
 10
32.5232725601906
 20
22.6689941882422
 30
0.0
 10
33.2286301677351
 20
24.0213063735423
 30
0.0
  0
ARC
  5
2B
330
0
100
AcDbEntity
  8
1
100
AcDbCircle
 10
0.0
 20
0.0
 30
0.0
 40
41.0020124227543
100
AcDbArc
 50
35.8635396445225
 51
37.9826142016313
  0
SPLINE
  5
2C
330
0
100
AcDbEntity
  8
1
100
AcDbSpline
 70
     8
 71
     3
 72
     8
 73
     4
 74
     0
 40
0.0
 40
0.0
 40
0.0
 40
0.0
 40
1.0
 40
1.0
 40
1.0
 40
1.0
 10
32.3176850515185
 20
25.2335541616031
 30
0.0
 10
30.8225219002327
 20
24.9322822709972
 30
0.0
 10
29.757042006674
 20
24.5287909979836
 30
0.0
 10
29.0624366428311
 20
24.1979710710057
 30
0.0
  0
SPLINE
  5
2D
330
0
100
AcDbEntity
  8
1
100
AcDbSpline
 70
     8
 71
     3
 72
     8
 73
     4
 74
     0
 40
0.0
 40
0.0
 40
0.0
 40
0.0
 40
1.0
 40
1.0
 40
1.0
 40
1.0
 10
29.0624366428311
 20
24.1979710710057
 30
0.0
 10
28.4844533277674
 20
23.9214239981984
 30
0.0
 10
28.1759091487218
 20
23.7032033666121
 30
0.0
 10
28.0761456469757
 20
23.6275057746538
 30
0.0
  0
LINE
  5
2E
330
0
100
AcDbEntity
  8
1
100
AcDbLine
 10
28.0761456469757
 20
23.6275057746538
 30
0.0
 11
27.9268850998261
 21
23.5018954261377
 31
0.0
  0
ARC
  5
2F
330
0
100
AcDbEntity
  8
1
100
AcDbCircle
 10
-0.000000672446756
 20
-0.00000062694836
 30
0.0
 40
36.5000009181868
100
AcDbArc
 50
40.0823187134845
 51
42.9946044367626
  0
LINE
  5
30
330
0
100
AcDbEntity
  8
1
100
AcDbLine
 10
26.6967541674563
 20
24.8904262101396
 30
0.0
 11
26.8394400459532
 21
25.0234578254319
 31
0.0
  0
SPLINE
  5
31
330
0
100
AcDbEntity
  8
1
100
AcDbSpline
 70
     8
 71
     3
 72
     8
 73
     4
 74
     0
 40
0.0
 40
0.0
 40
0.0
 40
0.0
 40
1.0
 40
1.0
 40
1.0
 40
1.0
 10
26.8394400459532
 20
25.0234578254319
 30
0.0
 10
26.9266108785492
 20
25.1133696024884
 30
0.0
 10
27.1804313270905
 20
25.3933605565837
 30
0.0
 10
27.5246302504129
 20
25.9337956564375
 30
0.0
  0
SPLINE
  5
32
330
0
100
AcDbEntity
  8
1
100
AcDbSpline
 70
     8
 71
     3
 72
     8
 73
     4
 74
     0
 40
0.0
 40
0.0
 40
0.0
 40
0.0
 40
1.0
 40
1.0
 40
1.0
 40
1.0
 10
27.5246302504129
 20
25.9337956564375
 30
0.0
 10
27.9367635522974
 20
26.5834606293602
 30
0.0
 10
28.4657423288876
 20
27.592536476308
 30
0.0
 10
28.9450396109044
 20
29.0404838912659
 30
0.0
  0
ARC
  5
33
330
0
100
AcDbEntity
  8
1
100
AcDbCircle
 10
0.0
 20
0.0
 30
0.0
 40
41.0020124227543
100
AcDbArc
 50
45.0943088752917
 51
47.2133834324005
  0
SPLINE
  5
34
330
0
100
AcDbEntity
  8
1
100
AcDbSpline
 70
     8
 71
     3
 72
     8
 73
     4
 74
     0
 40
0.0
 40
0.0
 40
0.0
 40
0.0
 40
1.0
 40
1.0
 40
1.0
 40
1.0
 10
27.8514327742942
 20
30.0909075159701
 30
0.0
 10
26.4239590029896
 20
29.5536959810331
 30
0.0
 10
25.4370013461361
 20
28.9845148195789
 30
0.0
 10
24.8044581875451
 20
28.5465563876648
 30
0.0
  0
SPLINE
  5
35
330
0
100
AcDbEntity
  8
1
100
AcDbSpline
 70
     8
 71
     3
 72
     8
 73
     4
 74
     0
 40
0.0
 40
0.0
 40
0.0
 40
0.0
 40
1.0
 40
1.0
 40
1.0
 40
1.0
 10
24.8044581875451
 20
28.5465563876648
 30
0.0
 10
24.2783208747776
 20
28.1808754829348
 30
0.0
 10
24.0087773128376
 20
27.9159867842527
 30
0.0
 10
23.9224484699213
 20
27.8252662651312
 30
0.0
  0
LINE
  5
36
330
0
100
AcDbEntity
  8
1
100
AcDbLine
 10
23.9224484699213
 20
27.8252662651312
 30
0.0
 11
23.7952701245503
 21
27.6773394620886
 31
0.0
  0
ARC
  5
37
330
0
100
AcDbEntity
  8
1
100
AcDbCircle
 10
-0.000000563169246
 20
-0.000000726697705
 30
0.0
 40
36.5000009181869
100
AcDbArc
 50
49.3130879442537
 51
52.2253736675318
  0
LINE
  5
38
330
0
100
AcDbEntity
  8
1
100
AcDbLine
 10
22.3583330631034
 20
28.8505622586343
 30
0.0
 11
22.477831425145
 21
29.0047595739777
 31
0.0
  0
SPLINE
  5
39
330
0
100
AcDbEntity
  8
1
100
AcDbSpline
 70
     8
 71
     3
 72
     8
 73
     4
 74
     0
 40
0.0
 40
0.0
 40
0.0
 40
0.0
 40
1.0
 40
1.0
 40
1.0
 40
1.0
 10
22.477831425145
 20
29.0047595739777
 30
0.0
 10
22.5494505550314
 20
29.1074902020458
 30
0.0
 10
22.7550703878519
 20
29.4245710100801
 30
0.0
 10
23.0081201389289
 20
30.0132210074896
 30
0.0
  0
SPLINE
  5
3A
330
0
100
AcDbEntity
  8
1
100
AcDbSpline
 70
     8
 71
     3
 72
     8
 73
     4
 74
     0
 40
0.0
 40
0.0
 40
0.0
 40
0.0
 40
1.0
 40
1.0
 40
1.0
 40
1.0
 10
23.0081201389289
 20
30.0132210074896
 30
0.0
 10
23.3107028323609
 20
30.7205838204791
 30
0.0
 10
23.6709643236326
 20
31.8014465633298
 30
0.0
 10
23.9117877322809
 20
33.3075281304698
 30
0.0
  0
ARC
  5
3B
330
0
100
AcDbEntity
  8
1
100
AcDbCircle
 10
0.0
 20
0.0
 30
0.0
 40
41.0020124227543
100
AcDbArc
 50
54.325078106061
 51
56.4441526631698
  0
SPLINE
  5
3C
330
0
100
AcDbEntity
  8
1
100
AcDbSpline
 70
     8
 71
     3
 72
     8
 73
     4
 74
     0
 40
0.0
 40
0.0
 40
0.0
 40
0.0
 40
1.0
 40
1.0
 40
1.0
 40
1.0
 10
22.6638430179001
 20
34.1689221716998
 30
0.0
 10
21.341029447436
 20
33.4096844890022
 30
0.0
 10
20.4581557121752
 20
32.6895549322121
 30
0.0
 10
19.9040572943839
 20
32.1558008886994
 30
0.0
  0
SPLINE
  5
3D
330
0
100
AcDbEntity
  8
1
100
AcDbSpline
 70
     8
 71
     3
 72
     8
 73
     4
 74
     0
 40
0.0
 40
0.0
 40
0.0
 40
0.0
 40
1.0
 40
1.0
 40
1.0
 40
1.0
 10
19.9040572943839
 20
32.1558008886994
 30
0.0
 10
19.4433926639461
 20
31.7104570953959
 30
0.0
 10
19.2198307557812
 20
31.4057608077741
 30
0.0
 10
19.1491724433798
 20
31.3023669752815
 30
0.0
  0
LINE
  5
3E
330
0
100
AcDbEntity
  8
1
100
AcDbLine
 10
19.1491724433798
 20
31.3023669752815
 30
0.0
 11
19.0473701521287
 21
31.1359549442087
 31
0.0
  0
ARC
  5
3F
330
0
100
AcDbEntity
  8
1
100
AcDbCircle
 10
-0.000000439305778
 20
-0.000000807625739
 30
0.0
 40
36.5000009181868
100
AcDbArc
 50
58.543857175023
 51
61.456142898301
  0
LINE
  5
40
330
0
100
AcDbEntity
  8
1
100
AcDbLine
 10
17.4408428767081
 20
32.0634838991333
 30
0.0
 11
17.5340587774869
 21
32.2348532850566
 31
0.0
  0
SPLINE
  5
41
330
0
100
AcDbEntity
  8
1
100
AcDbSpline
 70
     8
 71
     3
 72
     8
 73
     4
 74
     0
 40
0.0
 40
0.0
 40
0.0
 40
0.0
 40
1.0
 40
1.0
 40
1.0
 40
1.0
 10
17.5340587774869
 20
32.2348532850566
 30
0.0
 10
17.5882713068195
 20
32.3477420948311
 30
0.0
 10
17.7403650782563
 20
32.6937005304313
 30
0.0
 10
17.895711801456
 20
33.3153196996672
 30
0.0
  0
SPLINE
  5
42
330
0
100
AcDbEntity
  8
1
100
AcDbSpline
 70
     8
 71
     3
 72
     8
 73
     4
 74
     0
 40
0.0
 40
0.0
 40
0.0
 40
0.0
 40
1.0
 40
1.0
 40
1.0
 40
1.0
 10
17.895711801456
 20
33.3153196996672
 30
0.0
 10
18.080907153615
 20
34.0620600274275
 30
0.0
 10
18.2631207761809
 20
35.1867158888925
 30
0.0
 10
18.2592331116753
 20
36.711924886734
 30
0.0
  0
ARC
  5
43
330
0
100
AcDbEntity
  8
1
100
AcDbCircle
 10
0.0
 20
0.0
 30
0.0
 40
41.0020124227543
100
AcDbArc
 50
63.5558473368302
 51
65.674921893939
  0
SPLINE
  5
44
330
0
100
AcDbEntity
  8
1
100
AcDbSpline
 70
     8
 71
     3
 72
     8
 73
     4
 74
     0
 40
0.0
 40
0.0
 40
0.0
 40
0.0
 40
1.0
 40
1.0
 40
1.0
 40
1.0
 10
16.8892716321113
 20
37.3619796912912
 30
0.0
 10
15.7053784391207
 20
36.4003797180058
 30
0.0
 10
14.9494545914436
 20
35.547952743134
 30
0.0
 10
14.4881517724184
 20
34.9322270373816
 30
0.0
  0
SPLINE
  5
45
330
0
100
AcDbEntity
  8
1
100
AcDbSpline
 70
     8
 71
     3
 72
     8
 73
     4
 74
     0
 40
0.0
 40
0.0
 40
0.0
 40
0.0
 40
1.0
 40
1.0
 40
1.0
 40
1.0
 10
14.4881517724184
 20
34.9322270373816
 30
0.0
 10
14.1048907962626
 20
34.4187545258228
 30
0.0
 10
13.9331006778626
 20
34.0821421230612
 30
0.0
 10
13.8799429091522
 20
33.9687528231486
 30
0.0
  0
LINE
  5
46
330
0
100
AcDbEntity
  8
1
100
AcDbLine
 10
13.8799429091522
 20
33.9687528231486
 30
0.0
 11
13.8061532978902
 21
33.7881655482383
 31
0.0
  0
ARC
  5
47
330
0
100
AcDbEntity
  8
1
100
AcDbCircle
 10
-0.000000304064691
 20
-0.000000867637041
 30
0.0
 40
36.5000009181871
100
AcDbArc
 50
67.7746264057922
 51
70.6869121290703
  0
LINE
  5
48
330
0
100
AcDbEntity
  8
1
100
AcDbLine
 10
12.0716440210591
 20
34.4459781488177
 30
0.0
 11
12.1361632177092
 21
34.6300812282416
 31
0.0
  0
SPLINE
  5
49
330
0
100
AcDbEntity
  8
1
100
AcDbSpline
 70
     8
 71
     3
 72
     8
 73
     4
 74
     0
 40
0.0
 40
0.0
 40
0.0
 40
0.0
 40
1.0
 40
1.0
 40
1.0
 40
1.0
 10
12.1361632177092
 20
34.6300812282416
 30
0.0
 10
12.1715650704547
 20
34.7502044588472
 30
0.0
 10
12.2661936317189
 20
35.1160803802548
 30
0.0
 10
12.3198139285101
 20
35.7545691113554
 30
0.0
  0
SPLINE
  5
4A
330
0
100
AcDbEntity
  8
1
100
AcDbSpline
 70
     8
 71
     3
 72
     8
 73
     4
 74
     0
 40
0.0
 40
0.0
 40
0.0
 40
0.0
 40
1.0
 40
1.0
 40
1.0
 40
1.0
 10
12.3198139285101
 20
35.7545691113554
 30
0.0
 10
12.3828254770538
 20
36.5213467716423
 30
0.0
 10
12.3822719938019
 20
37.6606677556641
 30
0.0
 10
12.1337739446111
 20
39.1655020723184
 30
0.0
  0
ARC
  5
4B
330
0
100
AcDbEntity
  8
1
100
AcDbCircle
 10
0.0
 20
0.0
 30
0.0
 40
41.0020124227543
100
AcDbArc
 50
72.7866165675994
 51
74.9056911247082
  0
SPLINE
  5
4C
330
0
100
AcDbEntity
  8
1
100
AcDbSpline
 70
     8
 71
     3
 72
     8
 73
     4
 74
     0
 40
0.0
 40
0.0
 40
0.0
 40
0.0
 40
1.0
 40
1.0
 40
1.0
 40
1.0
 10
10.6772769825768
 20
39.587381562223
 30
0.0
 10
9.6629663788877
 20
38.4483242325526
 30
0.0
 10
9.05357044938073
 20
37.4856772504889
 30
0.0
 10
8.69701072982303
 20
36.8039268548499
 30
0.0
  0
SPLINE
  5
4D
330
0
100
AcDbEntity
  8
1
100
AcDbSpline
 70
     8
 71
     3
 72
     8
 73
     4
 74
     0
 40
0.0
 40
0.0
 40
0.0
 40
0.0
 40
1.0
 40
1.0
 40
1.0
 40
1.0
 10
8.69701072982303
 20
36.8039268548499
 30
0.0
 10
8.40107966591399
 20
36.2356242933705
 30
0.0
 10
8.28551061110829
 20
35.8758138598863
 30
0.0
 10
8.25123014437597
 20
35.7553658158608
 30
0.0
  0
LINE
  5
4E
330
0
100
AcDbEntity
  8
1
100
AcDbLine
 10
8.25123014437597
 20
35.7553658158608
 30
0.0
 11
8.20736432527485
 21
35.565280412675
 31
0.0
  0
ARC
  5
4F
330
0
100
AcDbEntity
  8
1
100
AcDbCircle
 10
-0.000000160948331
 20
-0.000000905176591
 30
0.0
 40
36.5000009181869
100
AcDbArc
 50
77.0053956365614
 51
79.9176813598395
  0
LINE
  5
50
330
0
100
AcDbEntity
  8
1
100
AcDbLine
 10
6.38979592620755
 20
35.9363396580873
 30
0.0
 11
6.4239474054259
 21
36.1284082579597
 31
0.0
  0
SPLINE
  5
51
330
0
100
AcDbEntity
  8
1
100
AcDbSpline
 70
     8
 71
     3
 72
     8
 73
     4
 74
     0
 40
0.0
 40
0.0
 40
0.0
 40
0.0
 40
1.0
 40
1.0
 40
1.0
 40
1.0
 10
6.4239474054259
 20
36.1284082579597
 30
0.0
 10
6.43962169219405
 20
36.2526547808215
 30
0.0
 10
6.47433421325485
 20
36.6289721938579
 30
0.0
 10
6.42483934611632
 20
37.2677939640703
 30
0.0
  0
SPLINE
  5
52
330
0
100
AcDbEntity
  8
1
100
AcDbSpline
 70
     8
 71
     3
 72
     8
 73
     4
 74
     0
 40
0.0
 40
0.0
 40
0.0
 40
0.0
 40
1.0
 40
1.0
 40
1.0
 40
1.0
 10
6.42483934611632
 20
37.2677939640703
 30
0.0
 10
6.36403512503585
 20
38.0347498182521
 30
0.0
 10
6.18072887089162
 20
39.1592281098023
 30
0.0
 10
5.6940564059596
 20
40.6047133269211
 30
0.0
  0
ARC
  5
53
330
0
100
AcDbEntity
  8
1
100
AcDbCircle
 10
0.0
 20
0.0
 30
0.0
 40
41.0020124227543
100
AcDbArc
 50
82.0173857983687
 51
84.1364603554775
  0
SPLINE
  5
54
330
0
100
AcDbEntity
  8
1
100
AcDbSpline
 70
     8
 71
     3
 72
     8
 73
     4
 74
     0
 40
0.0
 40
0.0
 40
0.0
 40
0.0
 40
1.0
 40
1.0
 40
1.0
 40
1.0
 10
4.18874646770914
 20
40.7874910449877
 30
0.0
 10
3.37028856516421
 20
39.5004773454515
 30
0.0
 10
2.92320358830057
 20
38.4525424073762
 30
0.0
 10
2.68062167765477
 20
37.7224242989908
 30
0.0
  0
SPLINE
  5
55
330
0
100
AcDbEntity
  8
1
100
AcDbSpline
 70
     8
 71
     3
 72
     8
 73
     4
 74
     0
 40
0.0
 40
0.0
 40
0.0
 40
0.0
 40
1.0
 40
1.0
 40
1.0
 40
1.0
 10
2.68062167765477
 20
37.7224242989908
 30
0.0
 10
2.47968498510229
 20
37.1140104254175
 30
0.0
 10
2.42333017170471
 20
36.7403208624381
 30
0.0
 10
2.40881485303215
 20
36.6159336153716
 30
0.0
  0
LINE
  5
56
330
0
100
AcDbEntity
  8
1
100
AcDbLine
 10
2.40881485303215
 20
36.6159336153716
 30
0.0
 11
2.39600892776497
 21
36.4212731960055
 31
0.0
  0
ARC
  5
57
330
0
100
AcDbEntity
  8
1
100
AcDbCircle
 10
-0.000000013663553
 20
-0.000000919272544
 30
0.0
 40
36.5000009181867
100
AcDbArc
 50
86.2361648673306
 51
89.1484505906087
  0
LINE
  5
58
330
0
100
AcDbEntity
  8
1
100
AcDbLine
 10
0.54245547327252
 20
36.495968846703
 30
0.0
 11
0.545354729686385
 21
36.6910284911761
 31
0.0
  0
SPLINE
  5
59
330
0
100
AcDbEntity
  8
1
100
AcDbSpline
 70
     8
 71
     3
 72
     8
 73
     4
 74
     0
 40
0.0
 40
0.0
 40
0.0
 40
0.0
 40
1.0
 40
1.0
 40
1.0
 40
1.0
 10
0.545354729686385
 20
36.6910284911761
 30
0.0
 10
0.540895494683169
 20
36.8161803866157
 30
0.0
 10
0.5147929394788
 20
37.1931928679537
 30
0.0
 10
0.363464799470896
 20
37.8158025289871
 30
0.0
  0
SPLINE
  5
5A
330
0
100
AcDbEntity
  8
1
100
AcDbSpline
 70
     8
 71
     3
 72
     8
 73
     4
 74
     0
 40
0.0
 40
0.0
 40
0.0
 40
0.0
 40
1.0
 40
1.0
 40
1.0
 40
1.0
 10
0.363464799470896
 20
37.8158025289871
 30
0.0
 10
0.180419606153258
 20
38.5630728233038
 30
0.0
 10
-0.18089188318729
 20
39.6435850252926
 30
0.0
 10
-0.893134202656057
 20
40.992283835031
 30
0.0
  0
ARC
  5
5B
330
0
100
AcDbEntity
  8
1
100
AcDbCircle
 10
0.0
 20
0.0
 30
0.0
 40
41.0020124227543
100
AcDbArc
 50
91.2481550291379
 51
93.3672295862467
  0
SPLINE
  5
5C
330
0
100
AcDbEntity
  8
1
100
AcDbSpline
 70
     8
 71
     3
 72
     8
 73
     4
 74
     0
 40
0.0
 40
0.0
 40
0.0
 40
0.0
 40
1.0
 40
1.0
 40
1.0
 40
1.0
 10
-2.40827038042495
 20
40.9312259343703
 30
0.0
 10
-3.00967795206593
 20
39.5295888437491
 30
0.0
 10
-3.28287271022839
 20
38.4235069141035
 30
0.0
 10
-3.40519406789898
 20
37.6639307684653
 30
0.0
  0
SPLINE
  5
5D
330
0
100
AcDbEntity
  8
1
100
AcDbSpline
 70
     8
 71
     3
 72
     8
 73
     4
 74
     0
 40
0.0
 40
0.0
 40
0.0
 40
0.0
 40
1.0
 40
1.0
 40
1.0
 40
1.0
 10
-3.40519406789898
 20
37.6639307684653
 30
0.0
 10
-3.50593223430497
 20
37.0311631825386
 30
0.0
 10
-3.50161324622926
 20
36.6532728534551
 30
0.0
 10
-3.49598747771298
 20
36.528167967709
 30
0.0
  0
LINE
  5
5E
330
0
100
AcDbEntity
  8
1
100
AcDbLine
 10
-3.49598747771298
 20
36.528167967709
 30
0.0
 11
-3.47740184240845
 21
36.3339741347738
 31
0.0
  0
ARC
  5
5F
330
0
100
AcDbEntity
  8
1
100
AcDbCircle
 10
0.000000133975096
 20
-0.00000090956015
 30
0.0
 40
36.5000009181869
100
AcDbArc
 50
95.4669340980999
 51
98.3792198213779
  0
LINE
  5
60
330
0
100
AcDbEntity
  8
1
100
AcDbLine
 10
-5.31893429148153
 20
36.1103716126392
 30
0.0
 11
-5.34736234709036
 21
36.3033703593814
 31
0.0
  0
SPLINE
  5
61
330
0
100
AcDbEntity
  8
1
100
AcDbSpline
 70
     8
 71
     3
 72
     8
 73
     4
 74
     0
 40
0.0
 40
0.0
 40
0.0
 40
0.0
 40
1.0
 40
1.0
 40
1.0
 40
1.0
 10
-5.34736234709036
 20
36.3033703593814
 30
0.0
 10
-5.37183961202069
 20
36.4261862590461
 30
0.0
 10
-5.45808120102147
 20
36.7941293834546
 30
0.0
 10
-5.70732329456156
 20
37.38440167213
 30
0.0
  0
SPLINE
  5
62
330
0
100
AcDbEntity
  8
1
100
AcDbSpline
 70
     8
 71
     3
 72
     8
 73
     4
 74
     0
 40
0.0
 40
0.0
 40
0.0
 40
0.0
 40
1.0
 40
1.0
 40
1.0
 40
1.0
 10
-5.70732329456156
 20
37.38440167213
 30
0.0
 10
-6.00786868575865
 20
38.0926324984819
 30
0.0
 10
-6.53782763250979
 20
39.1011939124446
 30
0.0
 10
-7.45719310456474
 20
40.3181757240693
 30
0.0
  0
ARC
  5
63
330
0
100
AcDbEntity
  8
1
100
AcDbCircle
 10
0.0
 20
0.0
 30
0.0
 40
41.0020124227543
100
AcDbArc
 50
100.478924259907
 51
102.597998817016
  0
SPLINE
  5
64
330
0
100
AcDbEntity
  8
1
100
AcDbSpline
 70
     8
 71
     3
 72
     8
 73
     4
 74
     0
 40
0.0
 40
0.0
 40
0.0
 40
0.0
 40
1.0
 40
1.0
 40
1.0
 40
1.0
 10
-8.94291429071226
 20
40.0148635722361
 30
0.0
 10
-9.31169539124863
 20
38.534904754931
 30
0.0
 10
-9.40392432997611
 20
37.3993227746948
 30
0.0
 10
-9.40281707576027
 20
36.6299612149889
 30
0.0
  0
SPLINE
  5
65
330
0
100
AcDbEntity
  8
1
100
AcDbSpline
 70
     8
 71
     3
 72
     8
 73
     4
 74
     0
 40
0.0
 40
0.0
 40
0.0
 40
0.0
 40
1.0
 40
1.0
 40
1.0
 40
1.0
 10
-9.40281707576027
 20
36.6299612149889
 30
0.0
 10
-9.40074765042519
 20
35.9892282648067
 30
0.0
 10
-9.33586672039868
 20
35.6169243306458
 30
0.0
 10
-9.31024556914306
 20
35.4943419570463
 30
0.0
  0
LINE
  5
66
330
0
100
AcDbEntity
  8
1
100
AcDbLine
 10
-9.31024556914306
 20
35.4943419570463
 30
0.0
 11
-9.26074973145862
 21
35.3056442288098
 31
0.0
  0
ARC
  5
67
330
0
100
AcDbEntity
  8
1
100
AcDbCircle
 10
0.000000278143924
 20
-0.000000876290663
 30
0.0
 40
36.5000009181871
100
AcDbArc
 50
104.697703328869
 51
107.609989052147
  0
LINE
  5
68
330
0
100
AcDbEntity
  8
1
100
AcDbLine
 10
-11.0425664519938
 20
34.7895347217134
 30
0.0
 11
-11.1015855479176
 21
34.9754740045615
 31
0.0
  0
SPLINE
  5
69
330
0
100
AcDbEntity
  8
1
100
AcDbSpline
 70
     8
 71
     3
 72
     8
 73
     4
 74
     0
 40
0.0
 40
0.0
 40
0.0
 40
0.0
 40
1.0
 40
1.0
 40
1.0
 40
1.0
 10
-11.1015855479176
 20
34.9754740045615
 30
0.0
 10
-11.1454468944707
 20
35.0927730411623
 30
0.0
 10
-11.2895939054134
 20
35.4421172749907
 30
0.0
 10
-11.6302947131838
 20
35.9847644490872
 30
0.0
  0
SPLINE
  5
6A
330
0
100
AcDbEntity
  8
1
100
AcDbSpline
 70
     8
 71
     3
 72
     8
 73
     4
 74
     0
 40
0.0
 40
0.0
 40
0.0
 40
0.0
 40
1.0
 40
1.0
 40
1.0
 40
1.0
 10
-11.6302947131838
 20
35.9847644490872
 30
0.0
 10
-12.0405563344976
 20
36.6356130010883
 30
0.0
 10
-12.7254370803131
 20
37.5461024161763
 30
0.0
 10
-13.8281146221485
 20
38.5998480400172
 30
0.0
  0
ARC
  5
6B
330
0
100
AcDbEntity
  8
1
100
AcDbCircle
 10
0.0
 20
0.0
 30
0.0
 40
41.0020124227543
100
AcDbArc
 50
109.709693490676
 51
111.828768047785
  0
SPLINE
  5
6C
330
0
100
AcDbEntity
  8
1
100
AcDbSpline
 70
     8
 71
     3
 72
     8
 73
     4
 74
     0
 40
0.0
 40
0.0
 40
0.0
 40
0.0
 40
1.0
 40
1.0
 40
1.0
 40
1.0
 10
-15.2459414183668
 20
38.0621372624216
 30
0.0
 10
-15.3725448110065
 20
36.5421868744141
 30
0.0
 10
-15.2814192492316
 20
35.4065158203816
 30
0.0
 10
-15.1569120604319
 20
34.6472949068775
 30
0.0
  0
SPLINE
  5
6D
330
0
100
AcDbEntity
  8
1
100
AcDbSpline
 70
     8
 71
     3
 72
     8
 73
     4
 74
     0
 40
0.0
 40
0.0
 40
0.0
 40
0.0
 40
1.0
 40
1.0
 40
1.0
 40
1.0
 10
-15.1569120604319
 20
34.6472949068775
 30
0.0
 10
-15.0520886403849
 20
34.015191239288
 30
0.0
 10
-14.9283261504149
 20
33.6581161763821
 30
0.0
 10
-14.8833731907793
 20
33.541231134016
 30
0.0
  0
LINE
  5
6E
330
0
100
AcDbEntity
  8
1
100
AcDbLine
 10
-14.8833731907793
 20
33.541231134016
 30
0.0
 11
-14.804249066912
 21
33.362916682521
 31
0.0
  0
ARC
  5
6F
330
0
100
AcDbEntity
  8
1
100
AcDbCircle
 10
0.000000415108861
 20
-0.000000820325351
 30
0.0
 40
36.5000009181869
100
AcDbArc
 50
113.928472559638
 51
116.840758282916
  0
LINE
  5
70
330
0
100
AcDbEntity
  8
1
100
AcDbLine
 10
-16.4802019417927
 20
32.5676671555967
 30
0.0
 11
-16.5682835144484
 21
32.7417312447944
 31
0.0
  0
SPLINE
  5
71
330
0
100
AcDbEntity
  8
1
100
AcDbSpline
 70
     8
 71
     3
 72
     8
 73
     4
 74
     0
 40
0.0
 40
0.0
 40
0.0
 40
0.0
 40
1.0
 40
1.0
 40
1.0
 40
1.0
 10
-16.5682835144484
 20
32.7417312447944
 30
0.0
 10
-16.6303929567877
 20
32.8504754348977
 30
0.0
 10
-16.8287120578059
 20
33.1721729459919
 30
0.0
 10
-17.2520476078473
 20
33.6531407287399
 30
0.0
  0
SPLINE
  5
72
330
0
100
AcDbEntity
  8
1
100
AcDbSpline
 70
     8
 71
     3
 72
     8
 73
     4
 74
     0
 40
0.0
 40
0.0
 40
0.0
 40
0.0
 40
1.0
 40
1.0
 40
1.0
 40
1.0
 10
-17.2520476078473
 20
33.6531407287399
 30
0.0
 10
-17.7613998987862
 20
34.2297503707684
 30
0.0
 10
-18.5834643921008
 20
35.0185865893889
 30
0.0
 10
-19.8408952345929
 20
35.8818045672958
 30
0.0
  0
ARC
  5
73
330
0
100
AcDbEntity
  8
1
100
AcDbCircle
 10
0.0
 20
0.0
 30
0.0
 40
41.0020124227543
100
AcDbArc
 50
118.940462721446
 51
121.059537278554
  0
SPLINE
  5
74
330
0
100
AcDbEntity
  8
1
100
AcDbSpline
 70
     8
 71
     3
 72
     8
 73
     4
 74
     0
 40
0.0
 40
0.0
 40
0.0
 40
0.0
 40
1.0
 40
1.0
 40
1.0
 40
1.0
 10
-21.1541066716101
 20
35.1236215906309
 30
0.0
 10
-21.0352533949854
 20
33.6030455485773
 30
0.0
 10
-20.763133436892
 20
32.4966987045074
 30
0.0
 10
-20.5184509842978
 20
31.7672818600643
 30
0.0
  0
SPLINE
  5
75
330
0
100
AcDbEntity
  8
1
100
AcDbSpline
 70
     8
 71
     3
 72
     8
 73
     4
 74
     0
 40
0.0
 40
0.0
 40
0.0
 40
0.0
 40
1.0
 40
1.0
 40
1.0
 40
1.0
 10
-20.5184509842978
 20
31.7672818600643
 30
0.0
 10
-20.3135884410569
 20
31.1601786280294
 30
0.0
 10
-20.1341497746242
 20
30.8275804929449
 30
0.0
 10
-20.0710292646504
 20
30.7194200430124
 30
0.0
  0
LINE
  5
76
330
0
100
AcDbEntity
  8
1
100
AcDbLine
 10
-20.0710292646504
 20
30.7194200430124
 30
0.0
 11
-19.9643261278465
 21
30.5561071188885
 31
0.0
  0
ARC
  5
77
330
0
100
AcDbEntity
  8
1
100
AcDbCircle
 10
0.000000541322702
 20
-0.000000743114139
 30
0.0
 40
36.5000009181868
100
AcDbArc
 50
123.159241790408
 51
126.071527513686
  0
LINE
  5
78
330
0
100
AcDbEntity
  8
1
100
AcDbLine
 10
-21.4910088579508
 20
29.5023141171584
 30
0.0
 11
-21.6058716408737
 21
29.6599948442271
 31
0.0
  0
SPLINE
  5
79
330
0
100
AcDbEntity
  8
1
100
AcDbSpline
 70
     8
 71
     3
 72
     8
 73
     4
 74
     0
 40
0.0
 40
0.0
 40
0.0
 40
0.0
 40
1.0
 40
1.0
 40
1.0
 40
1.0
 10
-21.6058716408737
 20
29.6599948442271
 30
0.0
 10
-21.6846205770674
 20
29.7573677704299
 30
0.0
 10
-21.9319754076168
 20
30.0430867622325
 30
0.0
 10
-22.4269815315511
 20
30.4499183406995
 30
0.0
  0
SPLINE
  5
7A
330
0
100
AcDbEntity
  8
1
100
AcDbSpline
 70
     8
 71
     3
 72
     8
 73
     4
 74
     0
 40
0.0
 40
0.0
 40
0.0
 40
0.0
 40
1.0
 40
1.0
 40
1.0
 40
1.0
 10
-22.4269815315511
 20
30.4499183406995
 30
0.0
 10
-23.0222325353303
 20
30.9373551859059
 30
0.0
 10
-23.9601897375776
 20
31.5841077643534
 30
0.0
 10
-25.3398070824039
 20
32.2344412041259
 30
0.0
  0
ARC
  5
7B
330
0
100
AcDbEntity
  8
1
100
AcDbCircle
 10
0.0
 20
0.0
 30
0.0
 40
41.0020124227543
100
AcDbArc
 50
128.171231952215
 51
130.290306509324
  0
SPLINE
  5
7C
330
0
100
AcDbEntity
  8
1
100
AcDbSpline
 70
     8
 71
     3
 72
     8
 73
     4
 74
     0
 40
0.0
 40
0.0
 40
0.0
 40
0.0
 40
1.0
 40
1.0
 40
1.0
 40
1.0
 10
-26.5143916737996
 20
31.2754225692323
 30
0.0
 10
-26.1531599653444
 20
29.7936029938998
 30
0.0
 10
-25.7070933749091
 20
28.7452341619168
 30
0.0
 10
-25.3485728055167
 20
28.0645128996607
 30
0.0
  0
SPLINE
  5
7D
330
0
100
AcDbEntity
  8
1
100
AcDbSpline
 70
     8
 71
     3
 72
     8
 73
     4
 74
     0
 40
0.0
 40
0.0
 40
0.0
 40
0.0
 40
1.0
 40
1.0
 40
1.0
 40
1.0
 10
-25.3485728055167
 20
28.0645128996607
 30
0.0
 10
-25.0489769713425
 20
27.4981337579933
 30
0.0
 10
-24.8185094956529
 20
27.1986266677232
 30
0.0
 10
-24.7388562233936
 20
27.1019921090636
 30
0.0
  0
LINE
  5
7E
330
0
100
AcDbEntity
  8
1
100
AcDbLine
 10
-24.7388562233936
 20
27.1019921090636
 30
0.0
 11
-24.6073376288476
 21
26.9579104312612
 31
0.0
  0
ARC
  5
7F
330
0
100
AcDbEntity
  8
1
100
AcDbCircle
 10
0.000000653516715
 20
-0.000000646656844
 30
0.0
 40
36.5000009181869
100
AcDbArc
 50
132.390011021177
 51
135.302296744455
  0
LINE
  5
80
330
0
100
AcDbEntity
  8
1
100
AcDbLine
 10
-25.9452099333954
 20
25.672866639938
 30
0.0
 11
-26.0838790408424
 21
25.8100801568726
 31
0.0
  0
SPLINE
  5
81
330
0
100
AcDbEntity
  8
1
100
AcDbSpline
 70
     8
 71
     3
 72
     8
 73
     4
 74
     0
 40
0.0
 40
0.0
 40
0.0
 40
0.0
 40
1.0
 40
1.0
 40
1.0
 40
1.0
 10
-26.0838790408424
 20
25.8100801568726
 30
0.0
 10
-26.1772279148079
 20
25.8935599115339
 30
0.0
 10
-26.4672121147069
 20
26.1359004122385
 30
0.0
 10
-27.0210684139389
 20
26.458059062241
 30
0.0
  0
SPLINE
  5
82
330
0
100
AcDbEntity
  8
1
100
AcDbSpline
 70
     8
 71
     3
 72
     8
 73
     4
 74
     0
 40
0.0
 40
0.0
 40
0.0
 40
0.0
 40
1.0
 40
1.0
 40
1.0
 40
1.0
 10
-27.0210684139389
 20
26.458059062241
 30
0.0
 10
-27.6868014422315
 20
26.8436987523733
 30
0.0
 10
-28.7163587545597
 20
27.3316171385894
 30
0.0
 10
-30.1824312371689
 20
27.7522227457418
 30
0.0
  0
ARC
  5
83
330
0
100
AcDbEntity
  8
1
100
AcDbCircle
 10
0.0
 20
0.0
 30
0.0
 40
41.0020124227543
100
AcDbArc
 50
137.402001182984
 51
139.521075740093
  0
SPLINE
  5
84
330
0
100
AcDbEntity
  8
1
100
AcDbSpline
 70
     8
 71
     3
 72
     8
 73
     4
 74
     0
 40
0.0
 40
0.0
 40
0.0
 40
0.0
 40
1.0
 40
1.0
 40
1.0
 40
1.0
 10
-31.1879678590066
 20
26.6172065315139
 30
0.0
 10
-30.5937134302236
 20
25.2125217715397
 30
0.0
 10
-29.9852530978307
 20
24.249283153709
 30
0.0
 10
-29.5221799060652
 20
23.6348877967661
 30
0.0
  0
SPLINE
  5
85
330
0
100
AcDbEntity
  8
1
100
AcDbSpline
 70
     8
 71
     3
 72
     8
 73
     4
 74
     0
 40
0.0
 40
0.0
 40
0.0
 40
0.0
 40
1.0
 40
1.0
 40
1.0
 40
1.0
 10
-29.5221799060652
 20
23.6348877967661
 30
0.0
 10
-29.1356101556923
 20
23.1239016677302
 30
0.0
 10
-28.8600828573072
 20
22.8652426985886
 30
0.0
 10
-28.765959800674
 20
22.7826368155114
 30
0.0
  0
LINE
  5
86
330
0
100
AcDbEntity
  8
1
100
AcDbLine
 10
-28.765959800674
 20
22.7826368155114
 30
0.0
 11
-28.6130320109012
 21
22.6615180238029
 31
0.0
  0
ARC
  5
87
330
0
100
AcDbEntity
  8
1
100
AcDbCircle
 10
0.000000748784972
 20
-0.000000533451409
 30
0.0
 40
36.500000918187
100
AcDbArc
 50
141.620780251946
 51
144.533065975224
  0
LINE
  5
88
330
0
100
AcDbEntity
  8
1
100
AcDbLine
 10
-29.7274436999566
 20
21.1785054020795
 30
0.0
 11
-29.8863276748845
 21
21.2916979508663
 31
0.0
  0
SPLINE
  5
89
330
0
100
AcDbEntity
  8
1
100
AcDbSpline
 70
     8
 71
     3
 72
     8
 73
     4
 74
     0
 40
0.0
 40
0.0
 40
0.0
 40
0.0
 40
1.0
 40
1.0
 40
1.0
 40
1.0
 10
-29.8863276748845
 20
21.2916979508663
 30
0.0
 10
-29.99185879982
 20
21.3591224521902
 30
0.0
 10
-30.3169619306129
 20
21.5518079701242
 30
0.0
 10
-30.9153238179198
 20
21.7809499518493
 30
0.0
  0
SPLINE
  5
8A
330
0
100
AcDbEntity
  8
1
100
AcDbSpline
 70
     8
 71
     3
 72
     8
 73
     4
 74
     0
 40
0.0
 40
0.0
 40
0.0
 40
0.0
 40
1.0
 40
1.0
 40
1.0
 40
1.0
 10
-30.9153238179198
 20
21.7809499518493
 30
0.0
 10
-31.6342967349864
 20
22.0548046215002
 30
0.0
 10
-32.7287891638077
 20
22.3712519855736
 30
0.0
 10
-34.2433462769926
 20
22.5512362958148
 30
0.0
  0
ARC
  5
8B
330
0
100
AcDbEntity
  8
1
100
AcDbCircle
 10
0.0
 20
0.0
 30
0.0
 40
41.0020124227543
100
AcDbArc
 50
146.632770413753
 51
148.751844970862
  0
SPLINE
  5
8C
330
0
100
AcDbEntity
  8
1
100
AcDbSpline
 70
     8
 71
     3
 72
     8
 73
     4
 74
     0
 40
0.0
 40
0.0
 40
0.0
 40
0.0
 40
1.0
 40
1.0
 40
1.0
 40
1.0
 10
-35.053792058951
 20
21.2696188260044
 30
0.0
 10
-34.2419057873981
 20
19.9784494788249
 30
0.0
 10
-33.486810516047
 20
19.1252884493825
 30
0.0
 10
-32.9311780543341
 20
18.5931315147704
 30
0.0
  0
SPLINE
  5
8D
330
0
100
AcDbEntity
  8
1
100
AcDbSpline
 70
     8
 71
     3
 72
     8
 73
     4
 74
     0
 40
0.0
 40
0.0
 40
0.0
 40
0.0
 40
1.0
 40
1.0
 40
1.0
 40
1.0
 10
-32.9311780543341
 20
18.5931315147704
 30
0.0
 10
-32.4676463412415
 20
18.1507726706994
 30
0.0
 10
-32.1541952324612
 20
17.9396609541197
 30
0.0
 10
-32.0480401291803
 20
17.8732231956057
 30
0.0
  0
LINE
  5
8E
330
0
100
AcDbEntity
  8
1
100
AcDbLine
 10
-32.0480401291803
 20
17.8732231956057
 30
0.0
 11
-31.8776638936065
 21
17.7782042030756
 31
0.0
  0
ARC
  5
8F
330
0
100
AcDbEntity
  8
1
100
AcDbCircle
 10
0.000000824659693
 20
-0.000000406429631
 30
0.0
 40
36.5000009181867
100
AcDbArc
 50
150.851549482715
 51
153.763835205993
  0
LINE
  5
90
330
0
100
AcDbEntity
  8
1
100
AcDbLine
 10
-32.7397522897965
 20
16.135631998864
 30
0.0
 11
-32.9147361207124
 21
16.2218719519467
 31
0.0
  0
SPLINE
  5
91
330
0
100
AcDbEntity
  8
1
100
AcDbSpline
 70
     8
 71
     3
 72
     8
 73
     4
 74
     0
 40
0.0
 40
0.0
 40
0.0
 40
0.0
 40
1.0
 40
1.0
 40
1.0
 40
1.0
 10
-32.9147361207124
 20
16.2218719519467
 30
0.0
 10
-33.0297162959151
 20
16.2714949407655
 30
0.0
 10
-33.3815183572831
 20
16.4095350222274
 30
0.0
 10
-34.0088885740888
 20
16.5397256787111
 30
0.0
  0
SPLINE
  5
92
330
0
100
AcDbEntity
  8
1
100
AcDbSpline
 70
     8
 71
     3
 72
     8
 73
     4
 74
     0
 40
0.0
 40
0.0
 40
0.0
 40
0.0
 40
1.0
 40
1.0
 40
1.0
 40
1.0
 10
-34.0088885740888
 20
16.5397256787111
 30
0.0
 10
-34.7624803590365
 20
16.694702635786
 30
0.0
 10
-35.8935611253548
 20
16.8314831572094
 30
0.0
 10
-37.4173766354442
 20
16.7661846714454
 30
0.0
  0
ARC
  5
93
330
0
100
AcDbEntity
  8
1
100
AcDbCircle
 10
0.0
 20
0.0
 30
0.0
 40
41.0020124227543
100
AcDbArc
 50
155.863539644522
 51
157.982614201631
  0
SPLINE
  5
94
330
0
100
AcDbEntity
  8
1
100
AcDbSpline
 70
     8
 71
     3
 72
     8
 73
     4
 74
     0
 40
0.0
 40
0.0
 40
0.0
 40
0.0
 40
1.0
 40
1.0
 40
1.0
 40
1.0
 10
-38.011741457478
 20
15.3711591653181
 30
0.0
 10
-37.0032507711243
 20
14.2269458388052
 30
0.0
 10
-36.1210771317098
 20
13.5059588202686
 30
0.0
 10
-35.4872759889474
 20
13.0698228930647
 30
0.0
  0
SPLINE
  5
95
330
0
100
AcDbEntity
  8
1
100
AcDbSpline
 70
     8
 71
     3
 72
     8
 73
     4
 74
     0
 40
0.0
 40
0.0
 40
0.0
 40
0.0
 40
1.0
 40
1.0
 40
1.0
 40
1.0
 10
-35.4872759889474
 20
13.0698228930647
 30
0.0
 10
-34.9587875410222
 20
12.7075481956596
 30
0.0
 10
-34.6155308409158
 20
12.5494514142094
 30
0.0
 10
-34.5000930524015
 20
12.5009024833059
 30
0.0
  0
LINE
  5
96
330
0
100
AcDbEntity
  8
1
100
AcDbLine
 10
-34.5000930524015
 20
12.5009024833059
 30
0.0
 11
-34.3166810260336
 21
12.4344442319497
 31
0.0
  0
ARC
  5
97
330
0
100
AcDbEntity
  8
1
100
AcDbCircle
 10
0.000000879176802
 20
-0.000000268881861
 30
0.0
 40
36.500000918187
100
AcDbArc
 50
160.082318713484
 51
162.994604436763
  0
LINE
  5
98
330
0
100
AcDbEntity
  8
1
100
AcDbLine
 10
-34.9041184927311
 20
10.6748542025354
 30
0.0
 11
-35.0906701903292
 21
10.7319079904289
 31
0.0
  0
SPLINE
  5
99
330
0
100
AcDbEntity
  8
1
100
AcDbSpline
 70
     8
 71
     3
 72
     8
 73
     4
 74
     0
 40
0.0
 40
0.0
 40
0.0
 40
0.0
 40
1.0
 40
1.0
 40
1.0
 40
1.0
 10
-35.0906701903292
 20
10.7319079904289
 30
0.0
 10
-35.2121214896575
 20
10.7624442573979
 30
0.0
 10
-35.5815109930044
 20
10.8422637367869
 30
0.0
 10
-36.2216409802359
 20
10.8701311984124
 30
0.0
  0
SPLINE
  5
9A
330
0
100
AcDbEntity
  8
1
100
AcDbSpline
 70
     8
 71
     3
 72
     8
 73
     4
 74
     0
 40
0.0
 40
0.0
 40
0.0
 40
0.0
 40
1.0
 40
1.0
 40
1.0
 40
1.0
 10
-36.2216409802359
 20
10.8701311984124
 30
0.0
 10
-36.9903340016781
 20
10.9022166211287
 30
0.0
 10
-38.1287087077752
 20
10.8557877562447
 30
0.0
 10
-39.6223165934812
 20
10.5468976709571
 30
0.0
  0
ARC
  5
9B
330
0
100
AcDbEntity
  8
1
100
AcDbCircle
 10
0.0
 20
0.0
 30
0.0
 40
41.0020124227543
100
AcDbArc
 50
165.094308875292
 51
167.213383432401
  0
SPLINE
  5
9C
330
0
100
AcDbEntity
  8
1
100
AcDbSpline
 70
     8
 71
     3
 72
     8
 73
     4
 74
     0
 40
0.0
 40
0.0
 40
0.0
 40
0.0
 40
1.0
 40
1.0
 40
1.0
 40
1.0
 10
-39.9852067189053
 20
9.07459455634829
 30
0.0
 10
-38.8062309967915
 20
8.10697177463104
 30
0.0
 10
-37.8198268231899
 20
7.53683195206342
 30
0.0
 10
-37.1242721160552
 20
7.2080127236906
 30
0.0
  0
SPLINE
  5
9D
330
0
100
AcDbEntity
  8
1
100
AcDbSpline
 70
     8
 71
     3
 72
     8
 73
     4
 74
     0
 40
0.0
 40
0.0
 40
0.0
 40
0.0
 40
1.0
 40
1.0
 40
1.0
 40
1.0
 10
-37.1242721160552
 20
7.2080127236906
 30
0.0
 10
-36.5445145064964
 20
6.93520489732003
 30
0.0
 10
-36.1803423832923
 20
6.83421767459451
 30
0.0
 10
-36.0586116876304
 20
6.80481496311041
 30
0.0
  0
LINE
  5
9E
330
0
100
AcDbEntity
  8
1
100
AcDbLine
 10
-36.0586116876304
 20
6.80481496311041
 30
0.0
 11
-35.8669141456094
 21
6.76863868672915
 31
0.0
  0
ARC
  5
9F
330
0
100
AcDbEntity
  8
1
100
AcDbCircle
 10
0.000000910923074
 20
-0.000000124369993
 30
0.0
 40
36.5000009181867
100
AcDbArc
 50
169.313087944254
 51
172.225373667532
  0
LINE
  5
A0
330
0
100
AcDbEntity
  8
1
100
AcDbLine
 10
-36.1644863609936
 20
4.93760328960398
 30
0.0
 11
-36.3577743342971
 21
4.96399324917088
 31
0.0
  0
SPLINE
  5
A1
330
0
100
AcDbEntity
  8
1
100
AcDbSpline
 70
     8
 71
     3
 72
     8
 73
     4
 74
     0
 40
0.0
 40
0.0
 40
0.0
 40
0.0
 40
1.0
 40
1.0
 40
1.0
 40
1.0
 10
-36.3577743342971
 20
4.96399324917088
 30
0.0
 10
-36.482551232894
 20
4.97465192101545
 30
0.0
 10
-36.8599611841144
 20
4.99418351574274
 30
0.0
 10
-37.4962719113472
 20
4.919006029892
 30
0.0
  0
SPLINE
  5
A2
330
0
100
AcDbEntity
  8
1
100
AcDbSpline
 70
     8
 71
     3
 72
     8
 73
     4
 74
     0
 40
0.0
 40
0.0
 40
0.0
 40
0.0
 40
1.0
 40
1.0
 40
1.0
 40
1.0
 10
-37.4962719113472
 20
4.919006029892
 30
0.0
 10
-38.2601574238045
 20
4.82736892265494
 30
0.0
 10
-39.3763427627532
 20
4.59893315467609
 30
0.0
 10
-40.8010593643921
 20
4.05445156082144
 30
0.0
  0
ARC
  5
A3
330
0
100
AcDbEntity
  8
1
100
AcDbCircle
 10
0.0
 20
0.0
 30
0.0
 40
41.0020124227543
100
AcDbArc
 50
174.325078106061
 51
176.44415266317
  0
SPLINE
  5
A4
330
0
100
AcDbEntity
  8
1
100
AcDbSpline
 70
     8
 71
     3
 72
     8
 73
     4
 74
     0
 40
0.0
 40
0.0
 40
0.0
 40
0.0
 40
1.0
 40
1.0
 40
1.0
 40
1.0
 10
-40.9230761295754
 20
2.54300271503425
 30
0.0
 10
-39.6041502236169
 20
1.77703139989029
 30
0.0
 10
-38.5390628657902
 20
1.37250509521545
 30
0.0
 10
-37.7997690958399
 20
1.15951881096778
 30
0.0
  0
SPLINE
  5
A5
330
0
100
AcDbEntity
  8
1
100
AcDbSpline
 70
     8
 71
     3
 72
     8
 73
     4
 74
     0
 40
0.0
 40
0.0
 40
0.0
 40
0.0
 40
1.0
 40
1.0
 40
1.0
 40
1.0
 10
-37.7997690958399
 20
1.15951881096778
 30
0.0
 10
-37.1837577422024
 20
0.983243435035396
 30
0.0
 10
-36.8081020626007
 20
0.941981287056966
 30
0.0
 10
-36.6832312208667
 20
0.932486309775141
 30
0.0
  0
LINE
  5
A6
330
0
100
AcDbEntity
  8
1
100
AcDbLine
 10
-36.6832312208667
 20
0.932486309775141
 30
0.0
 11
-36.4882130288368
 21
0.927528954924635
 31
0.0
  0
ARC
  5
A7
330
0
100
AcDbEntity
  8
1
100
AcDbCircle
 10
0.000000919077177
 20
0.000000023362902
 30
0.0
 40
36.5000009181867
100
AcDbArc
 50
178.543857175023
 51
181.456142898301
  0
LINE
  5
A8
330
0
100
AcDbEntity
  8
1
100
AcDbLine
 10
-36.4882130288368
 20
-0.927528954924545
 30
0.0
 11
-36.6832312208667
 21
-0.93248630977505
 31
0.0
  0
SPLINE
  5
A9
330
0
100
AcDbEntity
  8
1
100
AcDbSpline
 70
     8
 71
     3
 72
     8
 73
     4
 74
     0
 40
0.0
 40
0.0
 40
0.0
 40
0.0
 40
1.0
 40
1.0
 40
1.0
 40
1.0
 10
-36.6832312208667
 20
-0.93248630977505
 30
0.0
 10
-36.8081020626007
 20
-0.941981287056875
 30
0.0
 10
-37.1837577422024
 20
-0.983243435035305
 30
0.0
 10
-37.7997690958399
 20
-1.15951881096768
 30
0.0
  0
SPLINE
  5
AA
330
0
100
AcDbEntity
  8
1
100
AcDbSpline
 70
     8
 71
     3
 72
     8
 73
     4
 74
     0
 40
0.0
 40
0.0
 40
0.0
 40
0.0
 40
1.0
 40
1.0
 40
1.0
 40
1.0
 10
-37.7997690958399
 20
-1.15951881096768
 30
0.0
 10
-38.5390628657902
 20
-1.37250509521536
 30
0.0
 10
-39.6041502236169
 20
-1.77703139989019
 30
0.0
 10
-40.9230761295754
 20
-2.54300271503414
 30
0.0
  0
ARC
  5
AB
330
0
100
AcDbEntity
  8
1
100
AcDbCircle
 10
0.0
 20
0.0
 30
0.0
 40
41.0020124227543
100
AcDbArc
 50
183.55584733683
 51
185.674921893939
  0
SPLINE
  5
AC
330
0
100
AcDbEntity
  8
1
100
AcDbSpline
 70
     8
 71
     3
 72
     8
 73
     4
 74
     0
 40
0.0
 40
0.0
 40
0.0
 40
0.0
 40
1.0
 40
1.0
 40
1.0
 40
1.0
 10
-40.8010593643921
 20
-4.05445156082134
 30
0.0
 10
-39.3763427627532
 20
-4.59893315467599
 30
0.0
 10
-38.2601574238045
 20
-4.82736892265485
 30
0.0
 10
-37.4962719113473
 20
-4.91900602989191
 30
0.0
  0
SPLINE
  5
AD
330
0
100
AcDbEntity
  8
1
100
AcDbSpline
 70
     8
 71
     3
 72
     8
 73
     4
 74
     0
 40
0.0
 40
0.0
 40
0.0
 40
0.0
 40
1.0
 40
1.0
 40
1.0
 40
1.0
 10
-37.4962719113473
 20
-4.91900602989191
 30
0.0
 10
-36.8599611841144
 20
-4.99418351574265
 30
0.0
 10
-36.482551232894
 20
-4.97465192101536
 30
0.0
 10
-36.3577743342971
 20
-4.96399324917079
 30
0.0
  0
LINE
  5
AE
330
0
100
AcDbEntity
  8
1
100
AcDbLine
 10
-36.3577743342971
 20
-4.96399324917079
 30
0.0
 11
-36.1644863609936
 21
-4.93760328960389
 31
0.0
  0
ARC
  5
AF
330
0
100
AcDbEntity
  8
1
100
AcDbCircle
 10
0.000000903428049
 20
0.000000170490772
 30
0.0
 40
36.5000009181871
100
AcDbArc
 50
187.774626405792
 51
190.68691212907
  0
LINE
  5
B0
330
0
100
AcDbEntity
  8
1
100
AcDbLine
 10
-35.8669141456094
 20
-6.76863868672907
 30
0.0
 11
-36.0586116876304
 21
-6.80481496311034
 31
0.0
  0
SPLINE
  5
B1
330
0
100
AcDbEntity
  8
1
100
AcDbSpline
 70
     8
 71
     3
 72
     8
 73
     4
 74
     0
 40
0.0
 40
0.0
 40
0.0
 40
0.0
 40
1.0
 40
1.0
 40
1.0
 40
1.0
 10
-36.0586116876304
 20
-6.80481496311034
 30
0.0
 10
-36.1803423832923
 20
-6.83421767459444
 30
0.0
 10
-36.5445145064964
 20
-6.93520489731996
 30
0.0
 10
-37.1242721160553
 20
-7.20801272369052
 30
0.0
  0
SPLINE
  5
B2
330
0
100
AcDbEntity
  8
1
100
AcDbSpline
 70
     8
 71
     3
 72
     8
 73
     4
 74
     0
 40
0.0
 40
0.0
 40
0.0
 40
0.0
 40
1.0
 40
1.0
 40
1.0
 40
1.0
 10
-37.1242721160553
 20
-7.20801272369052
 30
0.0
 10
-37.8198268231899
 20
-7.53683195206334
 30
0.0
 10
-38.8062309967915
 20
-8.10697177463097
 30
0.0
 10
-39.9852067189053
 20
-9.07459455634821
 30
0.0
  0
ARC
  5
B3
330
0
100
AcDbEntity
  8
1
100
AcDbCircle
 10
0.0
 20
0.0
 30
0.0
 40
41.0020124227543
100
AcDbArc
 50
192.786616567599
 51
194.905691124708
  0
SPLINE
  5
B4
330
0
100
AcDbEntity
  8
1
100
AcDbSpline
 70
     8
 71
     3
 72
     8
 73
     4
 74
     0
 40
0.0
 40
0.0
 40
0.0
 40
0.0
 40
1.0
 40
1.0
 40
1.0
 40
1.0
 10
-39.6223165934812
 20
-10.5468976709571
 30
0.0
 10
-38.1287087077753
 20
-10.8557877562446
 30
0.0
 10
-36.9903340016782
 20
-10.9022166211286
 30
0.0
 10
-36.2216409802359
 20
-10.8701311984124
 30
0.0
  0
SPLINE
  5
B5
330
0
100
AcDbEntity
  8
1
100
AcDbSpline
 70
     8
 71
     3
 72
     8
 73
     4
 74
     0
 40
0.0
 40
0.0
 40
0.0
 40
0.0
 40
1.0
 40
1.0
 40
1.0
 40
1.0
 10
-36.2216409802359
 20
-10.8701311984124
 30
0.0
 10
-35.5815109930044
 20
-10.8422637367868
 30
0.0
 10
-35.2121214896575
 20
-10.7624442573978
 30
0.0
 10
-35.0906701903292
 20
-10.7319079904289
 30
0.0
  0
LINE
  5
B6
330
0
100
AcDbEntity
  8
1
100
AcDbLine
 10
-35.0906701903292
 20
-10.7319079904289
 30
0.0
 11
-34.9041184927311
 21
-10.6748542025353
 31
0.0
  0
ARC
  5
B7
330
0
100
AcDbEntity
  8
1
100
AcDbCircle
 10
0.000000864379981
 20
0.000000313202915
 30
0.0
 40
36.5000009181868
100
AcDbArc
 50
197.005395636561
 51
199.917681359839
  0
LINE
  5
B8
330
0
100
AcDbEntity
  8
1
100
AcDbLine
 10
-34.3166810260336
 20
-12.4344442319496
 30
0.0
 11
-34.5000930524016
 21
-12.5009024833059
 31
0.0
  0
SPLINE
  5
B9
330
0
100
AcDbEntity
  8
1
100
AcDbSpline
 70
     8
 71
     3
 72
     8
 73
     4
 74
     0
 40
0.0
 40
0.0
 40
0.0
 40
0.0
 40
1.0
 40
1.0
 40
1.0
 40
1.0
 10
-34.5000930524016
 20
-12.5009024833059
 30
0.0
 10
-34.6155308409158
 20
-12.5494514142093
 30
0.0
 10
-34.9587875410222
 20
-12.7075481956595
 30
0.0
 10
-35.4872759889475
 20
-13.0698228930646
 30
0.0
  0
SPLINE
  5
BA
330
0
100
AcDbEntity
  8
1
100
AcDbSpline
 70
     8
 71
     3
 72
     8
 73
     4
 74
     0
 40
0.0
 40
0.0
 40
0.0
 40
0.0
 40
1.0
 40
1.0
 40
1.0
 40
1.0
 10
-35.4872759889475
 20
-13.0698228930646
 30
0.0
 10
-36.1210771317098
 20
-13.5059588202685
 30
0.0
 10
-37.0032507711243
 20
-14.2269458388051
 30
0.0
 10
-38.0117414574781
 20
-15.371159165318
 30
0.0
  0
ARC
  5
BB
330
0
100
AcDbEntity
  8
1
100
AcDbCircle
 10
0.0
 20
0.0
 30
0.0
 40
41.0020124227543
100
AcDbArc
 50
202.017385798369
 51
204.136460355477
  0
SPLINE
  5
BC
330
0
100
AcDbEntity
  8
1
100
AcDbSpline
 70
     8
 71
     3
 72
     8
 73
     4
 74
     0
 40
0.0
 40
0.0
 40
0.0
 40
0.0
 40
1.0
 40
1.0
 40
1.0
 40
1.0
 10
-37.4173766354442
 20
-16.7661846714454
 30
0.0
 10
-35.8935611253549
 20
-16.8314831572093
 30
0.0
 10
-34.7624803590365
 20
-16.694702635786
 30
0.0
 10
-34.0088885740888
 20
-16.5397256787111
 30
0.0
  0
SPLINE
  5
BD
330
0
100
AcDbEntity
  8
1
100
AcDbSpline
 70
     8
 71
     3
 72
     8
 73
     4
 74
     0
 40
0.0
 40
0.0
 40
0.0
 40
0.0
 40
1.0
 40
1.0
 40
1.0
 40
1.0
 10
-34.0088885740888
 20
-16.5397256787111
 30
0.0
 10
-33.3815183572832
 20
-16.4095350222273
 30
0.0
 10
-33.0297162959151
 20
-16.2714949407654
 30
0.0
 10
-32.9147361207125
 20
-16.2218719519466
 30
0.0
  0
LINE
  5
BE
330
0
100
AcDbEntity
  8
1
100
AcDbLine
 10
-32.9147361207125
 20
-16.2218719519466
 30
0.0
 11
-32.7397522897965
 21
-16.1356319988639
 31
0.0
  0
ARC
  5
BF
330
0
100
AcDbEntity
  8
1
100
AcDbCircle
 10
0.000000802945069
 20
0.000000447803243
 30
0.0
 40
36.5000009181866
100
AcDbArc
 50
206.236164867331
 51
209.148450590609
  0
LINE
  5
C0
330
0
100
AcDbEntity
  8
1
100
AcDbLine
 10
-31.8776638936065
 20
-17.7782042030756
 30
0.0
 11
-32.0480401291804
 21
-17.8732231956056
 31
0.0
  0
SPLINE
  5
C1
330
0
100
AcDbEntity
  8
1
100
AcDbSpline
 70
     8
 71
     3
 72
     8
 73
     4
 74
     0
 40
0.0
 40
0.0
 40
0.0
 40
0.0
 40
1.0
 40
1.0
 40
1.0
 40
1.0
 10
-32.0480401291804
 20
-17.8732231956056
 30
0.0
 10
-32.1541952324612
 20
-17.9396609541196
 30
0.0
 10
-32.4676463412415
 20
-18.1507726706993
 30
0.0
 10
-32.9311780543341
 20
-18.5931315147703
 30
0.0
  0
SPLINE
  5
C2
330
0
100
AcDbEntity
  8
1
100
AcDbSpline
 70
     8
 71
     3
 72
     8
 73
     4
 74
     0
 40
0.0
 40
0.0
 40
0.0
 40
0.0
 40
1.0
 40
1.0
 40
1.0
 40
1.0
 10
-32.9311780543341
 20
-18.5931315147703
 30
0.0
 10
-33.4868105160471
 20
-19.1252884493824
 30
0.0
 10
-34.2419057873981
 20
-19.9784494788249
 30
0.0
 10
-35.053792058951
 20
-21.2696188260044
 30
0.0
  0
ARC
  5
C3
330
0
100
AcDbEntity
  8
1
100
AcDbCircle
 10
0.0
 20
0.0
 30
0.0
 40
41.0020124227543
100
AcDbArc
 50
211.248155029138
 51
213.367229586247
  0
SPLINE
  5
C4
330
0
100
AcDbEntity
  8
1
100
AcDbSpline
 70
     8
 71
     3
 72
     8
 73
     4
 74
     0
 40
0.0
 40
0.0
 40
0.0
 40
0.0
 40
1.0
 40
1.0
 40
1.0
 40
1.0
 10
-34.2433462769926
 20
-22.5512362958147
 30
0.0
 10
-32.7287891638077
 20
-22.3712519855735
 30
0.0
 10
-31.6342967349865
 20
-22.0548046215002
 30
0.0
 10
-30.9153238179198
 20
-21.7809499518492
 30
0.0
  0
SPLINE
  5
C5
330
0
100
AcDbEntity
  8
1
100
AcDbSpline
 70
     8
 71
     3
 72
     8
 73
     4
 74
     0
 40
0.0
 40
0.0
 40
0.0
 40
0.0
 40
1.0
 40
1.0
 40
1.0
 40
1.0
 10
-30.9153238179198
 20
-21.7809499518492
 30
0.0
 10
-30.3169619306129
 20
-21.5518079701241
 30
0.0
 10
-29.99185879982
 20
-21.3591224521901
 30
0.0
 10
-29.8863276748845
 20
-21.2916979508662
 30
0.0
  0
LINE
  5
C6
330
0
100
AcDbEntity
  8
1
100
AcDbLine
 10
-29.8863276748845
 20
-21.2916979508662
 30
0.0
 11
-29.7274436999567
 21
-21.1785054020794
 31
0.0
  0
ARC
  5
C7
330
0
100
AcDbEntity
  8
1
100
AcDbCircle
 10
0.000000720715075
 20
0.000000570806247
 30
0.0
 40
36.5000009181874
100
AcDbArc
 50
215.4669340981
 51
218.379219821378
  0
LINE
  5
C8
330
0
100
AcDbEntity
  8
1
100
AcDbLine
 10
-28.6130320109013
 20
-22.6615180238028
 30
0.0
 11
-28.7659598006741
 21
-22.7826368155113
 31
0.0
  0
SPLINE
  5
C9
330
0
100
AcDbEntity
  8
1
100
AcDbSpline
 70
     8
 71
     3
 72
     8
 73
     4
 74
     0
 40
0.0
 40
0.0
 40
0.0
 40
0.0
 40
1.0
 40
1.0
 40
1.0
 40
1.0
 10
-28.7659598006741
 20
-22.7826368155113
 30
0.0
 10
-28.8600828573073
 20
-22.8652426985885
 30
0.0
 10
-29.1356101556924
 20
-23.1239016677301
 30
0.0
 10
-29.5221799060653
 20
-23.634887796766
 30
0.0
  0
SPLINE
  5
CA
330
0
100
AcDbEntity
  8
1
100
AcDbSpline
 70
     8
 71
     3
 72
     8
 73
     4
 74
     0
 40
0.0
 40
0.0
 40
0.0
 40
0.0
 40
1.0
 40
1.0
 40
1.0
 40
1.0
 10
-29.5221799060653
 20
-23.634887796766
 30
0.0
 10
-29.9852530978307
 20
-24.249283153709
 30
0.0
 10
-30.5937134302236
 20
-25.2125217715397
 30
0.0
 10
-31.1879678590067
 20
-26.6172065315138
 30
0.0
  0
ARC
  5
CB
330
0
100
AcDbEntity
  8
1
100
AcDbCircle
 10
0.0
 20
0.0
 30
0.0
 40
41.0020124227543
100
AcDbArc
 50
220.478924259907
 51
222.597998817016
  0
SPLINE
  5
CC
330
0
100
AcDbEntity
  8
1
100
AcDbSpline
 70
     8
 71
     3
 72
     8
 73
     4
 74
     0
 40
0.0
 40
0.0
 40
0.0
 40
0.0
 40
1.0
 40
1.0
 40
1.0
 40
1.0
 10
-30.1824312371689
 20
-27.7522227457418
 30
0.0
 10
-28.7163587545597
 20
-27.3316171385893
 30
0.0
 10
-27.6868014422316
 20
-26.8436987523732
 30
0.0
 10
-27.021068413939
 20
-26.458059062241
 30
0.0
  0
SPLINE
  5
CD
330
0
100
AcDbEntity
  8
1
100
AcDbSpline
 70
     8
 71
     3
 72
     8
 73
     4
 74
     0
 40
0.0
 40
0.0
 40
0.0
 40
0.0
 40
1.0
 40
1.0
 40
1.0
 40
1.0
 10
-27.021068413939
 20
-26.458059062241
 30
0.0
 10
-26.467212114707
 20
-26.1359004122384
 30
0.0
 10
-26.177227914808
 20
-25.8935599115339
 30
0.0
 10
-26.0838790408425
 20
-25.8100801568726
 30
0.0
  0
LINE
  5
CE
330
0
100
AcDbEntity
  8
1
100
AcDbLine
 10
-26.0838790408425
 20
-25.8100801568726
 30
0.0
 11
-25.9452099333954
 21
-25.672866639938
 31
0.0
  0
ARC
  5
CF
330
0
100
AcDbEntity
  8
1
100
AcDbCircle
 10
0.00000061981774
 20
0.000000679024739
 30
0.0
 40
36.5000009181867
100
AcDbArc
 50
224.697703328869
 51
227.609989052147
  0
LINE
  5
D0
330
0
100
AcDbEntity
  8
1
100
AcDbLine
 10
-24.6073376288477
 20
-26.9579104312611
 30
0.0
 11
-24.7388562233937
 21
-27.1019921090636
 31
0.0
  0
SPLINE
  5
D1
330
0
100
AcDbEntity
  8
1
100
AcDbSpline
 70
     8
 71
     3
 72
     8
 73
     4
 74
     0
 40
0.0
 40
0.0
 40
0.0
 40
0.0
 40
1.0
 40
1.0
 40
1.0
 40
1.0
 10
-24.7388562233937
 20
-27.1019921090636
 30
0.0
 10
-24.8185094956529
 20
-27.1986266677231
 30
0.0
 10
-25.0489769713425
 20
-27.4981337579933
 30
0.0
 10
-25.3485728055168
 20
-28.0645128996606
 30
0.0
  0
SPLINE
  5
D2
330
0
100
AcDbEntity
  8
1
100
AcDbSpline
 70
     8
 71
     3
 72
     8
 73
     4
 74
     0
 40
0.0
 40
0.0
 40
0.0
 40
0.0
 40
1.0
 40
1.0
 40
1.0
 40
1.0
 10
-25.3485728055168
 20
-28.0645128996606
 30
0.0
 10
-25.7070933749091
 20
-28.7452341619167
 30
0.0
 10
-26.1531599653444
 20
-29.7936029938997
 30
0.0
 10
-26.5143916737997
 20
-31.2754225692322
 30
0.0
  0
ARC
  5
D3
330
0
100
AcDbEntity
  8
1
100
AcDbCircle
 10
0.0
 20
0.0
 30
0.0
 40
41.0020124227543
100
AcDbArc
 50
229.709693490676
 51
231.828768047785
  0
SPLINE
  5
D4
330
0
100
AcDbEntity
  8
1
100
AcDbSpline
 70
     8
 71
     3
 72
     8
 73
     4
 74
     0
 40
0.0
 40
0.0
 40
0.0
 40
0.0
 40
1.0
 40
1.0
 40
1.0
 40
1.0
 10
-25.339807082404
 20
-32.2344412041258
 30
0.0
 10
-23.9601897375777
 20
-31.5841077643533
 30
0.0
 10
-23.0222325353304
 20
-30.9373551859059
 30
0.0
 10
-22.4269815315512
 20
-30.4499183406995
 30
0.0
  0
SPLINE
  5
D5
330
0
100
AcDbEntity
  8
1
100
AcDbSpline
 70
     8
 71
     3
 72
     8
 73
     4
 74
     0
 40
0.0
 40
0.0
 40
0.0
 40
0.0
 40
1.0
 40
1.0
 40
1.0
 40
1.0
 10
-22.4269815315512
 20
-30.4499183406995
 30
0.0
 10
-21.9319754076169
 20
-30.0430867622325
 30
0.0
 10
-21.6846205770674
 20
-29.7573677704299
 30
0.0
 10
-21.6058716408737
 20
-29.6599948442271
 30
0.0
  0
LINE
  5
D6
330
0
100
AcDbEntity
  8
1
100
AcDbLine
 10
-21.6058716408737
 20
-29.6599948442271
 30
0.0
 11
-21.4910088579508
 21
-29.5023141171583
 31
0.0
  0
ARC
  5
D7
330
0
100
AcDbEntity
  8
1
100
AcDbCircle
 10
0.000000502868222
 20
0.000000769657589
 30
0.0
 40
36.500000918187
100
AcDbArc
 50
233.928472559638
 51
236.840758282916
  0
LINE
  5
D8
330
0
100
AcDbEntity
  8
1
100
AcDbLine
 10
-19.9643261278465
 20
-30.5561071188884
 30
0.0
 11
-20.0710292646505
 21
-30.7194200430124
 31
0.0
  0
SPLINE
  5
D9
330
0
100
AcDbEntity
  8
1
100
AcDbSpline
 70
     8
 71
     3
 72
     8
 73
     4
 74
     0
 40
0.0
 40
0.0
 40
0.0
 40
0.0
 40
1.0
 40
1.0
 40
1.0
 40
1.0
 10
-20.0710292646505
 20
-30.7194200430124
 30
0.0
 10
-20.1341497746243
 20
-30.8275804929449
 30
0.0
 10
-20.313588441057
 20
-31.1601786280293
 30
0.0
 10
-20.5184509842979
 20
-31.7672818600643
 30
0.0
  0
SPLINE
  5
DA
330
0
100
AcDbEntity
  8
1
100
AcDbSpline
 70
     8
 71
     3
 72
     8
 73
     4
 74
     0
 40
0.0
 40
0.0
 40
0.0
 40
0.0
 40
1.0
 40
1.0
 40
1.0
 40
1.0
 10
-20.5184509842979
 20
-31.7672818600643
 30
0.0
 10
-20.7631334368921
 20
-32.4966987045074
 30
0.0
 10
-21.0352533949855
 20
-33.6030455485772
 30
0.0
 10
-21.1541066716102
 20
-35.1236215906309
 30
0.0
  0
ARC
  5
DB
330
0
100
AcDbEntity
  8
1
100
AcDbCircle
 10
0.0
 20
0.0
 30
0.0
 40
41.0020124227543
100
AcDbArc
 50
238.940462721446
 51
241.059537278554
  0
SPLINE
  5
DC
330
0
100
AcDbEntity
  8
1
100
AcDbSpline
 70
     8
 71
     3
 72
     8
 73
     4
 74
     0
 40
0.0
 40
0.0
 40
0.0
 40
0.0
 40
1.0
 40
1.0
 40
1.0
 40
1.0
 10
-19.840895234593
 20
-35.8818045672957
 30
0.0
 10
-18.5834643921008
 20
-35.0185865893889
 30
0.0
 10
-17.7613998987863
 20
-34.2297503707683
 30
0.0
 10
-17.2520476078474
 20
-33.6531407287399
 30
0.0
  0
SPLINE
  5
DD
330
0
100
AcDbEntity
  8
1
100
AcDbSpline
 70
     8
 71
     3
 72
     8
 73
     4
 74
     0
 40
0.0
 40
0.0
 40
0.0
 40
0.0
 40
1.0
 40
1.0
 40
1.0
 40
1.0
 10
-17.2520476078474
 20
-33.6531407287399
 30
0.0
 10
-16.8287120578059
 20
-33.1721729459919
 30
0.0
 10
-16.6303929567878
 20
-32.8504754348977
 30
0.0
 10
-16.5682835144484
 20
-32.7417312447944
 30
0.0
  0
LINE
  5
DE
330
0
100
AcDbEntity
  8
1
100
AcDbLine
 10
-16.5682835144484
 20
-32.7417312447944
 30
0.0
 11
-16.4802019417927
 21
-32.5676671555967
 31
0.0
  0
ARC
  5
DF
330
0
100
AcDbEntity
  8
1
100
AcDbCircle
 10
0.000000372894229
 20
0.000000840355959
 30
0.0
 40
36.5000009181865
100
AcDbArc
 50
243.159241790407
 51
246.071527513686
  0
LINE
  5
E0
330
0
100
AcDbEntity
  8
1
100
AcDbLine
 10
-14.8042490669121
 20
-33.3629166825209
 30
0.0
 11
-14.8833731907794
 21
-33.5412311340159
 31
0.0
  0
SPLINE
  5
E1
330
0
100
AcDbEntity
  8
1
100
AcDbSpline
 70
     8
 71
     3
 72
     8
 73
     4
 74
     0
 40
0.0
 40
0.0
 40
0.0
 40
0.0
 40
1.0
 40
1.0
 40
1.0
 40
1.0
 10
-14.8833731907794
 20
-33.5412311340159
 30
0.0
 10
-14.928326150415
 20
-33.6581161763821
 30
0.0
 10
-15.052088640385
 20
-34.015191239288
 30
0.0
 10
-15.156912060432
 20
-34.6472949068774
 30
0.0
  0
SPLINE
  5
E2
330
0
100
AcDbEntity
  8
1
100
AcDbSpline
 70
     8
 71
     3
 72
     8
 73
     4
 74
     0
 40
0.0
 40
0.0
 40
0.0
 40
0.0
 40
1.0
 40
1.0
 40
1.0
 40
1.0
 10
-15.156912060432
 20
-34.6472949068774
 30
0.0
 10
-15.2814192492317
 20
-35.4065158203816
 30
0.0
 10
-15.3725448110066
 20
-36.5421868744141
 30
0.0
 10
-15.2459414183669
 20
-38.0621372624216
 30
0.0
  0
ARC
  5
E3
330
0
100
AcDbEntity
  8
1
100
AcDbCircle
 10
0.0
 20
0.0
 30
0.0
 40
41.0020124227543
100
AcDbArc
 50
248.171231952215
 51
250.290306509323
  0
SPLINE
  5
E4
330
0
100
AcDbEntity
  8
1
100
AcDbSpline
 70
     8
 71
     3
 72
     8
 73
     4
 74
     0
 40
0.0
 40
0.0
 40
0.0
 40
0.0
 40
1.0
 40
1.0
 40
1.0
 40
1.0
 10
-13.8281146221486
 20
-38.5998480400172
 30
0.0
 10
-12.7254370803132
 20
-37.5461024161763
 30
0.0
 10
-12.0405563344977
 20
-36.6356130010883
 30
0.0
 10
-11.6302947131839
 20
-35.9847644490872
 30
0.0
  0
SPLINE
  5
E5
330
0
100
AcDbEntity
  8
1
100
AcDbSpline
 70
     8
 71
     3
 72
     8
 73
     4
 74
     0
 40
0.0
 40
0.0
 40
0.0
 40
0.0
 40
1.0
 40
1.0
 40
1.0
 40
1.0
 10
-11.6302947131839
 20
-35.9847644490872
 30
0.0
 10
-11.2895939054135
 20
-35.4421172749906
 30
0.0
 10
-11.1454468944708
 20
-35.0927730411623
 30
0.0
 10
-11.1015855479177
 20
-34.9754740045614
 30
0.0
  0
LINE
  5
E6
330
0
100
AcDbEntity
  8
1
100
AcDbLine
 10
-11.1015855479177
 20
-34.9754740045614
 30
0.0
 11
-11.0425664519939
 21
-34.7895347217133
 31
0.0
  0
ARC
  5
E7
330
0
100
AcDbEntity
  8
1
100
AcDbCircle
 10
0.000000233262917
 20
0.000000889290568
 30
0.0
 40
36.500000918187
100
AcDbArc
 50
252.390011021177
 51
255.302296744455
  0
LINE
  5
E8
330
0
100
AcDbEntity
  8
1
100
AcDbLine
 10
-9.26074973145872
 20
-35.3056442288098
 30
0.0
 11
-9.31024556914316
 21
-35.4943419570463
 31
0.0
  0
SPLINE
  5
E9
330
0
100
AcDbEntity
  8
1
100
AcDbSpline
 70
     8
 71
     3
 72
     8
 73
     4
 74
     0
 40
0.0
 40
0.0
 40
0.0
 40
0.0
 40
1.0
 40
1.0
 40
1.0
 40
1.0
 10
-9.31024556914316
 20
-35.4943419570463
 30
0.0
 10
-9.33586672039878
 20
-35.6169243306458
 30
0.0
 10
-9.40074765042528
 20
-35.9892282648067
 30
0.0
 10
-9.40281707576037
 20
-36.6299612149889
 30
0.0
  0
SPLINE
  5
EA
330
0
100
AcDbEntity
  8
1
100
AcDbSpline
 70
     8
 71
     3
 72
     8
 73
     4
 74
     0
 40
0.0
 40
0.0
 40
0.0
 40
0.0
 40
1.0
 40
1.0
 40
1.0
 40
1.0
 10
-9.40281707576037
 20
-36.6299612149889
 30
0.0
 10
-9.40392432997621
 20
-37.3993227746948
 30
0.0
 10
-9.31169539124874
 20
-38.534904754931
 30
0.0
 10
-8.94291429071236
 20
-40.0148635722361
 30
0.0
  0
ARC
  5
EB
330
0
100
AcDbEntity
  8
1
100
AcDbCircle
 10
0.0
 20
0.0
 30
0.0
 40
41.0020124227543
100
AcDbArc
 50
257.402001182984
 51
259.521075740093
  0
SPLINE
  5
EC
330
0
100
AcDbEntity
  8
1
100
AcDbSpline
 70
     8
 71
     3
 72
     8
 73
     4
 74
     0
 40
0.0
 40
0.0
 40
0.0
 40
0.0
 40
1.0
 40
1.0
 40
1.0
 40
1.0
 10
-7.45719310456485
 20
-40.3181757240692
 30
0.0
 10
-6.53782763250989
 20
-39.1011939124446
 30
0.0
 10
-6.00786868575875
 20
-38.0926324984819
 30
0.0
 10
-5.70732329456166
 20
-37.38440167213
 30
0.0
  0
SPLINE
  5
ED
330
0
100
AcDbEntity
  8
1
100
AcDbSpline
 70
     8
 71
     3
 72
     8
 73
     4
 74
     0
 40
0.0
 40
0.0
 40
0.0
 40
0.0
 40
1.0
 40
1.0
 40
1.0
 40
1.0
 10
-5.70732329456166
 20
-37.38440167213
 30
0.0
 10
-5.45808120102157
 20
-36.7941293834546
 30
0.0
 10
-5.37183961202079
 20
-36.4261862590461
 30
0.0
 10
-5.34736234709046
 20
-36.3033703593813
 30
0.0
  0
LINE
  5
EE
330
0
100
AcDbEntity
  8
1
100
AcDbLine
 10
-5.34736234709046
 20
-36.3033703593813
 30
0.0
 11
-5.31893429148163
 21
-36.1103716126392
 31
0.0
  0
ARC
  5
EF
330
0
100
AcDbEntity
  8
1
100
AcDbCircle
 10
0.000000087590044
 20
0.000000915193123
 30
0.0
 40
36.5000009181877
100
AcDbArc
 50
261.620780251946
 51
264.533065975224
  0
LINE
  5
F0
330
0
100
AcDbEntity
  8
1
100
AcDbLine
 10
-3.47740184240851
 20
-36.3339741347738
 30
0.0
 11
-3.49598747771304
 21
-36.528167967709
 31
0.0
  0
SPLINE
  5
F1
330
0
100
AcDbEntity
  8
1
100
AcDbSpline
 70
     8
 71
     3
 72
     8
 73
     4
 74
     0
 40
0.0
 40
0.0
 40
0.0
 40
0.0
 40
1.0
 40
1.0
 40
1.0
 40
1.0
 10
-3.49598747771304
 20
-36.528167967709
 30
0.0
 10
-3.50161324622931
 20
-36.6532728534551
 30
0.0
 10
-3.50593223430503
 20
-37.0311631825386
 30
0.0
 10
-3.40519406789903
 20
-37.6639307684653
 30
0.0
  0
SPLINE
  5
F2
330
0
100
AcDbEntity
  8
1
100
AcDbSpline
 70
     8
 71
     3
 72
     8
 73
     4
 74
     0
 40
0.0
 40
0.0
 40
0.0
 40
0.0
 40
1.0
 40
1.0
 40
1.0
 40
1.0
 10
-3.40519406789903
 20
-37.6639307684653
 30
0.0
 10
-3.28287271022845
 20
-38.4235069141035
 30
0.0
 10
-3.00967795206599
 20
-39.5295888437491
 30
0.0
 10
-2.40827038042501
 20
-40.9312259343703
 30
0.0
  0
ARC
  5
F3
330
0
100
AcDbEntity
  8
1
100
AcDbCircle
 10
0.0
 20
0.0
 30
0.0
 40
41.0020124227543
100
AcDbArc
 50
266.632770413753
 51
268.751844970862
  0
SPLINE
  5
F4
330
0
100
AcDbEntity
  8
1
100
AcDbSpline
 70
     8
 71
     3
 72
     8
 73
     4
 74
     0
 40
0.0
 40
0.0
 40
0.0
 40
0.0
 40
1.0
 40
1.0
 40
1.0
 40
1.0
 10
-0.893134202656122
 20
-40.992283835031
 30
0.0
 10
-0.180891883187353
 20
-39.6435850252926
 30
0.0
 10
0.180419606153197
 20
-38.5630728233038
 30
0.0
 10
0.363464799470836
 20
-37.8158025289871
 30
0.0
  0
SPLINE
  5
F5
330
0
100
AcDbEntity
  8
1
100
AcDbSpline
 70
     8
 71
     3
 72
     8
 73
     4
 74
     0
 40
0.0
 40
0.0
 40
0.0
 40
0.0
 40
1.0
 40
1.0
 40
1.0
 40
1.0
 10
0.363464799470836
 20
-37.8158025289871
 30
0.0
 10
0.514792939478741
 20
-37.1931928679537
 30
0.0
 10
0.540895494683111
 20
-36.8161803866157
 30
0.0
 10
0.545354729686327
 20
-36.6910284911761
 30
0.0
  0
LINE
  5
F6
330
0
100
AcDbEntity
  8
1
100
AcDbLine
 10
0.545354729686327
 20
-36.6910284911761
 30
0.0
 11
0.542455473272462
 21
-36.495968846703
 31
0.0
  0
ARC
  5
F7
330
0
100
AcDbEntity
  8
1
100
AcDbCircle
 10
-0.000000060351442
 20
0.000000917390782
 30
0.0
 40
36.5000009181864
100
AcDbArc
 50
270.851549482715
 51
273.763835205993
  0
LINE
  5
F8
330
0
100
AcDbEntity
  8
1
100
AcDbLine
 10
2.39600892776489
 20
-36.4212731960055
 30
0.0
 11
2.40881485303208
 21
-36.6159336153716
 31
0.0
  0
SPLINE
  5
F9
330
0
100
AcDbEntity
  8
1
100
AcDbSpline
 70
     8
 71
     3
 72
     8
 73
     4
 74
     0
 40
0.0
 40
0.0
 40
0.0
 40
0.0
 40
1.0
 40
1.0
 40
1.0
 40
1.0
 10
2.40881485303208
 20
-36.6159336153716
 30
0.0
 10
2.42333017170464
 20
-36.7403208624381
 30
0.0
 10
2.47968498510221
 20
-37.1140104254175
 30
0.0
 10
2.68062167765469
 20
-37.7224242989908
 30
0.0
  0
SPLINE
  5
FA
330
0
100
AcDbEntity
  8
1
100
AcDbSpline
 70
     8
 71
     3
 72
     8
 73
     4
 74
     0
 40
0.0
 40
0.0
 40
0.0
 40
0.0
 40
1.0
 40
1.0
 40
1.0
 40
1.0
 10
2.68062167765469
 20
-37.7224242989908
 30
0.0
 10
2.92320358830049
 20
-38.4525424073762
 30
0.0
 10
3.37028856516413
 20
-39.5004773454515
 30
0.0
 10
4.18874646770906
 20
-40.7874910449877
 30
0.0
  0
ARC
  5
FB
330
0
100
AcDbEntity
  8
1
100
AcDbCircle
 10
0.0
 20
0.0
 30
0.0
 40
41.0020124227543
100
AcDbArc
 50
275.863539644522
 51
277.982614201631
  0
SPLINE
  5
FC
330
0
100
AcDbEntity
  8
1
100
AcDbSpline
 70
     8
 71
     3
 72
     8
 73
     4
 74
     0
 40
0.0
 40
0.0
 40
0.0
 40
0.0
 40
1.0
 40
1.0
 40
1.0
 40
1.0
 10
5.69405640595952
 20
-40.6047133269211
 30
0.0
 10
6.18072887089154
 20
-39.1592281098024
 30
0.0
 10
6.36403512503577
 20
-38.0347498182521
 30
0.0
 10
6.42483934611625
 20
-37.2677939640703
 30
0.0
  0
SPLINE
  5
FD
330
0
100
AcDbEntity
  8
1
100
AcDbSpline
 70
     8
 71
     3
 72
     8
 73
     4
 74
     0
 40
0.0
 40
0.0
 40
0.0
 40
0.0
 40
1.0
 40
1.0
 40
1.0
 40
1.0
 10
6.42483934611625
 20
-37.2677939640703
 30
0.0
 10
6.47433421325477
 20
-36.6289721938579
 30
0.0
 10
6.43962169219398
 20
-36.2526547808215
 30
0.0
 10
6.42394740542583
 20
-36.1284082579597
 30
0.0
  0
LINE
  5
FE
330
0
100
AcDbEntity
  8
1
100
AcDbLine
 10
6.42394740542583
 20
-36.1284082579597
 30
0.0
 11
6.38979592620748
 21
-35.9363396580874
 31
0.0
  0
ARC
  5
FF
330
0
100
AcDbEntity
  8
1
100
AcDbCircle
 10
-0.000000206729881
 20
0.000000895830386
 30
0.0
 40
36.500000918187
100
AcDbArc
 50
280.082318713484
 51
282.994604436763
  0
LINE
  5
100
330
0
100
AcDbEntity
  8
1
100
AcDbLine
 10
8.20736432527479
 20
-35.565280412675
 30
0.0
 11
8.2512301443759
 21
-35.7553658158609
 31
0.0
  0
SPLINE
  5
101
330
0
100
AcDbEntity
  8
1
100
AcDbSpline
 70
     8
 71
     3
 72
     8
 73
     4
 74
     0
 40
0.0
 40
0.0
 40
0.0
 40
0.0
 40
1.0
 40
1.0
 40
1.0
 40
1.0
 10
8.2512301443759
 20
-35.7553658158609
 30
0.0
 10
8.28551061110823
 20
-35.8758138598863
 30
0.0
 10
8.40107966591392
 20
-36.2356242933705
 30
0.0
 10
8.69701072982296
 20
-36.80392685485
 30
0.0
  0
SPLINE
  5
102
330
0
100
AcDbEntity
  8
1
100
AcDbSpline
 70
     8
 71
     3
 72
     8
 73
     4
 74
     0
 40
0.0
 40
0.0
 40
0.0
 40
0.0
 40
1.0
 40
1.0
 40
1.0
 40
1.0
 10
8.69701072982296
 20
-36.80392685485
 30
0.0
 10
9.05357044938066
 20
-37.4856772504889
 30
0.0
 10
9.66296637888764
 20
-38.4483242325526
 30
0.0
 10
10.6772769825768
 20
-39.587381562223
 30
0.0
  0
ARC
  5
103
330
0
100
AcDbEntity
  8
1
100
AcDbCircle
 10
0.0
 20
0.0
 30
0.0
 40
41.0020124227543
100
AcDbArc
 50
285.094308875292
 51
287.2133834324
  0
SPLINE
  5
104
330
0
100
AcDbEntity
  8
1
100
AcDbSpline
 70
     8
 71
     3
 72
     8
 73
     4
 74
     0
 40
0.0
 40
0.0
 40
0.0
 40
0.0
 40
1.0
 40
1.0
 40
1.0
 40
1.0
 10
12.133773944611
 20
-39.1655020723184
 30
0.0
 10
12.3822719938018
 20
-37.6606677556641
 30
0.0
 10
12.3828254770538
 20
-36.5213467716423
 30
0.0
 10
12.3198139285101
 20
-35.7545691113554
 30
0.0
  0
SPLINE
  5
105
330
0
100
AcDbEntity
  8
1
100
AcDbSpline
 70
     8
 71
     3
 72
     8
 73
     4
 74
     0
 40
0.0
 40
0.0
 40
0.0
 40
0.0
 40
1.0
 40
1.0
 40
1.0
 40
1.0
 10
12.3198139285101
 20
-35.7545691113554
 30
0.0
 10
12.2661936317188
 20
-35.1160803802549
 30
0.0
 10
12.1715650704547
 20
-34.7502044588472
 30
0.0
 10
12.1361632177091
 20
-34.6300812282416
 30
0.0
  0
LINE
  5
106
330
0
100
AcDbEntity
  8
1
100
AcDbLine
 10
12.1361632177091
 20
-34.6300812282416
 30
0.0
 11
12.0716440210591
 21
-34.4459781488177
 31
0.0
  0
ARC
  5
107
330
0
100
AcDbEntity
  8
1
100
AcDbCircle
 10
-0.000000347754086
 20
0.000000851067817
 30
0.0
 40
36.500000918187
100
AcDbArc
 50
289.313087944254
 51
292.225373667532
  0
LINE
  5
108
330
0
100
AcDbEntity
  8
1
100
AcDbLine
 10
13.8061532978901
 20
-33.7881655482383
 30
0.0
 11
13.8799429091521
 21
-33.9687528231486
 31
0.0
  0
SPLINE
  5
109
330
0
100
AcDbEntity
  8
1
100
AcDbSpline
 70
     8
 71
     3
 72
     8
 73
     4
 74
     0
 40
0.0
 40
0.0
 40
0.0
 40
0.0
 40
1.0
 40
1.0
 40
1.0
 40
1.0
 10
13.8799429091521
 20
-33.9687528231486
 30
0.0
 10
13.9331006778625
 20
-34.0821421230612
 30
0.0
 10
14.1048907962625
 20
-34.4187545258228
 30
0.0
 10
14.4881517724183
 20
-34.9322270373816
 30
0.0
  0
SPLINE
  5
10A
330
0
100
AcDbEntity
  8
1
100
AcDbSpline
 70
     8
 71
     3
 72
     8
 73
     4
 74
     0
 40
0.0
 40
0.0
 40
0.0
 40
0.0
 40
1.0
 40
1.0
 40
1.0
 40
1.0
 10
14.4881517724183
 20
-34.9322270373816
 30
0.0
 10
14.9494545914436
 20
-35.547952743134
 30
0.0
 10
15.7053784391206
 20
-36.4003797180059
 30
0.0
 10
16.8892716321112
 20
-37.3619796912913
 30
0.0
  0
ARC
  5
10B
330
0
100
AcDbEntity
  8
1
100
AcDbCircle
 10
0.0
 20
0.0
 30
0.0
 40
41.0020124227543
100
AcDbArc
 50
294.325078106061
 51
296.44415266317
  0
SPLINE
  5
10C
330
0
100
AcDbEntity
  8
1
100
AcDbSpline
 70
     8
 71
     3
 72
     8
 73
     4
 74
     0
 40
0.0
 40
0.0
 40
0.0
 40
0.0
 40
1.0
 40
1.0
 40
1.0
 40
1.0
 10
18.2592331116752
 20
-36.711924886734
 30
0.0
 10
18.2631207761808
 20
-35.1867158888925
 30
0.0
 10
18.0809071536149
 20
-34.0620600274275
 30
0.0
 10
17.8957118014559
 20
-33.3153196996672
 30
0.0
  0
SPLINE
  5
10D
330
0
100
AcDbEntity
  8
1
100
AcDbSpline
 70
     8
 71
     3
 72
     8
 73
     4
 74
     0
 40
0.0
 40
0.0
 40
0.0
 40
0.0
 40
1.0
 40
1.0
 40
1.0
 40
1.0
 10
17.8957118014559
 20
-33.3153196996672
 30
0.0
 10
17.7403650782563
 20
-32.6937005304313
 30
0.0
 10
17.5882713068195
 20
-32.3477420948311
 30
0.0
 10
17.5340587774869
 20
-32.2348532850566
 30
0.0
  0
LINE
  5
10E
330
0
100
AcDbEntity
  8
1
100
AcDbLine
 10
17.5340587774869
 20
-32.2348532850566
 30
0.0
 11
17.440842876708
 21
-32.0634838991333
 31
0.0
  0
ARC
  5
10F
330
0
100
AcDbEntity
  8
1
100
AcDbCircle
 10
-0.00000047977132
 20
0.000000784262507
 30
0.0
 40
36.5000009181864
100
AcDbArc
 50
298.543857175023
 51
301.456142898301
  0
LINE
  5
110
330
0
100
AcDbEntity
  8
1
100
AcDbLine
 10
19.0473701521287
 20
-31.1359549442088
 30
0.0
 11
19.1491724433797
 21
-31.3023669752815
 31
0.0
  0
SPLINE
  5
111
330
0
100
AcDbEntity
  8
1
100
AcDbSpline
 70
     8
 71
     3
 72
     8
 73
     4
 74
     0
 40
0.0
 40
0.0
 40
0.0
 40
0.0
 40
1.0
 40
1.0
 40
1.0
 40
1.0
 10
19.1491724433797
 20
-31.3023669752815
 30
0.0
 10
19.2198307557811
 20
-31.4057608077742
 30
0.0
 10
19.443392663946
 20
-31.710457095396
 30
0.0
 10
19.9040572943839
 20
-32.1558008886995
 30
0.0
  0
SPLINE
  5
112
330
0
100
AcDbEntity
  8
1
100
AcDbSpline
 70
     8
 71
     3
 72
     8
 73
     4
 74
     0
 40
0.0
 40
0.0
 40
0.0
 40
0.0
 40
1.0
 40
1.0
 40
1.0
 40
1.0
 10
19.9040572943839
 20
-32.1558008886995
 30
0.0
 10
20.4581557121752
 20
-32.6895549322121
 30
0.0
 10
21.3410294474359
 20
-33.4096844890023
 30
0.0
 10
22.6638430179001
 20
-34.1689221716998
 30
0.0
  0
ARC
  5
113
330
0
100
AcDbEntity
  8
1
100
AcDbCircle
 10
0.0
 20
0.0
 30
0.0
 40
41.0020124227543
100
AcDbArc
 50
303.55584733683
 51
305.674921893939
  0
SPLINE
  5
114
330
0
100
AcDbEntity
  8
1
100
AcDbSpline
 70
     8
 71
     3
 72
     8
 73
     4
 74
     0
 40
0.0
 40
0.0
 40
0.0
 40
0.0
 40
1.0
 40
1.0
 40
1.0
 40
1.0
 10
23.9117877322808
 20
-33.3075281304699
 30
0.0
 10
23.6709643236325
 20
-31.8014465633298
 30
0.0
 10
23.3107028323609
 20
-30.7205838204791
 30
0.0
 10
23.0081201389288
 20
-30.0132210074897
 30
0.0
  0
SPLINE
  5
115
330
0
100
AcDbEntity
  8
1
100
AcDbSpline
 70
     8
 71
     3
 72
     8
 73
     4
 74
     0
 40
0.0
 40
0.0
 40
0.0
 40
0.0
 40
1.0
 40
1.0
 40
1.0
 40
1.0
 10
23.0081201389288
 20
-30.0132210074897
 30
0.0
 10
22.7550703878518
 20
-29.4245710100801
 30
0.0
 10
22.5494505550313
 20
-29.1074902020458
 30
0.0
 10
22.4778314251449
 20
-29.0047595739778
 30
0.0
  0
LINE
  5
116
330
0
100
AcDbEntity
  8
1
100
AcDbLine
 10
22.4778314251449
 20
-29.0047595739778
 30
0.0
 11
22.3583330631034
 21
-28.8505622586344
 31
0.0
  0
ARC
  5
117
330
0
100
AcDbEntity
  8
1
100
AcDbCircle
 10
-0.000000599363297
 20
0.000000697146179
 30
0.0
 40
36.5000009181869
100
AcDbArc
 50
307.774626405792
 51
310.68691212907
  0
LINE
  5
118
330
0
100
AcDbEntity
  8
1
100
AcDbLine
 10
23.7952701245502
 20
-27.6773394620886
 30
0.0
 11
23.9224484699212
 21
-27.8252662651313
 31
0.0
  0
SPLINE
  5
119
330
0
100
AcDbEntity
  8
1
100
AcDbSpline
 70
     8
 71
     3
 72
     8
 73
     4
 74
     0
 40
0.0
 40
0.0
 40
0.0
 40
0.0
 40
1.0
 40
1.0
 40
1.0
 40
1.0
 10
23.9224484699212
 20
-27.8252662651313
 30
0.0
 10
24.0087773128375
 20
-27.9159867842527
 30
0.0
 10
24.2783208747775
 20
-28.1808754829349
 30
0.0
 10
24.8044581875451
 20
-28.5465563876649
 30
0.0
  0
SPLINE
  5
11A
330
0
100
AcDbEntity
  8
1
100
AcDbSpline
 70
     8
 71
     3
 72
     8
 73
     4
 74
     0
 40
0.0
 40
0.0
 40
0.0
 40
0.0
 40
1.0
 40
1.0
 40
1.0
 40
1.0
 10
24.8044581875451
 20
-28.5465563876649
 30
0.0
 10
25.4370013461361
 20
-28.984514819579
 30
0.0
 10
26.4239590029896
 20
-29.5536959810331
 30
0.0
 10
27.8514327742942
 20
-30.0909075159702
 30
0.0
  0
ARC
  5
11B
330
0
100
AcDbEntity
  8
1
100
AcDbCircle
 10
0.0
 20
0.0
 30
0.0
 40
41.0020124227543
100
AcDbArc
 50
312.786616567599
 51
314.905691124708
  0
SPLINE
  5
11C
330
0
100
AcDbEntity
  8
1
100
AcDbSpline
 70
     8
 71
     3
 72
     8
 73
     4
 74
     0
 40
0.0
 40
0.0
 40
0.0
 40
0.0
 40
1.0
 40
1.0
 40
1.0
 40
1.0
 10
28.9450396109043
 20
-29.0404838912659
 30
0.0
 10
28.4657423288875
 20
-27.592536476308
 30
0.0
 10
27.9367635522974
 20
-26.5834606293603
 30
0.0
 10
27.5246302504128
 20
-25.9337956564376
 30
0.0
  0
SPLINE
  5
11D
330
0
100
AcDbEntity
  8
1
100
AcDbSpline
 70
     8
 71
     3
 72
     8
 73
     4
 74
     0
 40
0.0
 40
0.0
 40
0.0
 40
0.0
 40
1.0
 40
1.0
 40
1.0
 40
1.0
 10
27.5246302504128
 20
-25.9337956564376
 30
0.0
 10
27.1804313270904
 20
-25.3933605565837
 30
0.0
 10
26.9266108785492
 20
-25.1133696024885
 30
0.0
 10
26.8394400459532
 20
-25.023457825432
 30
0.0
  0
LINE
  5
11E
330
0
100
AcDbEntity
  8
1
100
AcDbLine
 10
26.8394400459532
 20
-25.023457825432
 30
0.0
 11
26.6967541674562
 21
-24.8904262101397
 31
0.0
  0
ARC
  5
11F
330
0
100
AcDbEntity
  8
1
100
AcDbCircle
 10
-0.000000703431327
 20
0.000000591973276
 30
0.0
 40
36.5000009181863
100
AcDbArc
 50
317.005395636561
 51
319.917681359839
  0
LINE
  5
120
330
0
100
AcDbEntity
  8
1
100
AcDbLine
 10
27.926885099826
 20
-23.5018954261378
 30
0.0
 11
28.0761456469756
 21
-23.6275057746539
 31
0.0
  0
SPLINE
  5
121
330
0
100
AcDbEntity
  8
1
100
AcDbSpline
 70
     8
 71
     3
 72
     8
 73
     4
 74
     0
 40
0.0
 40
0.0
 40
0.0
 40
0.0
 40
1.0
 40
1.0
 40
1.0
 40
1.0
 10
28.0761456469756
 20
-23.6275057746539
 30
0.0
 10
28.1759091487217
 20
-23.7032033666122
 30
0.0
 10
28.4844533277673
 20
-23.9214239981985
 30
0.0
 10
29.0624366428311
 20
-24.1979710710058
 30
0.0
  0
SPLINE
  5
122
330
0
100
AcDbEntity
  8
1
100
AcDbSpline
 70
     8
 71
     3
 72
     8
 73
     4
 74
     0
 40
0.0
 40
0.0
 40
0.0
 40
0.0
 40
1.0
 40
1.0
 40
1.0
 40
1.0
 10
29.0624366428311
 20
-24.1979710710058
 30
0.0
 10
29.7570420066739
 20
-24.5287909979836
 30
0.0
 10
30.8225219002326
 20
-24.9322822709973
 30
0.0
 10
32.3176850515184
 20
-25.2335541616032
 30
0.0
  0
ARC
  5
123
330
0
100
AcDbEntity
  8
1
100
AcDbCircle
 10
0.0
 20
0.0
 30
0.0
 40
41.0020124227543
100
AcDbArc
 50
322.017385798369
 51
324.136460355477
  0
SPLINE
  5
124
330
0
100
AcDbEntity
  8
1
100
AcDbSpline
 70
     8
 71
     3
 72
     8
 73
     4
 74
     0
 40
0.0
 40
0.0
 40
0.0
 40
0.0
 40
1.0
 40
1.0
 40
1.0
 40
1.0
 10
33.228630167735
 20
-24.0213063735424
 30
0.0
 10
32.5232725601906
 20
-22.6689941882423
 30
0.0
 10
31.8392767707359
 20
-21.7578397715903
 30
0.0
 10
31.328266896434
 20
-21.1826986202797
 30
0.0
  0
SPLINE
  5
125
330
0
100
AcDbEntity
  8
1
100
AcDbSpline
 70
     8
 71
     3
 72
     8
 73
     4
 74
     0
 40
0.0
 40
0.0
 40
0.0
 40
0.0
 40
1.0
 40
1.0
 40
1.0
 40
1.0
 10
31.328266896434
 20
-21.1826986202797
 30
0.0
 10
30.9018333721808
 20
-20.7044754031902
 30
0.0
 10
30.6063861242104
 20
-20.4688259216727
 30
0.0
 10
30.5059212676803
 20
-20.394061663425
 30
0.0
  0
LINE
  5
126
330
0
100
AcDbEntity
  8
1
100
AcDbLine
 10
30.5059212676803
 20
-20.394061663425
 30
0.0
 11
30.3437433620315
 21
-20.2856411971416
 31
0.0
  0
ARC
  5
127
330
0
100
AcDbEntity
  8
1
100
AcDbCircle
 10
-0.000000789282423
 20
0.000000471469749
 30
0.0
 40
36.5000009181877
100
AcDbArc
 50
326.236164867331
 51
329.148450590609
  0
LINE
  5
128
330
0
100
AcDbEntity
  8
1
100
AcDbLine
 10
31.335208420334
 20
-18.7177646436274
 30
0.0
 11
31.5026853994939
 21
-18.8178052955705
 31
0.0
  0
SPLINE
  5
129
330
0
100
AcDbEntity
  8
1
100
AcDbSpline
 70
     8
 71
     3
 72
     8
 73
     4
 74
     0
 40
0.0
 40
0.0
 40
0.0
 40
0.0
 40
1.0
 40
1.0
 40
1.0
 40
1.0
 10
31.5026853994939
 20
-18.8178052955705
 30
0.0
 10
31.613299737778
 20
-18.8765194324961
 30
0.0
 10
31.9528534017627
 20
-19.0424201972544
 30
0.0
 10
32.5677132548632
 20
-19.2226710142168
 30
0.0
  0
SPLINE
  5
12A
330
0
100
AcDbEntity
  8
1
100
AcDbSpline
 70
     8
 71
     3
 72
     8
 73
     4
 74
     0
 40
0.0
 40
0.0
 40
0.0
 40
0.0
 40
1.0
 40
1.0
 40
1.0
 40
1.0
 10
32.5677132548632
 20
-19.2226710142168
 30
0.0
 10
33.3063909098938
 20
-19.4377843739215
 30
0.0
 10
34.4227976705854
 20
-19.6651355464677
 30
0.0
 10
35.946926261607
 20
-19.7226650090266
 30
0.0
  0
ARC
  5
12B
330
0
100
AcDbEntity
  8
1
100
AcDbCircle
 10
0.0
 20
0.0
 30
0.0
 40
41.0020124227543
100
AcDbArc
 50
331.248155029138
 51
333.367229586247
  0
SPLINE
  5
12C
330
0
100
AcDbEntity
  8
1
100
AcDbSpline
 70
     8
 71
     3
 72
     8
 73
     4
 74
     0
 40
0.0
 40
0.0
 40
0.0
 40
0.0
 40
1.0
 40
1.0
 40
1.0
 40
1.0
 10
36.6516166574175
 20
-18.3799896385555
 30
0.0
 10
35.7384671158736
 20
-17.1583368581756
 30
0.0
 10
34.9171694452148
 20
-16.3687022926033
 30
0.0
 10
34.3205178858188
 20
-15.8829808166161
 30
0.0
  0
SPLINE
  5
12D
330
0
100
AcDbEntity
  8
1
100
AcDbSpline
 70
     8
 71
     3
 72
     8
 73
     4
 74
     0
 40
0.0
 40
0.0
 40
0.0
 40
0.0
 40
1.0
 40
1.0
 40
1.0
 40
1.0
 10
34.3205178858188
 20
-15.8829808166161
 30
0.0
 10
33.8228941649179
 20
-15.4793552124145
 30
0.0
 10
33.4934720460493
 20
-15.2941504012649
 30
0.0
 10
33.3823151525975
 20
-15.2364700168428
 30
0.0
  0
LINE
  5
12E
330
0
100
AcDbEntity
  8
1
100
AcDbLine
 10
33.3823151525975
 20
-15.2364700168428
 30
0.0
 11
33.2048455423651
 21
-15.1554687326944
 31
0.0
  0
ARC
  5
12F
330
0
100
AcDbEntity
  8
1
100
AcDbCircle
 10
-0.000000854689329
 20
0.000000338754074
 30
0.0
 40
36.5000009181864
100
AcDbArc
 50
335.4669340981
 51
338.379219821378
  0
LINE
  5
130
330
0
100
AcDbEntity
  8
1
100
AcDbLine
 10
33.9319663023828
 20
-13.4488535888365
 30
0.0
 11
34.1133221477644
 21
-13.5207335438701
 31
0.0
  0
SPLINE
  5
131
330
0
100
AcDbEntity
  8
1
100
AcDbSpline
 70
     8
 71
     3
 72
     8
 73
     4
 74
     0
 40
0.0
 40
0.0
 40
0.0
 40
0.0
 40
1.0
 40
1.0
 40
1.0
 40
1.0
 10
34.1133221477644
 20
-13.5207335438701
 30
0.0
 10
34.2319224693279
 20
-13.5609435604577
 30
0.0
 10
34.5936913567138
 20
-13.6702277157245
 30
0.0
 10
35.2295032006268
 20
-13.749513875364
 30
0.0
  0
SPLINE
  5
132
330
0
100
AcDbEntity
  8
1
100
AcDbSpline
 70
     8
 71
     3
 72
     8
 73
     4
 74
     0
 40
0.0
 40
0.0
 40
0.0
 40
0.0
 40
1.0
 40
1.0
 40
1.0
 40
1.0
 10
35.2295032006268
 20
-13.749513875364
 30
0.0
 10
35.9931217835893
 20
-13.843349344773
 30
0.0
 10
37.1315410627334
 20
-13.888672140905
 30
0.0
 10
38.6451609635714
 20
-13.7009691925555
 30
0.0
  0
ARC
  5
133
330
0
100
AcDbEntity
  8
1
100
AcDbCircle
 10
0.0
 20
0.0
 30
0.0
 40
41.0020124227543
100
AcDbArc
 50
340.478924259907
 51
342.597998817016
  0
SPLINE
  5
134
330
0
100
AcDbEntity
  8
1
100
AcDbSpline
 70
     8
 71
     3
 72
     8
 73
     4
 74
     0
 40
0.0
 40
0.0
 40
0.0
 40
0.0
 40
1.0
 40
1.0
 40
1.0
 40
1.0
 10
39.1253455278811
 20
-12.2626408264944
 30
0.0
 10
38.0280541458083
 20
-11.2032876163418
 30
0.0
 10
37.0907257722076
 20
-10.5556240223216
 30
0.0
 10
36.4238854896992
 20
-10.171902152748
 30
0.0
  0
SPLINE
  5
135
330
0
100
AcDbEntity
  8
1
100
AcDbSpline
 70
     8
 71
     3
 72
     8
 73
     4
 74
     0
 40
0.0
 40
0.0
 40
0.0
 40
0.0
 40
1.0
 40
1.0
 40
1.0
 40
1.0
 10
36.4238854896992
 20
-10.171902152748
 30
0.0
 10
35.8679597651322
 20
-9.85332785256834
 30
0.0
 10
35.5130946352066
 20
-9.72336441911198
 30
0.0
 10
35.3941246099855
 20
-9.68426180017383
 30
0.0
  0
LINE
  5
136
330
0
100
AcDbEntity
  8
1
100
AcDbLine
 10
35.3941246099855
 20
-9.68426180017383
 30
0.0
 11
35.205959664854
 21
-9.63277758887186
 31
0.0
  0
ARC
  5
137
330
0
100
AcDbEntity
  8
1
100
AcDbCircle
 10
-0.000000897961932
 20
0.000000197265627
 30
0.0
 40
36.5000009181871
100
AcDbArc
 50
344.697703328869
 51
347.609989052147
  0
LINE
  5
138
330
0
100
AcDbEntity
  8
1
100
AcDbLine
 10
35.6499040808415
 20
-7.8316242904523
 30
0.0
 11
35.8404417713113
 21
-7.87348189549793
 31
0.0
  0
SPLINE
  5
139
330
0
100
AcDbEntity
  8
1
100
AcDbSpline
 70
     8
 71
     3
 72
     8
 73
     4
 74
     0
 40
0.0
 40
0.0
 40
0.0
 40
0.0
 40
1.0
 40
1.0
 40
1.0
 40
1.0
 10
35.8404417713113
 20
-7.87348189549793
 30
0.0
 10
35.9639563901236
 20
-7.89414637343921
 30
0.0
 10
36.3385708767559
 20
-7.94398351699741
 30
0.0
 10
36.9788675187006
 20
-7.9202515494266
 30
0.0
  0
SPLINE
  5
13A
330
0
100
AcDbEntity
  8
1
100
AcDbSpline
 70
     8
 71
     3
 72
     8
 73
     4
 74
     0
 40
0.0
 40
0.0
 40
0.0
 40
0.0
 40
1.0
 40
1.0
 40
1.0
 40
1.0
 10
36.9788675187006
 20
-7.9202515494266
 30
0.0
 10
37.7476497094067
 20
-7.89037883917164
 30
0.0
 10
38.8785970456575
 20
-7.75249942227659
 30
0.0
 10
40.3425062959481
 20
-7.32442547078503
 30
0.0
  0
ARC
  5
13B
330
0
100
AcDbEntity
  8
1
100
AcDbCircle
 10
0.0
 20
0.0
 30
0.0
 40
41.0020124227543
100
AcDbArc
 50
349.709693490676
 51
351.828768047785
  0
SPLINE
  5
13C
330
0
100
AcDbEntity
  8
1
100
AcDbSpline
 70
     8
 71
     3
 72
     8
 73
     4
 74
     0
 40
0.0
 40
0.0
 40
0.0
 40
0.0
 40
1.0
 40
1.0
 40
1.0
 40
1.0
 10
40.5857485007708
 20
-5.82769605829585
 30
0.0
 10
39.3327345485841
 20
-4.95807911006085
 30
0.0
 10
38.3036517845619
 20
-4.46916063447581
 30
0.0
 10
37.583893591983
 20
-4.19737656617804
 30
0.0
  0
SPLINE
  5
13D
330
0
100
AcDbEntity
  8
1
100
AcDbSpline
 70
     8
 71
     3
 72
     8
 73
     4
 74
     0
 40
0.0
 40
0.0
 40
0.0
 40
0.0
 40
1.0
 40
1.0
 40
1.0
 40
1.0
 10
37.583893591983
 20
-4.19737656617804
 30
0.0
 10
36.9840640480017
 20
-3.97210447705557
 30
0.0
 10
36.6129467274823
 20
-3.90074840595226
 30
0.0
 10
36.489244831653
 20
-3.88123628978893
 30
0.0
  0
LINE
  5
13E
330
0
100
AcDbEntity
  8
1
100
AcDbLine
 10
36.489244831653
 20
-3.88123628978893
 30
0.0
 11
36.2952579248628
 21
-3.86060256536269
 31
0.0
  0
ARC
  5
13F
330
0
100
AcDbEntity
  8
1
100
AcDbCircle
 10
-0.000000917978614
 20
0.000000050667952
 30
0.0
 40
36.5000009181885
100
AcDbArc
 50
353.928472559638
 51
356.840758282916
  0
ENDSEC
  0
SECTION
  2
OBJECTS
  0
DICTIONARY
  5
154
330
0
100
AcDbDictionary
  3
ACAD_GROUP
350
155
  0
DICTIONARY
  5
155
330
154
100
AcDbDictionary
  0
ENDSEC
  0
EOF
